M48
; DRILL file {KiCad 7.0.6} date Sat Jul 22 12:41:29 2023
; FORMAT={-:-/ absolute / metric / decimal}
; #@! TF.CreationDate,2023-07-22T12:41:29-04:00
; #@! TF.GenerationSoftware,Kicad,Pcbnew,7.0.6
; #@! TF.FileFunction,Plated,1,2,PTH
FMAT,2
METRIC
; #@! TA.AperFunction,Plated,PTH,ViaDrill
T1C0.508
; #@! TA.AperFunction,Plated,PTH,ViaDrill
T2C0.914
%
G90
G05
T1
X30.48Y-31.496
X30.48Y-37.084
T2
X26.67Y-34.544
X26.67Y-37.084
X26.67Y-39.624
X26.67Y-42.164
X26.67Y-44.704
X26.67Y-47.244
X26.67Y-49.784
X26.67Y-52.324
X26.67Y-54.864
X26.67Y-57.404
X26.67Y-59.944
X26.67Y-62.484
X26.67Y-65.024
X26.67Y-67.564
X26.67Y-70.104
X26.67Y-72.644
X26.67Y-75.184
X26.67Y-77.724
X26.67Y-80.264
X26.67Y-87.884
X26.67Y-90.424
X26.67Y-92.964
X29.21Y-42.164
X29.21Y-44.704
X29.21Y-47.244
X29.21Y-49.784
X29.21Y-52.324
X29.21Y-54.864
X29.21Y-57.404
X29.21Y-59.944
X29.21Y-62.484
X29.21Y-65.024
X29.21Y-67.564
X29.21Y-70.104
X29.21Y-72.644
X29.21Y-75.184
X29.21Y-77.724
X29.21Y-80.264
X29.21Y-82.804
X29.21Y-85.344
X29.21Y-87.884
X29.21Y-90.424
X29.21Y-92.964
X31.75Y-90.424
X31.75Y-92.964
X34.29Y-34.544
X34.29Y-37.084
X34.29Y-39.624
X34.29Y-42.164
X34.29Y-44.704
X34.29Y-47.244
X34.29Y-49.784
X34.29Y-52.324
X34.29Y-54.864
X34.29Y-57.404
X34.29Y-59.944
X34.29Y-62.484
X34.29Y-65.024
X34.29Y-67.564
X34.29Y-70.104
X34.29Y-72.644
X34.29Y-75.184
X34.29Y-77.724
X34.29Y-80.264
X34.29Y-82.804
X34.29Y-85.344
X34.29Y-87.884
X34.29Y-90.424
X34.29Y-92.964
X35.56Y-22.352
X35.56Y-27.432
X36.83Y-34.544
X36.83Y-37.084
X36.83Y-39.624
X36.83Y-42.164
X36.83Y-44.704
X36.83Y-47.244
X36.83Y-49.784
X36.83Y-52.324
X36.83Y-54.864
X36.83Y-57.404
X36.83Y-59.944
X36.83Y-62.484
X36.83Y-65.024
X36.83Y-67.564
X36.83Y-70.104
X36.83Y-72.644
X36.83Y-75.184
X36.83Y-77.724
X36.83Y-80.264
X36.83Y-82.804
X36.83Y-85.344
X36.83Y-87.884
X36.83Y-90.424
X36.83Y-92.964
X39.37Y-34.544
X39.37Y-37.084
X39.37Y-39.624
X39.37Y-42.164
X39.37Y-44.704
X39.37Y-47.244
X39.37Y-49.784
X39.37Y-52.324
X39.37Y-54.864
X39.37Y-57.404
X39.37Y-59.944
X39.37Y-62.484
X39.37Y-65.024
X39.37Y-67.564
X39.37Y-70.104
X39.37Y-72.644
X39.37Y-75.184
X39.37Y-77.724
X39.37Y-80.264
X39.37Y-82.804
X39.37Y-85.344
X39.37Y-87.884
X39.37Y-90.424
X39.37Y-92.964
X40.64Y-22.352
X40.64Y-27.432
X41.91Y-34.544
X41.91Y-37.084
X41.91Y-39.624
X41.91Y-42.164
X41.91Y-44.704
X41.91Y-47.244
X41.91Y-49.784
X41.91Y-52.324
X41.91Y-54.864
X41.91Y-57.404
X41.91Y-59.944
X41.91Y-62.484
X41.91Y-65.024
X41.91Y-67.564
X41.91Y-70.104
X41.91Y-72.644
X41.91Y-75.184
X41.91Y-77.724
X41.91Y-80.264
X41.91Y-82.804
X41.91Y-85.344
X41.91Y-87.884
X41.91Y-90.424
X41.91Y-92.964
X44.45Y-34.544
X44.45Y-37.084
X44.45Y-39.624
X44.45Y-42.164
X44.45Y-44.704
X44.45Y-47.244
X44.45Y-49.784
X44.45Y-52.324
X44.45Y-54.864
X44.45Y-57.404
X44.45Y-59.944
X44.45Y-62.484
X44.45Y-65.024
X44.45Y-67.564
X44.45Y-70.104
X44.45Y-72.644
X44.45Y-75.184
X44.45Y-77.724
X44.45Y-80.264
X44.45Y-82.804
X44.45Y-85.344
X44.45Y-87.884
X44.45Y-90.424
X44.45Y-92.964
X46.99Y-34.544
X46.99Y-37.084
X46.99Y-39.624
X46.99Y-42.164
X46.99Y-44.704
X46.99Y-47.244
X46.99Y-49.784
X46.99Y-52.324
X46.99Y-54.864
X46.99Y-57.404
X46.99Y-59.944
X46.99Y-62.484
X46.99Y-65.024
X46.99Y-67.564
X46.99Y-70.104
X46.99Y-72.644
X46.99Y-75.184
X46.99Y-77.724
X46.99Y-80.264
X46.99Y-82.804
X46.99Y-85.344
X46.99Y-87.884
X46.99Y-90.424
X46.99Y-92.964
X49.53Y-34.544
X49.53Y-37.084
X49.53Y-39.624
X49.53Y-42.164
X49.53Y-44.704
X49.53Y-47.244
X49.53Y-49.784
X49.53Y-52.324
X49.53Y-54.864
X49.53Y-57.404
X49.53Y-59.944
X49.53Y-62.484
X49.53Y-65.024
X49.53Y-67.564
X49.53Y-70.104
X49.53Y-72.644
X49.53Y-75.184
X49.53Y-77.724
X49.53Y-80.264
X49.53Y-82.804
X49.53Y-85.344
X49.53Y-87.884
X49.53Y-90.424
X49.53Y-92.964
X52.07Y-34.544
X52.07Y-37.084
X52.07Y-39.624
X52.07Y-42.164
X52.07Y-44.704
X52.07Y-47.244
X52.07Y-49.784
X52.07Y-52.324
X52.07Y-54.864
X52.07Y-57.404
X52.07Y-59.944
X52.07Y-62.484
X52.07Y-65.024
X52.07Y-67.564
X52.07Y-70.104
X52.07Y-72.644
X52.07Y-75.184
X52.07Y-77.724
X52.07Y-80.264
X52.07Y-82.804
X52.07Y-85.344
X52.07Y-87.884
X52.07Y-90.424
X52.07Y-92.964
X54.61Y-34.544
X54.61Y-37.084
X54.61Y-39.624
X54.61Y-42.164
X54.61Y-44.704
X54.61Y-47.244
X54.61Y-49.784
X54.61Y-52.324
X54.61Y-54.864
X54.61Y-57.404
X54.61Y-59.944
X54.61Y-62.484
X54.61Y-65.024
X54.61Y-67.564
X54.61Y-70.104
X54.61Y-72.644
X54.61Y-75.184
X54.61Y-77.724
X54.61Y-80.264
X54.61Y-82.804
X54.61Y-85.344
X54.61Y-87.884
X54.61Y-90.424
X54.61Y-92.964
X57.15Y-34.544
X57.15Y-37.084
X57.15Y-39.624
X57.15Y-42.164
X57.15Y-44.704
X57.15Y-47.244
X57.15Y-49.784
X57.15Y-52.324
X57.15Y-54.864
X57.15Y-57.404
X57.15Y-59.944
X57.15Y-62.484
X57.15Y-65.024
X57.15Y-67.564
X57.15Y-70.104
X57.15Y-72.644
X57.15Y-75.184
X57.15Y-77.724
X57.15Y-80.264
X57.15Y-82.804
X57.15Y-85.344
X57.15Y-87.884
X57.15Y-90.424
X57.15Y-92.964
X59.436Y-22.352
X59.436Y-27.432
X59.69Y-34.544
X59.69Y-37.084
X59.69Y-39.624
X59.69Y-42.164
X59.69Y-44.704
X59.69Y-47.244
X59.69Y-49.784
X59.69Y-52.324
X59.69Y-54.864
X59.69Y-57.404
X59.69Y-59.944
X59.69Y-62.484
X59.69Y-65.024
X59.69Y-67.564
X59.69Y-70.104
X59.69Y-72.644
X59.69Y-75.184
X59.69Y-77.724
X59.69Y-80.264
X59.69Y-82.804
X59.69Y-85.344
X59.69Y-87.884
X59.69Y-90.424
X59.69Y-92.964
X62.23Y-34.544
X62.23Y-37.084
X62.23Y-39.624
X62.23Y-42.164
X62.23Y-44.704
X62.23Y-47.244
X62.23Y-49.784
X62.23Y-52.324
X62.23Y-54.864
X62.23Y-57.404
X62.23Y-59.944
X62.23Y-62.484
X62.23Y-65.024
X62.23Y-67.564
X62.23Y-70.104
X62.23Y-72.644
X62.23Y-75.184
X62.23Y-77.724
X62.23Y-80.264
X62.23Y-82.804
X62.23Y-85.344
X62.23Y-87.884
X62.23Y-90.424
X62.23Y-92.964
X64.516Y-22.352
X64.516Y-27.432
X64.77Y-34.544
X64.77Y-37.084
X64.77Y-39.624
X64.77Y-42.164
X64.77Y-44.704
X64.77Y-47.244
X64.77Y-49.784
X64.77Y-52.324
X64.77Y-54.864
X64.77Y-57.404
X64.77Y-59.944
X64.77Y-62.484
X64.77Y-65.024
X64.77Y-67.564
X64.77Y-70.104
X64.77Y-72.644
X64.77Y-75.184
X64.77Y-77.724
X64.77Y-80.264
X64.77Y-82.804
X64.77Y-85.344
X64.77Y-87.884
X64.77Y-90.424
X64.77Y-92.964
X67.31Y-90.424
X67.31Y-92.964
X69.85Y-34.544
X69.85Y-37.084
X69.85Y-39.624
X69.85Y-42.164
X69.85Y-44.704
X69.85Y-47.244
X69.85Y-49.784
X69.85Y-52.324
X69.85Y-54.864
X69.85Y-57.404
X69.85Y-65.024
X69.85Y-67.564
X69.85Y-70.104
X69.85Y-72.644
X69.85Y-75.184
X69.85Y-77.724
X69.85Y-80.264
X69.85Y-82.804
X69.85Y-85.344
X69.85Y-87.884
X69.85Y-90.424
X69.85Y-92.964
X72.39Y-34.544
X72.39Y-37.084
X72.39Y-39.624
X72.39Y-42.164
X72.39Y-44.704
X72.39Y-47.244
X72.39Y-49.784
X72.39Y-52.324
X72.39Y-54.864
X72.39Y-57.404
X72.39Y-59.944
X72.39Y-62.484
X72.39Y-65.024
X72.39Y-67.564
X72.39Y-70.104
X72.39Y-72.644
X72.39Y-75.184
X72.39Y-77.724
X72.39Y-80.264
X72.39Y-82.804
X72.39Y-85.344
X72.39Y-87.884
X72.39Y-90.424
X72.39Y-92.964
T0
M30
