G04 #@! TF.GenerationSoftware,KiCad,Pcbnew,7.0.6*
G04 #@! TF.CreationDate,2023-07-22T12:38:10-04:00*
G04 #@! TF.ProjectId,Double Sided - ESP32-S3-DevKitC-1 Proto Shield,446f7562-6c65-4205-9369-646564202d20,rev?*
G04 #@! TF.SameCoordinates,Original*
G04 #@! TF.FileFunction,Legend,Bot*
G04 #@! TF.FilePolarity,Positive*
%FSLAX46Y46*%
G04 Gerber Fmt 4.6, Leading zero omitted, Abs format (unit mm)*
G04 Created by KiCad (PCBNEW 7.0.6) date 2023-07-22 12:38:10*
%MOMM*%
%LPD*%
G01*
G04 APERTURE LIST*
%ADD10C,0.152400*%
%ADD11C,0.150000*%
%ADD12C,0.508000*%
%ADD13C,1.574800*%
%ADD14C,1.066800*%
G04 APERTURE END LIST*
D10*
X33227686Y-35223834D02*
X33227686Y-34830739D01*
X33227686Y-34830739D02*
X32985782Y-35042406D01*
X32985782Y-35042406D02*
X32985782Y-34951691D01*
X32985782Y-34951691D02*
X32955544Y-34891215D01*
X32955544Y-34891215D02*
X32925305Y-34860977D01*
X32925305Y-34860977D02*
X32864829Y-34830739D01*
X32864829Y-34830739D02*
X32713639Y-34830739D01*
X32713639Y-34830739D02*
X32653163Y-34860977D01*
X32653163Y-34860977D02*
X32622925Y-34891215D01*
X32622925Y-34891215D02*
X32592686Y-34951691D01*
X32592686Y-34951691D02*
X32592686Y-35133120D01*
X32592686Y-35133120D02*
X32622925Y-35193596D01*
X32622925Y-35193596D02*
X32653163Y-35223834D01*
X33016020Y-34619072D02*
X32592686Y-34467882D01*
X32592686Y-34467882D02*
X33016020Y-34316691D01*
X33227686Y-34135262D02*
X33227686Y-33742167D01*
X33227686Y-33742167D02*
X32985782Y-33953834D01*
X32985782Y-33953834D02*
X32985782Y-33863119D01*
X32985782Y-33863119D02*
X32955544Y-33802643D01*
X32955544Y-33802643D02*
X32925305Y-33772405D01*
X32925305Y-33772405D02*
X32864829Y-33742167D01*
X32864829Y-33742167D02*
X32713639Y-33742167D01*
X32713639Y-33742167D02*
X32653163Y-33772405D01*
X32653163Y-33772405D02*
X32622925Y-33802643D01*
X32622925Y-33802643D02*
X32592686Y-33863119D01*
X32592686Y-33863119D02*
X32592686Y-34044548D01*
X32592686Y-34044548D02*
X32622925Y-34105024D01*
X32622925Y-34105024D02*
X32653163Y-34135262D01*
X66045379Y-47137689D02*
X66468713Y-47137689D01*
X65803475Y-46986498D02*
X66257046Y-46835308D01*
X66257046Y-46835308D02*
X66257046Y-47228403D01*
X65894189Y-47440070D02*
X65863951Y-47470308D01*
X65863951Y-47470308D02*
X65833713Y-47530784D01*
X65833713Y-47530784D02*
X65833713Y-47681975D01*
X65833713Y-47681975D02*
X65863951Y-47742451D01*
X65863951Y-47742451D02*
X65894189Y-47772689D01*
X65894189Y-47772689D02*
X65954665Y-47802927D01*
X65954665Y-47802927D02*
X66015141Y-47802927D01*
X66015141Y-47802927D02*
X66105855Y-47772689D01*
X66105855Y-47772689D02*
X66468713Y-47409832D01*
X66468713Y-47409832D02*
X66468713Y-47802927D01*
X52823834Y-96187313D02*
X52823834Y-95552313D01*
X52823834Y-95854694D02*
X52460977Y-95854694D01*
X52460977Y-96187313D02*
X52460977Y-95552313D01*
X51825977Y-96187313D02*
X52188834Y-96187313D01*
X52007406Y-96187313D02*
X52007406Y-95552313D01*
X52007406Y-95552313D02*
X52067882Y-95643027D01*
X52067882Y-95643027D02*
X52128358Y-95703503D01*
X52128358Y-95703503D02*
X52188834Y-95733741D01*
X51221215Y-96187313D02*
X51584072Y-96187313D01*
X51402644Y-96187313D02*
X51402644Y-95552313D01*
X51402644Y-95552313D02*
X51463120Y-95643027D01*
X51463120Y-95643027D02*
X51523596Y-95703503D01*
X51523596Y-95703503D02*
X51584072Y-95733741D01*
D11*
X50999111Y-44652181D02*
X50781111Y-44652181D01*
X50687683Y-44994752D02*
X50999111Y-44994752D01*
X50999111Y-44994752D02*
X50999111Y-44340752D01*
X50999111Y-44340752D02*
X50687683Y-44340752D01*
X50656541Y-62774752D02*
X50967969Y-62774752D01*
X50967969Y-62774752D02*
X50967969Y-62120752D01*
D10*
X65863951Y-84935308D02*
X65833713Y-84874832D01*
X65833713Y-84874832D02*
X65833713Y-84784118D01*
X65833713Y-84784118D02*
X65863951Y-84693403D01*
X65863951Y-84693403D02*
X65924427Y-84632927D01*
X65924427Y-84632927D02*
X65984903Y-84602689D01*
X65984903Y-84602689D02*
X66105855Y-84572451D01*
X66105855Y-84572451D02*
X66196570Y-84572451D01*
X66196570Y-84572451D02*
X66317522Y-84602689D01*
X66317522Y-84602689D02*
X66377998Y-84632927D01*
X66377998Y-84632927D02*
X66438475Y-84693403D01*
X66438475Y-84693403D02*
X66468713Y-84784118D01*
X66468713Y-84784118D02*
X66468713Y-84844594D01*
X66468713Y-84844594D02*
X66438475Y-84935308D01*
X66438475Y-84935308D02*
X66408236Y-84965546D01*
X66408236Y-84965546D02*
X66196570Y-84965546D01*
X66196570Y-84965546D02*
X66196570Y-84844594D01*
X66468713Y-85237689D02*
X65833713Y-85237689D01*
X65833713Y-85237689D02*
X66468713Y-85600546D01*
X66468713Y-85600546D02*
X65833713Y-85600546D01*
X66468713Y-85902927D02*
X65833713Y-85902927D01*
X65833713Y-85902927D02*
X65833713Y-86054117D01*
X65833713Y-86054117D02*
X65863951Y-86144832D01*
X65863951Y-86144832D02*
X65924427Y-86205308D01*
X65924427Y-86205308D02*
X65984903Y-86235546D01*
X65984903Y-86235546D02*
X66105855Y-86265784D01*
X66105855Y-86265784D02*
X66196570Y-86265784D01*
X66196570Y-86265784D02*
X66317522Y-86235546D01*
X66317522Y-86235546D02*
X66377998Y-86205308D01*
X66377998Y-86205308D02*
X66438475Y-86144832D01*
X66438475Y-86144832D02*
X66468713Y-86054117D01*
X66468713Y-86054117D02*
X66468713Y-85902927D01*
D11*
X50609826Y-75537038D02*
X50672112Y-75505895D01*
X50672112Y-75505895D02*
X50734398Y-75443610D01*
X50734398Y-75443610D02*
X50827826Y-75350181D01*
X50827826Y-75350181D02*
X50890112Y-75319038D01*
X50890112Y-75319038D02*
X50952398Y-75319038D01*
X50921255Y-75474752D02*
X50983541Y-75443610D01*
X50983541Y-75443610D02*
X51045826Y-75381324D01*
X51045826Y-75381324D02*
X51076969Y-75256752D01*
X51076969Y-75256752D02*
X51076969Y-75038752D01*
X51076969Y-75038752D02*
X51045826Y-74914181D01*
X51045826Y-74914181D02*
X50983541Y-74851895D01*
X50983541Y-74851895D02*
X50921255Y-74820752D01*
X50921255Y-74820752D02*
X50796683Y-74820752D01*
X50796683Y-74820752D02*
X50734398Y-74851895D01*
X50734398Y-74851895D02*
X50672112Y-74914181D01*
X50672112Y-74914181D02*
X50640969Y-75038752D01*
X50640969Y-75038752D02*
X50640969Y-75256752D01*
X50640969Y-75256752D02*
X50672112Y-75381324D01*
X50672112Y-75381324D02*
X50734398Y-75443610D01*
X50734398Y-75443610D02*
X50796683Y-75474752D01*
X50796683Y-75474752D02*
X50921255Y-75474752D01*
X50858969Y-55154752D02*
X50858969Y-54500752D01*
D10*
X66468713Y-39593284D02*
X66166332Y-39381617D01*
X66468713Y-39230427D02*
X65833713Y-39230427D01*
X65833713Y-39230427D02*
X65833713Y-39472332D01*
X65833713Y-39472332D02*
X65863951Y-39532808D01*
X65863951Y-39532808D02*
X65894189Y-39563046D01*
X65894189Y-39563046D02*
X65954665Y-39593284D01*
X65954665Y-39593284D02*
X66045379Y-39593284D01*
X66045379Y-39593284D02*
X66105855Y-39563046D01*
X66105855Y-39563046D02*
X66136094Y-39532808D01*
X66136094Y-39532808D02*
X66166332Y-39472332D01*
X66166332Y-39472332D02*
X66166332Y-39230427D01*
X65833713Y-39804951D02*
X66468713Y-40228284D01*
X65833713Y-40228284D02*
X66468713Y-39804951D01*
D11*
X51030254Y-42454752D02*
X51030254Y-41800752D01*
X51030254Y-41800752D02*
X50874540Y-41800752D01*
X50874540Y-41800752D02*
X50781111Y-41831895D01*
X50781111Y-41831895D02*
X50718826Y-41894181D01*
X50718826Y-41894181D02*
X50687683Y-41956467D01*
X50687683Y-41956467D02*
X50656540Y-42081038D01*
X50656540Y-42081038D02*
X50656540Y-42174467D01*
X50656540Y-42174467D02*
X50687683Y-42299038D01*
X50687683Y-42299038D02*
X50718826Y-42361324D01*
X50718826Y-42361324D02*
X50781111Y-42423610D01*
X50781111Y-42423610D02*
X50874540Y-42454752D01*
X50874540Y-42454752D02*
X51030254Y-42454752D01*
X50765540Y-57040752D02*
X50765540Y-57507895D01*
X50765540Y-57507895D02*
X50796683Y-57601324D01*
X50796683Y-57601324D02*
X50858969Y-57663610D01*
X50858969Y-57663610D02*
X50952397Y-57694752D01*
X50952397Y-57694752D02*
X51014683Y-57694752D01*
X51076969Y-65314752D02*
X51076969Y-64660752D01*
X51076969Y-64660752D02*
X50858969Y-65127895D01*
X50858969Y-65127895D02*
X50640969Y-64660752D01*
X50640969Y-64660752D02*
X50640969Y-65314752D01*
X51014683Y-34647895D02*
X50703255Y-34647895D01*
X51076969Y-34834752D02*
X50858969Y-34180752D01*
X50858969Y-34180752D02*
X50640969Y-34834752D01*
X51045826Y-84980752D02*
X51045826Y-85510181D01*
X51045826Y-85510181D02*
X51014683Y-85572467D01*
X51014683Y-85572467D02*
X50983541Y-85603610D01*
X50983541Y-85603610D02*
X50921255Y-85634752D01*
X50921255Y-85634752D02*
X50796683Y-85634752D01*
X50796683Y-85634752D02*
X50734398Y-85603610D01*
X50734398Y-85603610D02*
X50703255Y-85572467D01*
X50703255Y-85572467D02*
X50672112Y-85510181D01*
X50672112Y-85510181D02*
X50672112Y-84980752D01*
X50656540Y-78014752D02*
X50874540Y-77703324D01*
X51030254Y-78014752D02*
X51030254Y-77360752D01*
X51030254Y-77360752D02*
X50781111Y-77360752D01*
X50781111Y-77360752D02*
X50718826Y-77391895D01*
X50718826Y-77391895D02*
X50687683Y-77423038D01*
X50687683Y-77423038D02*
X50656540Y-77485324D01*
X50656540Y-77485324D02*
X50656540Y-77578752D01*
X50656540Y-77578752D02*
X50687683Y-77641038D01*
X50687683Y-77641038D02*
X50718826Y-77672181D01*
X50718826Y-77672181D02*
X50781111Y-77703324D01*
X50781111Y-77703324D02*
X51030254Y-77703324D01*
D10*
X65863951Y-87475308D02*
X65833713Y-87414832D01*
X65833713Y-87414832D02*
X65833713Y-87324118D01*
X65833713Y-87324118D02*
X65863951Y-87233403D01*
X65863951Y-87233403D02*
X65924427Y-87172927D01*
X65924427Y-87172927D02*
X65984903Y-87142689D01*
X65984903Y-87142689D02*
X66105855Y-87112451D01*
X66105855Y-87112451D02*
X66196570Y-87112451D01*
X66196570Y-87112451D02*
X66317522Y-87142689D01*
X66317522Y-87142689D02*
X66377998Y-87172927D01*
X66377998Y-87172927D02*
X66438475Y-87233403D01*
X66438475Y-87233403D02*
X66468713Y-87324118D01*
X66468713Y-87324118D02*
X66468713Y-87384594D01*
X66468713Y-87384594D02*
X66438475Y-87475308D01*
X66438475Y-87475308D02*
X66408236Y-87505546D01*
X66408236Y-87505546D02*
X66196570Y-87505546D01*
X66196570Y-87505546D02*
X66196570Y-87384594D01*
X66468713Y-87777689D02*
X65833713Y-87777689D01*
X65833713Y-87777689D02*
X66468713Y-88140546D01*
X66468713Y-88140546D02*
X65833713Y-88140546D01*
X66468713Y-88442927D02*
X65833713Y-88442927D01*
X65833713Y-88442927D02*
X65833713Y-88594117D01*
X65833713Y-88594117D02*
X65863951Y-88684832D01*
X65863951Y-88684832D02*
X65924427Y-88745308D01*
X65924427Y-88745308D02*
X65984903Y-88775546D01*
X65984903Y-88775546D02*
X66105855Y-88805784D01*
X66105855Y-88805784D02*
X66196570Y-88805784D01*
X66196570Y-88805784D02*
X66317522Y-88775546D01*
X66317522Y-88775546D02*
X66377998Y-88745308D01*
X66377998Y-88745308D02*
X66438475Y-88684832D01*
X66438475Y-88684832D02*
X66468713Y-88594117D01*
X66468713Y-88594117D02*
X66468713Y-88442927D01*
D11*
X48318969Y-55154752D02*
X48318969Y-54500752D01*
X48490254Y-42454752D02*
X48490254Y-41800752D01*
X48490254Y-41800752D02*
X48334540Y-41800752D01*
X48334540Y-41800752D02*
X48241111Y-41831895D01*
X48241111Y-41831895D02*
X48178826Y-41894181D01*
X48178826Y-41894181D02*
X48147683Y-41956467D01*
X48147683Y-41956467D02*
X48116540Y-42081038D01*
X48116540Y-42081038D02*
X48116540Y-42174467D01*
X48116540Y-42174467D02*
X48147683Y-42299038D01*
X48147683Y-42299038D02*
X48178826Y-42361324D01*
X48178826Y-42361324D02*
X48241111Y-42423610D01*
X48241111Y-42423610D02*
X48334540Y-42454752D01*
X48334540Y-42454752D02*
X48490254Y-42454752D01*
X50656540Y-39852467D02*
X50687683Y-39883610D01*
X50687683Y-39883610D02*
X50781111Y-39914752D01*
X50781111Y-39914752D02*
X50843397Y-39914752D01*
X50843397Y-39914752D02*
X50936826Y-39883610D01*
X50936826Y-39883610D02*
X50999111Y-39821324D01*
X50999111Y-39821324D02*
X51030254Y-39759038D01*
X51030254Y-39759038D02*
X51061397Y-39634467D01*
X51061397Y-39634467D02*
X51061397Y-39541038D01*
X51061397Y-39541038D02*
X51030254Y-39416467D01*
X51030254Y-39416467D02*
X50999111Y-39354181D01*
X50999111Y-39354181D02*
X50936826Y-39291895D01*
X50936826Y-39291895D02*
X50843397Y-39260752D01*
X50843397Y-39260752D02*
X50781111Y-39260752D01*
X50781111Y-39260752D02*
X50687683Y-39291895D01*
X50687683Y-39291895D02*
X50656540Y-39323038D01*
D10*
X65833713Y-56965070D02*
X65833713Y-57358165D01*
X65833713Y-57358165D02*
X66075617Y-57146498D01*
X66075617Y-57146498D02*
X66075617Y-57237213D01*
X66075617Y-57237213D02*
X66105855Y-57297689D01*
X66105855Y-57297689D02*
X66136094Y-57327927D01*
X66136094Y-57327927D02*
X66196570Y-57358165D01*
X66196570Y-57358165D02*
X66347760Y-57358165D01*
X66347760Y-57358165D02*
X66408236Y-57327927D01*
X66408236Y-57327927D02*
X66438475Y-57297689D01*
X66438475Y-57297689D02*
X66468713Y-57237213D01*
X66468713Y-57237213D02*
X66468713Y-57055784D01*
X66468713Y-57055784D02*
X66438475Y-56995308D01*
X66438475Y-56995308D02*
X66408236Y-56965070D01*
X66105855Y-57721022D02*
X66075617Y-57660546D01*
X66075617Y-57660546D02*
X66045379Y-57630308D01*
X66045379Y-57630308D02*
X65984903Y-57600070D01*
X65984903Y-57600070D02*
X65954665Y-57600070D01*
X65954665Y-57600070D02*
X65894189Y-57630308D01*
X65894189Y-57630308D02*
X65863951Y-57660546D01*
X65863951Y-57660546D02*
X65833713Y-57721022D01*
X65833713Y-57721022D02*
X65833713Y-57841975D01*
X65833713Y-57841975D02*
X65863951Y-57902451D01*
X65863951Y-57902451D02*
X65894189Y-57932689D01*
X65894189Y-57932689D02*
X65954665Y-57962927D01*
X65954665Y-57962927D02*
X65984903Y-57962927D01*
X65984903Y-57962927D02*
X66045379Y-57932689D01*
X66045379Y-57932689D02*
X66075617Y-57902451D01*
X66075617Y-57902451D02*
X66105855Y-57841975D01*
X66105855Y-57841975D02*
X66105855Y-57721022D01*
X66105855Y-57721022D02*
X66136094Y-57660546D01*
X66136094Y-57660546D02*
X66166332Y-57630308D01*
X66166332Y-57630308D02*
X66226808Y-57600070D01*
X66226808Y-57600070D02*
X66347760Y-57600070D01*
X66347760Y-57600070D02*
X66408236Y-57630308D01*
X66408236Y-57630308D02*
X66438475Y-57660546D01*
X66438475Y-57660546D02*
X66468713Y-57721022D01*
X66468713Y-57721022D02*
X66468713Y-57841975D01*
X66468713Y-57841975D02*
X66438475Y-57902451D01*
X66438475Y-57902451D02*
X66408236Y-57932689D01*
X66408236Y-57932689D02*
X66347760Y-57962927D01*
X66347760Y-57962927D02*
X66226808Y-57962927D01*
X66226808Y-57962927D02*
X66166332Y-57932689D01*
X66166332Y-57932689D02*
X66136094Y-57902451D01*
X66136094Y-57902451D02*
X66105855Y-57841975D01*
D11*
X48536969Y-65314752D02*
X48536969Y-64660752D01*
X48536969Y-64660752D02*
X48318969Y-65127895D01*
X48318969Y-65127895D02*
X48100969Y-64660752D01*
X48100969Y-64660752D02*
X48100969Y-65314752D01*
D10*
X62231217Y-31607736D02*
X62231217Y-31861736D01*
X62630360Y-31970593D02*
X62630360Y-31607736D01*
X62630360Y-31607736D02*
X61868360Y-31607736D01*
X61868360Y-31607736D02*
X61868360Y-31970593D01*
X62630360Y-32297165D02*
X61868360Y-32297165D01*
X62231217Y-32297165D02*
X62231217Y-32732594D01*
X62630360Y-32732594D02*
X61868360Y-32732594D01*
X61940932Y-33059165D02*
X61904646Y-33095451D01*
X61904646Y-33095451D02*
X61868360Y-33168023D01*
X61868360Y-33168023D02*
X61868360Y-33349451D01*
X61868360Y-33349451D02*
X61904646Y-33422023D01*
X61904646Y-33422023D02*
X61940932Y-33458308D01*
X61940932Y-33458308D02*
X62013503Y-33494594D01*
X62013503Y-33494594D02*
X62086075Y-33494594D01*
X62086075Y-33494594D02*
X62194932Y-33458308D01*
X62194932Y-33458308D02*
X62630360Y-33022880D01*
X62630360Y-33022880D02*
X62630360Y-33494594D01*
X57903834Y-96187313D02*
X57903834Y-95552313D01*
X57903834Y-95854694D02*
X57540977Y-95854694D01*
X57540977Y-96187313D02*
X57540977Y-95552313D01*
X56905977Y-96187313D02*
X57268834Y-96187313D01*
X57087406Y-96187313D02*
X57087406Y-95552313D01*
X57087406Y-95552313D02*
X57147882Y-95643027D01*
X57147882Y-95643027D02*
X57208358Y-95703503D01*
X57208358Y-95703503D02*
X57268834Y-95733741D01*
X56694310Y-95552313D02*
X56301215Y-95552313D01*
X56301215Y-95552313D02*
X56512882Y-95794217D01*
X56512882Y-95794217D02*
X56422167Y-95794217D01*
X56422167Y-95794217D02*
X56361691Y-95824455D01*
X56361691Y-95824455D02*
X56331453Y-95854694D01*
X56331453Y-95854694D02*
X56301215Y-95915170D01*
X56301215Y-95915170D02*
X56301215Y-96066360D01*
X56301215Y-96066360D02*
X56331453Y-96126836D01*
X56331453Y-96126836D02*
X56361691Y-96157075D01*
X56361691Y-96157075D02*
X56422167Y-96187313D01*
X56422167Y-96187313D02*
X56603596Y-96187313D01*
X56603596Y-96187313D02*
X56664072Y-96157075D01*
X56664072Y-96157075D02*
X56694310Y-96126836D01*
X33227686Y-85842406D02*
X33227686Y-86144787D01*
X33227686Y-86144787D02*
X32925305Y-86175025D01*
X32925305Y-86175025D02*
X32955544Y-86144787D01*
X32955544Y-86144787D02*
X32985782Y-86084311D01*
X32985782Y-86084311D02*
X32985782Y-85933120D01*
X32985782Y-85933120D02*
X32955544Y-85872644D01*
X32955544Y-85872644D02*
X32925305Y-85842406D01*
X32925305Y-85842406D02*
X32864829Y-85812168D01*
X32864829Y-85812168D02*
X32713639Y-85812168D01*
X32713639Y-85812168D02*
X32653163Y-85842406D01*
X32653163Y-85842406D02*
X32622925Y-85872644D01*
X32622925Y-85872644D02*
X32592686Y-85933120D01*
X32592686Y-85933120D02*
X32592686Y-86084311D01*
X32592686Y-86084311D02*
X32622925Y-86144787D01*
X32622925Y-86144787D02*
X32653163Y-86175025D01*
X33016020Y-85600501D02*
X32592686Y-85449311D01*
X32592686Y-85449311D02*
X33016020Y-85298120D01*
X32592686Y-85056215D02*
X33227686Y-85056215D01*
X32592686Y-84753834D02*
X33227686Y-84753834D01*
X33227686Y-84753834D02*
X32592686Y-84390977D01*
X32592686Y-84390977D02*
X33227686Y-84390977D01*
D11*
X48225540Y-57040752D02*
X48225540Y-57507895D01*
X48225540Y-57507895D02*
X48256683Y-57601324D01*
X48256683Y-57601324D02*
X48318969Y-57663610D01*
X48318969Y-57663610D02*
X48412397Y-57694752D01*
X48412397Y-57694752D02*
X48474683Y-57694752D01*
D10*
X33227686Y-47046929D02*
X33227686Y-47167882D01*
X33227686Y-47167882D02*
X33197448Y-47228358D01*
X33197448Y-47228358D02*
X33167210Y-47258596D01*
X33167210Y-47258596D02*
X33076496Y-47319072D01*
X33076496Y-47319072D02*
X32955544Y-47349310D01*
X32955544Y-47349310D02*
X32713639Y-47349310D01*
X32713639Y-47349310D02*
X32653163Y-47319072D01*
X32653163Y-47319072D02*
X32622925Y-47288834D01*
X32622925Y-47288834D02*
X32592686Y-47228358D01*
X32592686Y-47228358D02*
X32592686Y-47107405D01*
X32592686Y-47107405D02*
X32622925Y-47046929D01*
X32622925Y-47046929D02*
X32653163Y-47016691D01*
X32653163Y-47016691D02*
X32713639Y-46986453D01*
X32713639Y-46986453D02*
X32864829Y-46986453D01*
X32864829Y-46986453D02*
X32925305Y-47016691D01*
X32925305Y-47016691D02*
X32955544Y-47046929D01*
X32955544Y-47046929D02*
X32985782Y-47107405D01*
X32985782Y-47107405D02*
X32985782Y-47228358D01*
X32985782Y-47228358D02*
X32955544Y-47288834D01*
X32955544Y-47288834D02*
X32925305Y-47319072D01*
X32925305Y-47319072D02*
X32864829Y-47349310D01*
X65894189Y-77315308D02*
X65863951Y-77345546D01*
X65863951Y-77345546D02*
X65833713Y-77406022D01*
X65833713Y-77406022D02*
X65833713Y-77557213D01*
X65833713Y-77557213D02*
X65863951Y-77617689D01*
X65863951Y-77617689D02*
X65894189Y-77647927D01*
X65894189Y-77647927D02*
X65954665Y-77678165D01*
X65954665Y-77678165D02*
X66015141Y-77678165D01*
X66015141Y-77678165D02*
X66105855Y-77647927D01*
X66105855Y-77647927D02*
X66468713Y-77285070D01*
X66468713Y-77285070D02*
X66468713Y-77678165D01*
X66468713Y-78282927D02*
X66468713Y-77920070D01*
X66468713Y-78101498D02*
X65833713Y-78101498D01*
X65833713Y-78101498D02*
X65924427Y-78041022D01*
X65924427Y-78041022D02*
X65984903Y-77980546D01*
X65984903Y-77980546D02*
X66015141Y-77920070D01*
D11*
X48505826Y-82440752D02*
X48132112Y-82440752D01*
X48318969Y-83094752D02*
X48318969Y-82440752D01*
D10*
X46500614Y-32292412D02*
X46500614Y-32381917D01*
X46500614Y-32381917D02*
X46545366Y-32471421D01*
X46545366Y-32471421D02*
X46590119Y-32516174D01*
X46590119Y-32516174D02*
X46679623Y-32560926D01*
X46679623Y-32560926D02*
X46858633Y-32605679D01*
X46858633Y-32605679D02*
X47082395Y-32605679D01*
X47082395Y-32605679D02*
X47261404Y-32560926D01*
X47261404Y-32560926D02*
X47350909Y-32516174D01*
X47350909Y-32516174D02*
X47395662Y-32471421D01*
X47395662Y-32471421D02*
X47440414Y-32381917D01*
X47440414Y-32381917D02*
X47440414Y-32292412D01*
X47440414Y-32292412D02*
X47395662Y-32202907D01*
X47395662Y-32202907D02*
X47350909Y-32158155D01*
X47350909Y-32158155D02*
X47261404Y-32113402D01*
X47261404Y-32113402D02*
X47082395Y-32068650D01*
X47082395Y-32068650D02*
X46858633Y-32068650D01*
X46858633Y-32068650D02*
X46679623Y-32113402D01*
X46679623Y-32113402D02*
X46590119Y-32158155D01*
X46590119Y-32158155D02*
X46545366Y-32202907D01*
X46545366Y-32202907D02*
X46500614Y-32292412D01*
X46813881Y-33411222D02*
X47440414Y-33411222D01*
X46455862Y-33187460D02*
X47127147Y-32963698D01*
X47127147Y-32963698D02*
X47127147Y-33545479D01*
X36894232Y-16209261D02*
X36580965Y-17149061D01*
X36580965Y-17149061D02*
X36267698Y-16209261D01*
X35954432Y-16656785D02*
X35641165Y-16656785D01*
X35506908Y-17149061D02*
X35954432Y-17149061D01*
X35954432Y-17149061D02*
X35954432Y-16209261D01*
X35954432Y-16209261D02*
X35506908Y-16209261D01*
X34567108Y-17149061D02*
X34880375Y-16701537D01*
X35104137Y-17149061D02*
X35104137Y-16209261D01*
X35104137Y-16209261D02*
X34746118Y-16209261D01*
X34746118Y-16209261D02*
X34656613Y-16254013D01*
X34656613Y-16254013D02*
X34611860Y-16298766D01*
X34611860Y-16298766D02*
X34567108Y-16388270D01*
X34567108Y-16388270D02*
X34567108Y-16522528D01*
X34567108Y-16522528D02*
X34611860Y-16612032D01*
X34611860Y-16612032D02*
X34656613Y-16656785D01*
X34656613Y-16656785D02*
X34746118Y-16701537D01*
X34746118Y-16701537D02*
X35104137Y-16701537D01*
X34164337Y-17059556D02*
X34119584Y-17104309D01*
X34119584Y-17104309D02*
X34164337Y-17149061D01*
X34164337Y-17149061D02*
X34209089Y-17104309D01*
X34209089Y-17104309D02*
X34164337Y-17059556D01*
X34164337Y-17059556D02*
X34164337Y-17149061D01*
X34164337Y-16567280D02*
X34119584Y-16612032D01*
X34119584Y-16612032D02*
X34164337Y-16656785D01*
X34164337Y-16656785D02*
X34209089Y-16612032D01*
X34209089Y-16612032D02*
X34164337Y-16567280D01*
X34164337Y-16567280D02*
X34164337Y-16656785D01*
X32821765Y-16209261D02*
X32732260Y-16209261D01*
X32732260Y-16209261D02*
X32642756Y-16254013D01*
X32642756Y-16254013D02*
X32598003Y-16298766D01*
X32598003Y-16298766D02*
X32553251Y-16388270D01*
X32553251Y-16388270D02*
X32508498Y-16567280D01*
X32508498Y-16567280D02*
X32508498Y-16791042D01*
X32508498Y-16791042D02*
X32553251Y-16970051D01*
X32553251Y-16970051D02*
X32598003Y-17059556D01*
X32598003Y-17059556D02*
X32642756Y-17104309D01*
X32642756Y-17104309D02*
X32732260Y-17149061D01*
X32732260Y-17149061D02*
X32821765Y-17149061D01*
X32821765Y-17149061D02*
X32911270Y-17104309D01*
X32911270Y-17104309D02*
X32956022Y-17059556D01*
X32956022Y-17059556D02*
X33000775Y-16970051D01*
X33000775Y-16970051D02*
X33045527Y-16791042D01*
X33045527Y-16791042D02*
X33045527Y-16567280D01*
X33045527Y-16567280D02*
X33000775Y-16388270D01*
X33000775Y-16388270D02*
X32956022Y-16298766D01*
X32956022Y-16298766D02*
X32911270Y-16254013D01*
X32911270Y-16254013D02*
X32821765Y-16209261D01*
X31613450Y-17149061D02*
X32150479Y-17149061D01*
X31881965Y-17149061D02*
X31881965Y-16209261D01*
X31881965Y-16209261D02*
X31971469Y-16343518D01*
X31971469Y-16343518D02*
X32060974Y-16433023D01*
X32060974Y-16433023D02*
X32150479Y-16477775D01*
X31210679Y-17059556D02*
X31165926Y-17104309D01*
X31165926Y-17104309D02*
X31210679Y-17149061D01*
X31210679Y-17149061D02*
X31255431Y-17104309D01*
X31255431Y-17104309D02*
X31210679Y-17059556D01*
X31210679Y-17059556D02*
X31210679Y-17149061D01*
X30584145Y-16209261D02*
X30494640Y-16209261D01*
X30494640Y-16209261D02*
X30405136Y-16254013D01*
X30405136Y-16254013D02*
X30360383Y-16298766D01*
X30360383Y-16298766D02*
X30315631Y-16388270D01*
X30315631Y-16388270D02*
X30270878Y-16567280D01*
X30270878Y-16567280D02*
X30270878Y-16791042D01*
X30270878Y-16791042D02*
X30315631Y-16970051D01*
X30315631Y-16970051D02*
X30360383Y-17059556D01*
X30360383Y-17059556D02*
X30405136Y-17104309D01*
X30405136Y-17104309D02*
X30494640Y-17149061D01*
X30494640Y-17149061D02*
X30584145Y-17149061D01*
X30584145Y-17149061D02*
X30673650Y-17104309D01*
X30673650Y-17104309D02*
X30718402Y-17059556D01*
X30718402Y-17059556D02*
X30763155Y-16970051D01*
X30763155Y-16970051D02*
X30807907Y-16791042D01*
X30807907Y-16791042D02*
X30807907Y-16567280D01*
X30807907Y-16567280D02*
X30763155Y-16388270D01*
X30763155Y-16388270D02*
X30718402Y-16298766D01*
X30718402Y-16298766D02*
X30673650Y-16254013D01*
X30673650Y-16254013D02*
X30584145Y-16209261D01*
X29689097Y-16209261D02*
X29599592Y-16209261D01*
X29599592Y-16209261D02*
X29510088Y-16254013D01*
X29510088Y-16254013D02*
X29465335Y-16298766D01*
X29465335Y-16298766D02*
X29420583Y-16388270D01*
X29420583Y-16388270D02*
X29375830Y-16567280D01*
X29375830Y-16567280D02*
X29375830Y-16791042D01*
X29375830Y-16791042D02*
X29420583Y-16970051D01*
X29420583Y-16970051D02*
X29465335Y-17059556D01*
X29465335Y-17059556D02*
X29510088Y-17104309D01*
X29510088Y-17104309D02*
X29599592Y-17149061D01*
X29599592Y-17149061D02*
X29689097Y-17149061D01*
X29689097Y-17149061D02*
X29778602Y-17104309D01*
X29778602Y-17104309D02*
X29823354Y-17059556D01*
X29823354Y-17059556D02*
X29868107Y-16970051D01*
X29868107Y-16970051D02*
X29912859Y-16791042D01*
X29912859Y-16791042D02*
X29912859Y-16567280D01*
X29912859Y-16567280D02*
X29868107Y-16388270D01*
X29868107Y-16388270D02*
X29823354Y-16298766D01*
X29823354Y-16298766D02*
X29778602Y-16254013D01*
X29778602Y-16254013D02*
X29689097Y-16209261D01*
X28973059Y-17059556D02*
X28928306Y-17104309D01*
X28928306Y-17104309D02*
X28973059Y-17149061D01*
X28973059Y-17149061D02*
X29017811Y-17104309D01*
X29017811Y-17104309D02*
X28973059Y-17059556D01*
X28973059Y-17059556D02*
X28973059Y-17149061D01*
X28346525Y-16209261D02*
X28257020Y-16209261D01*
X28257020Y-16209261D02*
X28167516Y-16254013D01*
X28167516Y-16254013D02*
X28122763Y-16298766D01*
X28122763Y-16298766D02*
X28078011Y-16388270D01*
X28078011Y-16388270D02*
X28033258Y-16567280D01*
X28033258Y-16567280D02*
X28033258Y-16791042D01*
X28033258Y-16791042D02*
X28078011Y-16970051D01*
X28078011Y-16970051D02*
X28122763Y-17059556D01*
X28122763Y-17059556D02*
X28167516Y-17104309D01*
X28167516Y-17104309D02*
X28257020Y-17149061D01*
X28257020Y-17149061D02*
X28346525Y-17149061D01*
X28346525Y-17149061D02*
X28436030Y-17104309D01*
X28436030Y-17104309D02*
X28480782Y-17059556D01*
X28480782Y-17059556D02*
X28525535Y-16970051D01*
X28525535Y-16970051D02*
X28570287Y-16791042D01*
X28570287Y-16791042D02*
X28570287Y-16567280D01*
X28570287Y-16567280D02*
X28525535Y-16388270D01*
X28525535Y-16388270D02*
X28480782Y-16298766D01*
X28480782Y-16298766D02*
X28436030Y-16254013D01*
X28436030Y-16254013D02*
X28346525Y-16209261D01*
X27451477Y-16209261D02*
X27361972Y-16209261D01*
X27361972Y-16209261D02*
X27272468Y-16254013D01*
X27272468Y-16254013D02*
X27227715Y-16298766D01*
X27227715Y-16298766D02*
X27182963Y-16388270D01*
X27182963Y-16388270D02*
X27138210Y-16567280D01*
X27138210Y-16567280D02*
X27138210Y-16791042D01*
X27138210Y-16791042D02*
X27182963Y-16970051D01*
X27182963Y-16970051D02*
X27227715Y-17059556D01*
X27227715Y-17059556D02*
X27272468Y-17104309D01*
X27272468Y-17104309D02*
X27361972Y-17149061D01*
X27361972Y-17149061D02*
X27451477Y-17149061D01*
X27451477Y-17149061D02*
X27540982Y-17104309D01*
X27540982Y-17104309D02*
X27585734Y-17059556D01*
X27585734Y-17059556D02*
X27630487Y-16970051D01*
X27630487Y-16970051D02*
X27675239Y-16791042D01*
X27675239Y-16791042D02*
X27675239Y-16567280D01*
X27675239Y-16567280D02*
X27630487Y-16388270D01*
X27630487Y-16388270D02*
X27585734Y-16298766D01*
X27585734Y-16298766D02*
X27540982Y-16254013D01*
X27540982Y-16254013D02*
X27451477Y-16209261D01*
X33227686Y-44476691D02*
X33227686Y-44779072D01*
X33227686Y-44779072D02*
X32925305Y-44809310D01*
X32925305Y-44809310D02*
X32955544Y-44779072D01*
X32955544Y-44779072D02*
X32985782Y-44718596D01*
X32985782Y-44718596D02*
X32985782Y-44567405D01*
X32985782Y-44567405D02*
X32955544Y-44506929D01*
X32955544Y-44506929D02*
X32925305Y-44476691D01*
X32925305Y-44476691D02*
X32864829Y-44446453D01*
X32864829Y-44446453D02*
X32713639Y-44446453D01*
X32713639Y-44446453D02*
X32653163Y-44476691D01*
X32653163Y-44476691D02*
X32622925Y-44506929D01*
X32622925Y-44506929D02*
X32592686Y-44567405D01*
X32592686Y-44567405D02*
X32592686Y-44718596D01*
X32592686Y-44718596D02*
X32622925Y-44779072D01*
X32622925Y-44779072D02*
X32653163Y-44809310D01*
X65523834Y-96187313D02*
X65523834Y-95552313D01*
X65523834Y-95854694D02*
X65160977Y-95854694D01*
X65160977Y-96187313D02*
X65160977Y-95552313D01*
X64525977Y-96187313D02*
X64888834Y-96187313D01*
X64707406Y-96187313D02*
X64707406Y-95552313D01*
X64707406Y-95552313D02*
X64767882Y-95643027D01*
X64767882Y-95643027D02*
X64828358Y-95703503D01*
X64828358Y-95703503D02*
X64888834Y-95733741D01*
X63981691Y-95552313D02*
X64102644Y-95552313D01*
X64102644Y-95552313D02*
X64163120Y-95582551D01*
X64163120Y-95582551D02*
X64193358Y-95612789D01*
X64193358Y-95612789D02*
X64253834Y-95703503D01*
X64253834Y-95703503D02*
X64284072Y-95824455D01*
X64284072Y-95824455D02*
X64284072Y-96066360D01*
X64284072Y-96066360D02*
X64253834Y-96126836D01*
X64253834Y-96126836D02*
X64223596Y-96157075D01*
X64223596Y-96157075D02*
X64163120Y-96187313D01*
X64163120Y-96187313D02*
X64042167Y-96187313D01*
X64042167Y-96187313D02*
X63981691Y-96157075D01*
X63981691Y-96157075D02*
X63951453Y-96126836D01*
X63951453Y-96126836D02*
X63921215Y-96066360D01*
X63921215Y-96066360D02*
X63921215Y-95915170D01*
X63921215Y-95915170D02*
X63951453Y-95854694D01*
X63951453Y-95854694D02*
X63981691Y-95824455D01*
X63981691Y-95824455D02*
X64042167Y-95794217D01*
X64042167Y-95794217D02*
X64163120Y-95794217D01*
X64163120Y-95794217D02*
X64223596Y-95824455D01*
X64223596Y-95824455D02*
X64253834Y-95854694D01*
X64253834Y-95854694D02*
X64284072Y-95915170D01*
X65833713Y-67608879D02*
X65833713Y-67669356D01*
X65833713Y-67669356D02*
X65863951Y-67729832D01*
X65863951Y-67729832D02*
X65894189Y-67760070D01*
X65894189Y-67760070D02*
X65954665Y-67790308D01*
X65954665Y-67790308D02*
X66075617Y-67820546D01*
X66075617Y-67820546D02*
X66226808Y-67820546D01*
X66226808Y-67820546D02*
X66347760Y-67790308D01*
X66347760Y-67790308D02*
X66408236Y-67760070D01*
X66408236Y-67760070D02*
X66438475Y-67729832D01*
X66438475Y-67729832D02*
X66468713Y-67669356D01*
X66468713Y-67669356D02*
X66468713Y-67608879D01*
X66468713Y-67608879D02*
X66438475Y-67548403D01*
X66438475Y-67548403D02*
X66408236Y-67518165D01*
X66408236Y-67518165D02*
X66347760Y-67487927D01*
X66347760Y-67487927D02*
X66226808Y-67457689D01*
X66226808Y-67457689D02*
X66075617Y-67457689D01*
X66075617Y-67457689D02*
X65954665Y-67487927D01*
X65954665Y-67487927D02*
X65894189Y-67518165D01*
X65894189Y-67518165D02*
X65863951Y-67548403D01*
X65863951Y-67548403D02*
X65833713Y-67608879D01*
X66045379Y-49677689D02*
X66468713Y-49677689D01*
X65803475Y-49526498D02*
X66257046Y-49375308D01*
X66257046Y-49375308D02*
X66257046Y-49768403D01*
X66468713Y-50342927D02*
X66468713Y-49980070D01*
X66468713Y-50161498D02*
X65833713Y-50161498D01*
X65833713Y-50161498D02*
X65924427Y-50101022D01*
X65924427Y-50101022D02*
X65984903Y-50040546D01*
X65984903Y-50040546D02*
X66015141Y-49980070D01*
X65833713Y-64585070D02*
X65833713Y-64978165D01*
X65833713Y-64978165D02*
X66075617Y-64766498D01*
X66075617Y-64766498D02*
X66075617Y-64857213D01*
X66075617Y-64857213D02*
X66105855Y-64917689D01*
X66105855Y-64917689D02*
X66136094Y-64947927D01*
X66136094Y-64947927D02*
X66196570Y-64978165D01*
X66196570Y-64978165D02*
X66347760Y-64978165D01*
X66347760Y-64978165D02*
X66408236Y-64947927D01*
X66408236Y-64947927D02*
X66438475Y-64917689D01*
X66438475Y-64917689D02*
X66468713Y-64857213D01*
X66468713Y-64857213D02*
X66468713Y-64675784D01*
X66468713Y-64675784D02*
X66438475Y-64615308D01*
X66438475Y-64615308D02*
X66408236Y-64585070D01*
X65833713Y-65552689D02*
X65833713Y-65250308D01*
X65833713Y-65250308D02*
X66136094Y-65220070D01*
X66136094Y-65220070D02*
X66105855Y-65250308D01*
X66105855Y-65250308D02*
X66075617Y-65310784D01*
X66075617Y-65310784D02*
X66075617Y-65461975D01*
X66075617Y-65461975D02*
X66105855Y-65522451D01*
X66105855Y-65522451D02*
X66136094Y-65552689D01*
X66136094Y-65552689D02*
X66196570Y-65582927D01*
X66196570Y-65582927D02*
X66347760Y-65582927D01*
X66347760Y-65582927D02*
X66408236Y-65552689D01*
X66408236Y-65552689D02*
X66438475Y-65522451D01*
X66438475Y-65522451D02*
X66468713Y-65461975D01*
X66468713Y-65461975D02*
X66468713Y-65310784D01*
X66468713Y-65310784D02*
X66438475Y-65250308D01*
X66438475Y-65250308D02*
X66408236Y-65220070D01*
X29963834Y-96187313D02*
X29963834Y-95552313D01*
X29963834Y-95854694D02*
X29600977Y-95854694D01*
X29600977Y-96187313D02*
X29600977Y-95552313D01*
X29177644Y-95552313D02*
X29117167Y-95552313D01*
X29117167Y-95552313D02*
X29056691Y-95582551D01*
X29056691Y-95582551D02*
X29026453Y-95612789D01*
X29026453Y-95612789D02*
X28996215Y-95673265D01*
X28996215Y-95673265D02*
X28965977Y-95794217D01*
X28965977Y-95794217D02*
X28965977Y-95945408D01*
X28965977Y-95945408D02*
X28996215Y-96066360D01*
X28996215Y-96066360D02*
X29026453Y-96126836D01*
X29026453Y-96126836D02*
X29056691Y-96157075D01*
X29056691Y-96157075D02*
X29117167Y-96187313D01*
X29117167Y-96187313D02*
X29177644Y-96187313D01*
X29177644Y-96187313D02*
X29238120Y-96157075D01*
X29238120Y-96157075D02*
X29268358Y-96126836D01*
X29268358Y-96126836D02*
X29298596Y-96066360D01*
X29298596Y-96066360D02*
X29328834Y-95945408D01*
X29328834Y-95945408D02*
X29328834Y-95794217D01*
X29328834Y-95794217D02*
X29298596Y-95673265D01*
X29298596Y-95673265D02*
X29268358Y-95612789D01*
X29268358Y-95612789D02*
X29238120Y-95582551D01*
X29238120Y-95582551D02*
X29177644Y-95552313D01*
X28724072Y-95612789D02*
X28693834Y-95582551D01*
X28693834Y-95582551D02*
X28633358Y-95552313D01*
X28633358Y-95552313D02*
X28482167Y-95552313D01*
X28482167Y-95552313D02*
X28421691Y-95582551D01*
X28421691Y-95582551D02*
X28391453Y-95612789D01*
X28391453Y-95612789D02*
X28361215Y-95673265D01*
X28361215Y-95673265D02*
X28361215Y-95733741D01*
X28361215Y-95733741D02*
X28391453Y-95824455D01*
X28391453Y-95824455D02*
X28754310Y-96187313D01*
X28754310Y-96187313D02*
X28361215Y-96187313D01*
X66045379Y-52217689D02*
X66468713Y-52217689D01*
X65803475Y-52066498D02*
X66257046Y-51915308D01*
X66257046Y-51915308D02*
X66257046Y-52308403D01*
X65833713Y-52671260D02*
X65833713Y-52731737D01*
X65833713Y-52731737D02*
X65863951Y-52792213D01*
X65863951Y-52792213D02*
X65894189Y-52822451D01*
X65894189Y-52822451D02*
X65954665Y-52852689D01*
X65954665Y-52852689D02*
X66075617Y-52882927D01*
X66075617Y-52882927D02*
X66226808Y-52882927D01*
X66226808Y-52882927D02*
X66347760Y-52852689D01*
X66347760Y-52852689D02*
X66408236Y-52822451D01*
X66408236Y-52822451D02*
X66438475Y-52792213D01*
X66438475Y-52792213D02*
X66468713Y-52731737D01*
X66468713Y-52731737D02*
X66468713Y-52671260D01*
X66468713Y-52671260D02*
X66438475Y-52610784D01*
X66438475Y-52610784D02*
X66408236Y-52580546D01*
X66408236Y-52580546D02*
X66347760Y-52550308D01*
X66347760Y-52550308D02*
X66226808Y-52520070D01*
X66226808Y-52520070D02*
X66075617Y-52520070D01*
X66075617Y-52520070D02*
X65954665Y-52550308D01*
X65954665Y-52550308D02*
X65894189Y-52580546D01*
X65894189Y-52580546D02*
X65863951Y-52610784D01*
X65863951Y-52610784D02*
X65833713Y-52671260D01*
X40123834Y-96187313D02*
X40123834Y-95552313D01*
X40123834Y-95854694D02*
X39760977Y-95854694D01*
X39760977Y-96187313D02*
X39760977Y-95552313D01*
X39337644Y-95552313D02*
X39277167Y-95552313D01*
X39277167Y-95552313D02*
X39216691Y-95582551D01*
X39216691Y-95582551D02*
X39186453Y-95612789D01*
X39186453Y-95612789D02*
X39156215Y-95673265D01*
X39156215Y-95673265D02*
X39125977Y-95794217D01*
X39125977Y-95794217D02*
X39125977Y-95945408D01*
X39125977Y-95945408D02*
X39156215Y-96066360D01*
X39156215Y-96066360D02*
X39186453Y-96126836D01*
X39186453Y-96126836D02*
X39216691Y-96157075D01*
X39216691Y-96157075D02*
X39277167Y-96187313D01*
X39277167Y-96187313D02*
X39337644Y-96187313D01*
X39337644Y-96187313D02*
X39398120Y-96157075D01*
X39398120Y-96157075D02*
X39428358Y-96126836D01*
X39428358Y-96126836D02*
X39458596Y-96066360D01*
X39458596Y-96066360D02*
X39488834Y-95945408D01*
X39488834Y-95945408D02*
X39488834Y-95794217D01*
X39488834Y-95794217D02*
X39458596Y-95673265D01*
X39458596Y-95673265D02*
X39428358Y-95612789D01*
X39428358Y-95612789D02*
X39398120Y-95582551D01*
X39398120Y-95582551D02*
X39337644Y-95552313D01*
X38581691Y-95552313D02*
X38702644Y-95552313D01*
X38702644Y-95552313D02*
X38763120Y-95582551D01*
X38763120Y-95582551D02*
X38793358Y-95612789D01*
X38793358Y-95612789D02*
X38853834Y-95703503D01*
X38853834Y-95703503D02*
X38884072Y-95824455D01*
X38884072Y-95824455D02*
X38884072Y-96066360D01*
X38884072Y-96066360D02*
X38853834Y-96126836D01*
X38853834Y-96126836D02*
X38823596Y-96157075D01*
X38823596Y-96157075D02*
X38763120Y-96187313D01*
X38763120Y-96187313D02*
X38642167Y-96187313D01*
X38642167Y-96187313D02*
X38581691Y-96157075D01*
X38581691Y-96157075D02*
X38551453Y-96126836D01*
X38551453Y-96126836D02*
X38521215Y-96066360D01*
X38521215Y-96066360D02*
X38521215Y-95915170D01*
X38521215Y-95915170D02*
X38551453Y-95854694D01*
X38551453Y-95854694D02*
X38581691Y-95824455D01*
X38581691Y-95824455D02*
X38642167Y-95794217D01*
X38642167Y-95794217D02*
X38763120Y-95794217D01*
X38763120Y-95794217D02*
X38823596Y-95824455D01*
X38823596Y-95824455D02*
X38853834Y-95854694D01*
X38853834Y-95854694D02*
X38884072Y-95915170D01*
D11*
X48116540Y-39852467D02*
X48147683Y-39883610D01*
X48147683Y-39883610D02*
X48241111Y-39914752D01*
X48241111Y-39914752D02*
X48303397Y-39914752D01*
X48303397Y-39914752D02*
X48396826Y-39883610D01*
X48396826Y-39883610D02*
X48459111Y-39821324D01*
X48459111Y-39821324D02*
X48490254Y-39759038D01*
X48490254Y-39759038D02*
X48521397Y-39634467D01*
X48521397Y-39634467D02*
X48521397Y-39541038D01*
X48521397Y-39541038D02*
X48490254Y-39416467D01*
X48490254Y-39416467D02*
X48459111Y-39354181D01*
X48459111Y-39354181D02*
X48396826Y-39291895D01*
X48396826Y-39291895D02*
X48303397Y-39260752D01*
X48303397Y-39260752D02*
X48241111Y-39260752D01*
X48241111Y-39260752D02*
X48147683Y-39291895D01*
X48147683Y-39291895D02*
X48116540Y-39323038D01*
X48505826Y-84980752D02*
X48505826Y-85510181D01*
X48505826Y-85510181D02*
X48474683Y-85572467D01*
X48474683Y-85572467D02*
X48443541Y-85603610D01*
X48443541Y-85603610D02*
X48381255Y-85634752D01*
X48381255Y-85634752D02*
X48256683Y-85634752D01*
X48256683Y-85634752D02*
X48194398Y-85603610D01*
X48194398Y-85603610D02*
X48163255Y-85572467D01*
X48163255Y-85572467D02*
X48132112Y-85510181D01*
X48132112Y-85510181D02*
X48132112Y-84980752D01*
X48459111Y-44652181D02*
X48241111Y-44652181D01*
X48147683Y-44994752D02*
X48459111Y-44994752D01*
X48459111Y-44994752D02*
X48459111Y-44340752D01*
X48459111Y-44340752D02*
X48147683Y-44340752D01*
D10*
X60443834Y-96187313D02*
X60443834Y-95552313D01*
X60443834Y-95854694D02*
X60080977Y-95854694D01*
X60080977Y-96187313D02*
X60080977Y-95552313D01*
X59445977Y-96187313D02*
X59808834Y-96187313D01*
X59627406Y-96187313D02*
X59627406Y-95552313D01*
X59627406Y-95552313D02*
X59687882Y-95643027D01*
X59687882Y-95643027D02*
X59748358Y-95703503D01*
X59748358Y-95703503D02*
X59808834Y-95733741D01*
X58901691Y-95763979D02*
X58901691Y-96187313D01*
X59052882Y-95522075D02*
X59204072Y-95975646D01*
X59204072Y-95975646D02*
X58810977Y-95975646D01*
D11*
X48536969Y-87520752D02*
X48318969Y-88174752D01*
X48318969Y-88174752D02*
X48100969Y-87520752D01*
D10*
X37583834Y-96187313D02*
X37583834Y-95552313D01*
X37583834Y-95854694D02*
X37220977Y-95854694D01*
X37220977Y-96187313D02*
X37220977Y-95552313D01*
X36797644Y-95552313D02*
X36737167Y-95552313D01*
X36737167Y-95552313D02*
X36676691Y-95582551D01*
X36676691Y-95582551D02*
X36646453Y-95612789D01*
X36646453Y-95612789D02*
X36616215Y-95673265D01*
X36616215Y-95673265D02*
X36585977Y-95794217D01*
X36585977Y-95794217D02*
X36585977Y-95945408D01*
X36585977Y-95945408D02*
X36616215Y-96066360D01*
X36616215Y-96066360D02*
X36646453Y-96126836D01*
X36646453Y-96126836D02*
X36676691Y-96157075D01*
X36676691Y-96157075D02*
X36737167Y-96187313D01*
X36737167Y-96187313D02*
X36797644Y-96187313D01*
X36797644Y-96187313D02*
X36858120Y-96157075D01*
X36858120Y-96157075D02*
X36888358Y-96126836D01*
X36888358Y-96126836D02*
X36918596Y-96066360D01*
X36918596Y-96066360D02*
X36948834Y-95945408D01*
X36948834Y-95945408D02*
X36948834Y-95794217D01*
X36948834Y-95794217D02*
X36918596Y-95673265D01*
X36918596Y-95673265D02*
X36888358Y-95612789D01*
X36888358Y-95612789D02*
X36858120Y-95582551D01*
X36858120Y-95582551D02*
X36797644Y-95552313D01*
X36011453Y-95552313D02*
X36313834Y-95552313D01*
X36313834Y-95552313D02*
X36344072Y-95854694D01*
X36344072Y-95854694D02*
X36313834Y-95824455D01*
X36313834Y-95824455D02*
X36253358Y-95794217D01*
X36253358Y-95794217D02*
X36102167Y-95794217D01*
X36102167Y-95794217D02*
X36041691Y-95824455D01*
X36041691Y-95824455D02*
X36011453Y-95854694D01*
X36011453Y-95854694D02*
X35981215Y-95915170D01*
X35981215Y-95915170D02*
X35981215Y-96066360D01*
X35981215Y-96066360D02*
X36011453Y-96126836D01*
X36011453Y-96126836D02*
X36041691Y-96157075D01*
X36041691Y-96157075D02*
X36102167Y-96187313D01*
X36102167Y-96187313D02*
X36253358Y-96187313D01*
X36253358Y-96187313D02*
X36313834Y-96157075D01*
X36313834Y-96157075D02*
X36344072Y-96126836D01*
X32592686Y-54908834D02*
X32592686Y-55271691D01*
X32592686Y-55090263D02*
X33227686Y-55090263D01*
X33227686Y-55090263D02*
X33136972Y-55150739D01*
X33136972Y-55150739D02*
X33076496Y-55211215D01*
X33076496Y-55211215D02*
X33046258Y-55271691D01*
X33227686Y-54364548D02*
X33227686Y-54485501D01*
X33227686Y-54485501D02*
X33197448Y-54545977D01*
X33197448Y-54545977D02*
X33167210Y-54576215D01*
X33167210Y-54576215D02*
X33076496Y-54636691D01*
X33076496Y-54636691D02*
X32955544Y-54666929D01*
X32955544Y-54666929D02*
X32713639Y-54666929D01*
X32713639Y-54666929D02*
X32653163Y-54636691D01*
X32653163Y-54636691D02*
X32622925Y-54606453D01*
X32622925Y-54606453D02*
X32592686Y-54545977D01*
X32592686Y-54545977D02*
X32592686Y-54425024D01*
X32592686Y-54425024D02*
X32622925Y-54364548D01*
X32622925Y-54364548D02*
X32653163Y-54334310D01*
X32653163Y-54334310D02*
X32713639Y-54304072D01*
X32713639Y-54304072D02*
X32864829Y-54304072D01*
X32864829Y-54304072D02*
X32925305Y-54334310D01*
X32925305Y-54334310D02*
X32955544Y-54364548D01*
X32955544Y-54364548D02*
X32985782Y-54425024D01*
X32985782Y-54425024D02*
X32985782Y-54545977D01*
X32985782Y-54545977D02*
X32955544Y-54606453D01*
X32955544Y-54606453D02*
X32925305Y-54636691D01*
X32925305Y-54636691D02*
X32864829Y-54666929D01*
X33227686Y-37763834D02*
X33227686Y-37370739D01*
X33227686Y-37370739D02*
X32985782Y-37582406D01*
X32985782Y-37582406D02*
X32985782Y-37491691D01*
X32985782Y-37491691D02*
X32955544Y-37431215D01*
X32955544Y-37431215D02*
X32925305Y-37400977D01*
X32925305Y-37400977D02*
X32864829Y-37370739D01*
X32864829Y-37370739D02*
X32713639Y-37370739D01*
X32713639Y-37370739D02*
X32653163Y-37400977D01*
X32653163Y-37400977D02*
X32622925Y-37431215D01*
X32622925Y-37431215D02*
X32592686Y-37491691D01*
X32592686Y-37491691D02*
X32592686Y-37673120D01*
X32592686Y-37673120D02*
X32622925Y-37733596D01*
X32622925Y-37733596D02*
X32653163Y-37763834D01*
X33016020Y-37159072D02*
X32592686Y-37007882D01*
X32592686Y-37007882D02*
X33016020Y-36856691D01*
X33227686Y-36675262D02*
X33227686Y-36282167D01*
X33227686Y-36282167D02*
X32985782Y-36493834D01*
X32985782Y-36493834D02*
X32985782Y-36403119D01*
X32985782Y-36403119D02*
X32955544Y-36342643D01*
X32955544Y-36342643D02*
X32925305Y-36312405D01*
X32925305Y-36312405D02*
X32864829Y-36282167D01*
X32864829Y-36282167D02*
X32713639Y-36282167D01*
X32713639Y-36282167D02*
X32653163Y-36312405D01*
X32653163Y-36312405D02*
X32622925Y-36342643D01*
X32622925Y-36342643D02*
X32592686Y-36403119D01*
X32592686Y-36403119D02*
X32592686Y-36584548D01*
X32592686Y-36584548D02*
X32622925Y-36645024D01*
X32622925Y-36645024D02*
X32653163Y-36675262D01*
D11*
X51045826Y-67854752D02*
X51045826Y-67200752D01*
X51045826Y-67200752D02*
X50672112Y-67854752D01*
X50672112Y-67854752D02*
X50672112Y-67200752D01*
X51045826Y-80523610D02*
X50952398Y-80554752D01*
X50952398Y-80554752D02*
X50796683Y-80554752D01*
X50796683Y-80554752D02*
X50734398Y-80523610D01*
X50734398Y-80523610D02*
X50703255Y-80492467D01*
X50703255Y-80492467D02*
X50672112Y-80430181D01*
X50672112Y-80430181D02*
X50672112Y-80367895D01*
X50672112Y-80367895D02*
X50703255Y-80305610D01*
X50703255Y-80305610D02*
X50734398Y-80274467D01*
X50734398Y-80274467D02*
X50796683Y-80243324D01*
X50796683Y-80243324D02*
X50921255Y-80212181D01*
X50921255Y-80212181D02*
X50983540Y-80181038D01*
X50983540Y-80181038D02*
X51014683Y-80149895D01*
X51014683Y-80149895D02*
X51045826Y-80087610D01*
X51045826Y-80087610D02*
X51045826Y-80025324D01*
X51045826Y-80025324D02*
X51014683Y-79963038D01*
X51014683Y-79963038D02*
X50983540Y-79931895D01*
X50983540Y-79931895D02*
X50921255Y-79900752D01*
X50921255Y-79900752D02*
X50765540Y-79900752D01*
X50765540Y-79900752D02*
X50672112Y-79931895D01*
D10*
X32592686Y-82848834D02*
X32592686Y-83211691D01*
X32592686Y-83030263D02*
X33227686Y-83030263D01*
X33227686Y-83030263D02*
X33136972Y-83090739D01*
X33136972Y-83090739D02*
X33076496Y-83151215D01*
X33076496Y-83151215D02*
X33046258Y-83211691D01*
X33016020Y-82304548D02*
X32592686Y-82304548D01*
X33257925Y-82455739D02*
X32804353Y-82606929D01*
X32804353Y-82606929D02*
X32804353Y-82213834D01*
X32955544Y-62468358D02*
X32985782Y-62528834D01*
X32985782Y-62528834D02*
X33016020Y-62559072D01*
X33016020Y-62559072D02*
X33076496Y-62589310D01*
X33076496Y-62589310D02*
X33106734Y-62589310D01*
X33106734Y-62589310D02*
X33167210Y-62559072D01*
X33167210Y-62559072D02*
X33197448Y-62528834D01*
X33197448Y-62528834D02*
X33227686Y-62468358D01*
X33227686Y-62468358D02*
X33227686Y-62347405D01*
X33227686Y-62347405D02*
X33197448Y-62286929D01*
X33197448Y-62286929D02*
X33167210Y-62256691D01*
X33167210Y-62256691D02*
X33106734Y-62226453D01*
X33106734Y-62226453D02*
X33076496Y-62226453D01*
X33076496Y-62226453D02*
X33016020Y-62256691D01*
X33016020Y-62256691D02*
X32985782Y-62286929D01*
X32985782Y-62286929D02*
X32955544Y-62347405D01*
X32955544Y-62347405D02*
X32955544Y-62468358D01*
X32955544Y-62468358D02*
X32925305Y-62528834D01*
X32925305Y-62528834D02*
X32895067Y-62559072D01*
X32895067Y-62559072D02*
X32834591Y-62589310D01*
X32834591Y-62589310D02*
X32713639Y-62589310D01*
X32713639Y-62589310D02*
X32653163Y-62559072D01*
X32653163Y-62559072D02*
X32622925Y-62528834D01*
X32622925Y-62528834D02*
X32592686Y-62468358D01*
X32592686Y-62468358D02*
X32592686Y-62347405D01*
X32592686Y-62347405D02*
X32622925Y-62286929D01*
X32622925Y-62286929D02*
X32653163Y-62256691D01*
X32653163Y-62256691D02*
X32713639Y-62226453D01*
X32713639Y-62226453D02*
X32834591Y-62226453D01*
X32834591Y-62226453D02*
X32895067Y-62256691D01*
X32895067Y-62256691D02*
X32925305Y-62286929D01*
X32925305Y-62286929D02*
X32955544Y-62347405D01*
D11*
X51030254Y-60234752D02*
X51030254Y-59580752D01*
X50656540Y-60234752D02*
X50936826Y-59861038D01*
X50656540Y-59580752D02*
X51030254Y-59954467D01*
X48381255Y-69740752D02*
X48256683Y-69740752D01*
X48256683Y-69740752D02*
X48194398Y-69771895D01*
X48194398Y-69771895D02*
X48132112Y-69834181D01*
X48132112Y-69834181D02*
X48100969Y-69958752D01*
X48100969Y-69958752D02*
X48100969Y-70176752D01*
X48100969Y-70176752D02*
X48132112Y-70301324D01*
X48132112Y-70301324D02*
X48194398Y-70363610D01*
X48194398Y-70363610D02*
X48256683Y-70394752D01*
X48256683Y-70394752D02*
X48381255Y-70394752D01*
X48381255Y-70394752D02*
X48443541Y-70363610D01*
X48443541Y-70363610D02*
X48505826Y-70301324D01*
X48505826Y-70301324D02*
X48536969Y-70176752D01*
X48536969Y-70176752D02*
X48536969Y-69958752D01*
X48536969Y-69958752D02*
X48505826Y-69834181D01*
X48505826Y-69834181D02*
X48443541Y-69771895D01*
X48443541Y-69771895D02*
X48381255Y-69740752D01*
X51030254Y-72934752D02*
X51030254Y-72280752D01*
X51030254Y-72280752D02*
X50781111Y-72280752D01*
X50781111Y-72280752D02*
X50718826Y-72311895D01*
X50718826Y-72311895D02*
X50687683Y-72343038D01*
X50687683Y-72343038D02*
X50656540Y-72405324D01*
X50656540Y-72405324D02*
X50656540Y-72498752D01*
X50656540Y-72498752D02*
X50687683Y-72561038D01*
X50687683Y-72561038D02*
X50718826Y-72592181D01*
X50718826Y-72592181D02*
X50781111Y-72623324D01*
X50781111Y-72623324D02*
X51030254Y-72623324D01*
X50687683Y-49451895D02*
X50749969Y-49420752D01*
X50749969Y-49420752D02*
X50843397Y-49420752D01*
X50843397Y-49420752D02*
X50936826Y-49451895D01*
X50936826Y-49451895D02*
X50999111Y-49514181D01*
X50999111Y-49514181D02*
X51030254Y-49576467D01*
X51030254Y-49576467D02*
X51061397Y-49701038D01*
X51061397Y-49701038D02*
X51061397Y-49794467D01*
X51061397Y-49794467D02*
X51030254Y-49919038D01*
X51030254Y-49919038D02*
X50999111Y-49981324D01*
X50999111Y-49981324D02*
X50936826Y-50043610D01*
X50936826Y-50043610D02*
X50843397Y-50074752D01*
X50843397Y-50074752D02*
X50781111Y-50074752D01*
X50781111Y-50074752D02*
X50687683Y-50043610D01*
X50687683Y-50043610D02*
X50656540Y-50012467D01*
X50656540Y-50012467D02*
X50656540Y-49794467D01*
X50656540Y-49794467D02*
X50781111Y-49794467D01*
D10*
X33016020Y-41966929D02*
X32592686Y-41966929D01*
X33257925Y-42118120D02*
X32804353Y-42269310D01*
X32804353Y-42269310D02*
X32804353Y-41876215D01*
D11*
X48490254Y-60234752D02*
X48490254Y-59580752D01*
X48116540Y-60234752D02*
X48396826Y-59861038D01*
X48116540Y-59580752D02*
X48490254Y-59954467D01*
D10*
X66045379Y-69997689D02*
X66468713Y-69997689D01*
X65803475Y-69846498D02*
X66257046Y-69695308D01*
X66257046Y-69695308D02*
X66257046Y-70088403D01*
X65833713Y-70632689D02*
X65833713Y-70330308D01*
X65833713Y-70330308D02*
X66136094Y-70300070D01*
X66136094Y-70300070D02*
X66105855Y-70330308D01*
X66105855Y-70330308D02*
X66075617Y-70390784D01*
X66075617Y-70390784D02*
X66075617Y-70541975D01*
X66075617Y-70541975D02*
X66105855Y-70602451D01*
X66105855Y-70602451D02*
X66136094Y-70632689D01*
X66136094Y-70632689D02*
X66196570Y-70662927D01*
X66196570Y-70662927D02*
X66347760Y-70662927D01*
X66347760Y-70662927D02*
X66408236Y-70632689D01*
X66408236Y-70632689D02*
X66438475Y-70602451D01*
X66438475Y-70602451D02*
X66468713Y-70541975D01*
X66468713Y-70541975D02*
X66468713Y-70390784D01*
X66468713Y-70390784D02*
X66438475Y-70330308D01*
X66438475Y-70330308D02*
X66408236Y-70300070D01*
X70603834Y-96187313D02*
X70603834Y-95552313D01*
X70603834Y-95854694D02*
X70240977Y-95854694D01*
X70240977Y-96187313D02*
X70240977Y-95552313D01*
X69605977Y-96187313D02*
X69968834Y-96187313D01*
X69787406Y-96187313D02*
X69787406Y-95552313D01*
X69787406Y-95552313D02*
X69847882Y-95643027D01*
X69847882Y-95643027D02*
X69908358Y-95703503D01*
X69908358Y-95703503D02*
X69968834Y-95733741D01*
X69243120Y-95824455D02*
X69303596Y-95794217D01*
X69303596Y-95794217D02*
X69333834Y-95763979D01*
X69333834Y-95763979D02*
X69364072Y-95703503D01*
X69364072Y-95703503D02*
X69364072Y-95673265D01*
X69364072Y-95673265D02*
X69333834Y-95612789D01*
X69333834Y-95612789D02*
X69303596Y-95582551D01*
X69303596Y-95582551D02*
X69243120Y-95552313D01*
X69243120Y-95552313D02*
X69122167Y-95552313D01*
X69122167Y-95552313D02*
X69061691Y-95582551D01*
X69061691Y-95582551D02*
X69031453Y-95612789D01*
X69031453Y-95612789D02*
X69001215Y-95673265D01*
X69001215Y-95673265D02*
X69001215Y-95703503D01*
X69001215Y-95703503D02*
X69031453Y-95763979D01*
X69031453Y-95763979D02*
X69061691Y-95794217D01*
X69061691Y-95794217D02*
X69122167Y-95824455D01*
X69122167Y-95824455D02*
X69243120Y-95824455D01*
X69243120Y-95824455D02*
X69303596Y-95854694D01*
X69303596Y-95854694D02*
X69333834Y-95884932D01*
X69333834Y-95884932D02*
X69364072Y-95945408D01*
X69364072Y-95945408D02*
X69364072Y-96066360D01*
X69364072Y-96066360D02*
X69333834Y-96126836D01*
X69333834Y-96126836D02*
X69303596Y-96157075D01*
X69303596Y-96157075D02*
X69243120Y-96187313D01*
X69243120Y-96187313D02*
X69122167Y-96187313D01*
X69122167Y-96187313D02*
X69061691Y-96157075D01*
X69061691Y-96157075D02*
X69031453Y-96126836D01*
X69031453Y-96126836D02*
X69001215Y-96066360D01*
X69001215Y-96066360D02*
X69001215Y-95945408D01*
X69001215Y-95945408D02*
X69031453Y-95884932D01*
X69031453Y-95884932D02*
X69061691Y-95854694D01*
X69061691Y-95854694D02*
X69122167Y-95824455D01*
X29610360Y-38687166D02*
X29247503Y-38433166D01*
X29610360Y-38251737D02*
X28848360Y-38251737D01*
X28848360Y-38251737D02*
X28848360Y-38542023D01*
X28848360Y-38542023D02*
X28884646Y-38614594D01*
X28884646Y-38614594D02*
X28920932Y-38650880D01*
X28920932Y-38650880D02*
X28993503Y-38687166D01*
X28993503Y-38687166D02*
X29102360Y-38687166D01*
X29102360Y-38687166D02*
X29174932Y-38650880D01*
X29174932Y-38650880D02*
X29211217Y-38614594D01*
X29211217Y-38614594D02*
X29247503Y-38542023D01*
X29247503Y-38542023D02*
X29247503Y-38251737D01*
X28848360Y-39376594D02*
X28848360Y-39013737D01*
X28848360Y-39013737D02*
X29211217Y-38977451D01*
X29211217Y-38977451D02*
X29174932Y-39013737D01*
X29174932Y-39013737D02*
X29138646Y-39086309D01*
X29138646Y-39086309D02*
X29138646Y-39267737D01*
X29138646Y-39267737D02*
X29174932Y-39340309D01*
X29174932Y-39340309D02*
X29211217Y-39376594D01*
X29211217Y-39376594D02*
X29283789Y-39412880D01*
X29283789Y-39412880D02*
X29465217Y-39412880D01*
X29465217Y-39412880D02*
X29537789Y-39376594D01*
X29537789Y-39376594D02*
X29574075Y-39340309D01*
X29574075Y-39340309D02*
X29610360Y-39267737D01*
X29610360Y-39267737D02*
X29610360Y-39086309D01*
X29610360Y-39086309D02*
X29574075Y-39013737D01*
X29574075Y-39013737D02*
X29537789Y-38977451D01*
X29102360Y-39666880D02*
X29610360Y-39848308D01*
X29610360Y-39848308D02*
X29102360Y-40029737D01*
X29610360Y-40320022D02*
X28848360Y-40320022D01*
X29610360Y-40682879D02*
X28848360Y-40682879D01*
X28848360Y-40682879D02*
X29610360Y-41118308D01*
X29610360Y-41118308D02*
X28848360Y-41118308D01*
X34077872Y-22771875D02*
X33943615Y-22816627D01*
X33943615Y-22816627D02*
X33719853Y-22816627D01*
X33719853Y-22816627D02*
X33630348Y-22771875D01*
X33630348Y-22771875D02*
X33585596Y-22727122D01*
X33585596Y-22727122D02*
X33540843Y-22637617D01*
X33540843Y-22637617D02*
X33540843Y-22548113D01*
X33540843Y-22548113D02*
X33585596Y-22458608D01*
X33585596Y-22458608D02*
X33630348Y-22413855D01*
X33630348Y-22413855D02*
X33719853Y-22369103D01*
X33719853Y-22369103D02*
X33898862Y-22324351D01*
X33898862Y-22324351D02*
X33988367Y-22279598D01*
X33988367Y-22279598D02*
X34033120Y-22234846D01*
X34033120Y-22234846D02*
X34077872Y-22145341D01*
X34077872Y-22145341D02*
X34077872Y-22055836D01*
X34077872Y-22055836D02*
X34033120Y-21966332D01*
X34033120Y-21966332D02*
X33988367Y-21921579D01*
X33988367Y-21921579D02*
X33898862Y-21876827D01*
X33898862Y-21876827D02*
X33675101Y-21876827D01*
X33675101Y-21876827D02*
X33540843Y-21921579D01*
X33227576Y-21876827D02*
X33003814Y-22816627D01*
X33003814Y-22816627D02*
X32824805Y-22145341D01*
X32824805Y-22145341D02*
X32645795Y-22816627D01*
X32645795Y-22816627D02*
X32422034Y-21876827D01*
X32287777Y-22906132D02*
X31571738Y-22906132D01*
X30810948Y-22816627D02*
X31124215Y-22369103D01*
X31347977Y-22816627D02*
X31347977Y-21876827D01*
X31347977Y-21876827D02*
X30989958Y-21876827D01*
X30989958Y-21876827D02*
X30900453Y-21921579D01*
X30900453Y-21921579D02*
X30855700Y-21966332D01*
X30855700Y-21966332D02*
X30810948Y-22055836D01*
X30810948Y-22055836D02*
X30810948Y-22190094D01*
X30810948Y-22190094D02*
X30855700Y-22279598D01*
X30855700Y-22279598D02*
X30900453Y-22324351D01*
X30900453Y-22324351D02*
X30989958Y-22369103D01*
X30989958Y-22369103D02*
X31347977Y-22369103D01*
X30408177Y-22324351D02*
X30094910Y-22324351D01*
X29960653Y-22816627D02*
X30408177Y-22816627D01*
X30408177Y-22816627D02*
X30408177Y-21876827D01*
X30408177Y-21876827D02*
X29960653Y-21876827D01*
X29602634Y-22771875D02*
X29468377Y-22816627D01*
X29468377Y-22816627D02*
X29244615Y-22816627D01*
X29244615Y-22816627D02*
X29155110Y-22771875D01*
X29155110Y-22771875D02*
X29110358Y-22727122D01*
X29110358Y-22727122D02*
X29065605Y-22637617D01*
X29065605Y-22637617D02*
X29065605Y-22548113D01*
X29065605Y-22548113D02*
X29110358Y-22458608D01*
X29110358Y-22458608D02*
X29155110Y-22413855D01*
X29155110Y-22413855D02*
X29244615Y-22369103D01*
X29244615Y-22369103D02*
X29423624Y-22324351D01*
X29423624Y-22324351D02*
X29513129Y-22279598D01*
X29513129Y-22279598D02*
X29557882Y-22234846D01*
X29557882Y-22234846D02*
X29602634Y-22145341D01*
X29602634Y-22145341D02*
X29602634Y-22055836D01*
X29602634Y-22055836D02*
X29557882Y-21966332D01*
X29557882Y-21966332D02*
X29513129Y-21921579D01*
X29513129Y-21921579D02*
X29423624Y-21876827D01*
X29423624Y-21876827D02*
X29199863Y-21876827D01*
X29199863Y-21876827D02*
X29065605Y-21921579D01*
X28662834Y-22324351D02*
X28349567Y-22324351D01*
X28215310Y-22816627D02*
X28662834Y-22816627D01*
X28662834Y-22816627D02*
X28662834Y-21876827D01*
X28662834Y-21876827D02*
X28215310Y-21876827D01*
X27946796Y-21876827D02*
X27409767Y-21876827D01*
X27678281Y-22816627D02*
X27678281Y-21876827D01*
D11*
X48147683Y-49451895D02*
X48209969Y-49420752D01*
X48209969Y-49420752D02*
X48303397Y-49420752D01*
X48303397Y-49420752D02*
X48396826Y-49451895D01*
X48396826Y-49451895D02*
X48459111Y-49514181D01*
X48459111Y-49514181D02*
X48490254Y-49576467D01*
X48490254Y-49576467D02*
X48521397Y-49701038D01*
X48521397Y-49701038D02*
X48521397Y-49794467D01*
X48521397Y-49794467D02*
X48490254Y-49919038D01*
X48490254Y-49919038D02*
X48459111Y-49981324D01*
X48459111Y-49981324D02*
X48396826Y-50043610D01*
X48396826Y-50043610D02*
X48303397Y-50074752D01*
X48303397Y-50074752D02*
X48241111Y-50074752D01*
X48241111Y-50074752D02*
X48147683Y-50043610D01*
X48147683Y-50043610D02*
X48116540Y-50012467D01*
X48116540Y-50012467D02*
X48116540Y-49794467D01*
X48116540Y-49794467D02*
X48241111Y-49794467D01*
D10*
X43960614Y-32292412D02*
X43960614Y-32381917D01*
X43960614Y-32381917D02*
X44005366Y-32471421D01*
X44005366Y-32471421D02*
X44050119Y-32516174D01*
X44050119Y-32516174D02*
X44139623Y-32560926D01*
X44139623Y-32560926D02*
X44318633Y-32605679D01*
X44318633Y-32605679D02*
X44542395Y-32605679D01*
X44542395Y-32605679D02*
X44721404Y-32560926D01*
X44721404Y-32560926D02*
X44810909Y-32516174D01*
X44810909Y-32516174D02*
X44855662Y-32471421D01*
X44855662Y-32471421D02*
X44900414Y-32381917D01*
X44900414Y-32381917D02*
X44900414Y-32292412D01*
X44900414Y-32292412D02*
X44855662Y-32202907D01*
X44855662Y-32202907D02*
X44810909Y-32158155D01*
X44810909Y-32158155D02*
X44721404Y-32113402D01*
X44721404Y-32113402D02*
X44542395Y-32068650D01*
X44542395Y-32068650D02*
X44318633Y-32068650D01*
X44318633Y-32068650D02*
X44139623Y-32113402D01*
X44139623Y-32113402D02*
X44050119Y-32158155D01*
X44050119Y-32158155D02*
X44005366Y-32202907D01*
X44005366Y-32202907D02*
X43960614Y-32292412D01*
X43960614Y-32918946D02*
X43960614Y-33500727D01*
X43960614Y-33500727D02*
X44318633Y-33187460D01*
X44318633Y-33187460D02*
X44318633Y-33321717D01*
X44318633Y-33321717D02*
X44363385Y-33411222D01*
X44363385Y-33411222D02*
X44408138Y-33455974D01*
X44408138Y-33455974D02*
X44497642Y-33500727D01*
X44497642Y-33500727D02*
X44721404Y-33500727D01*
X44721404Y-33500727D02*
X44810909Y-33455974D01*
X44810909Y-33455974D02*
X44855662Y-33411222D01*
X44855662Y-33411222D02*
X44900414Y-33321717D01*
X44900414Y-33321717D02*
X44900414Y-33053203D01*
X44900414Y-33053203D02*
X44855662Y-32963698D01*
X44855662Y-32963698D02*
X44810909Y-32918946D01*
X55363834Y-96187313D02*
X55363834Y-95552313D01*
X55363834Y-95854694D02*
X55000977Y-95854694D01*
X55000977Y-96187313D02*
X55000977Y-95552313D01*
X54365977Y-96187313D02*
X54728834Y-96187313D01*
X54547406Y-96187313D02*
X54547406Y-95552313D01*
X54547406Y-95552313D02*
X54607882Y-95643027D01*
X54607882Y-95643027D02*
X54668358Y-95703503D01*
X54668358Y-95703503D02*
X54728834Y-95733741D01*
X54124072Y-95612789D02*
X54093834Y-95582551D01*
X54093834Y-95582551D02*
X54033358Y-95552313D01*
X54033358Y-95552313D02*
X53882167Y-95552313D01*
X53882167Y-95552313D02*
X53821691Y-95582551D01*
X53821691Y-95582551D02*
X53791453Y-95612789D01*
X53791453Y-95612789D02*
X53761215Y-95673265D01*
X53761215Y-95673265D02*
X53761215Y-95733741D01*
X53761215Y-95733741D02*
X53791453Y-95824455D01*
X53791453Y-95824455D02*
X54154310Y-96187313D01*
X54154310Y-96187313D02*
X53761215Y-96187313D01*
X72065975Y-17149061D02*
X72065975Y-16209261D01*
X72065975Y-16209261D02*
X71752708Y-16880547D01*
X71752708Y-16880547D02*
X71439441Y-16209261D01*
X71439441Y-16209261D02*
X71439441Y-17149061D01*
X70320632Y-16164509D02*
X71126175Y-17372823D01*
X70007366Y-17149061D02*
X70007366Y-16209261D01*
X70007366Y-16209261D02*
X69470337Y-17149061D01*
X69470337Y-17149061D02*
X69470337Y-16209261D01*
X69022814Y-17059556D02*
X68978061Y-17104309D01*
X68978061Y-17104309D02*
X69022814Y-17149061D01*
X69022814Y-17149061D02*
X69067566Y-17104309D01*
X69067566Y-17104309D02*
X69022814Y-17059556D01*
X69022814Y-17059556D02*
X69022814Y-17149061D01*
X69022814Y-16567280D02*
X68978061Y-16612032D01*
X68978061Y-16612032D02*
X69022814Y-16656785D01*
X69022814Y-16656785D02*
X69067566Y-16612032D01*
X69067566Y-16612032D02*
X69022814Y-16567280D01*
X69022814Y-16567280D02*
X69022814Y-16656785D01*
X67590737Y-16209261D02*
X67590737Y-16880547D01*
X67590737Y-16880547D02*
X67635490Y-17014804D01*
X67635490Y-17014804D02*
X67724994Y-17104309D01*
X67724994Y-17104309D02*
X67859252Y-17149061D01*
X67859252Y-17149061D02*
X67948756Y-17149061D01*
X67143214Y-17149061D02*
X67143214Y-16209261D01*
X67143214Y-16209261D02*
X66919452Y-16209261D01*
X66919452Y-16209261D02*
X66785195Y-16254013D01*
X66785195Y-16254013D02*
X66695690Y-16343518D01*
X66695690Y-16343518D02*
X66650937Y-16433023D01*
X66650937Y-16433023D02*
X66606185Y-16612032D01*
X66606185Y-16612032D02*
X66606185Y-16746289D01*
X66606185Y-16746289D02*
X66650937Y-16925299D01*
X66650937Y-16925299D02*
X66695690Y-17014804D01*
X66695690Y-17014804D02*
X66785195Y-17104309D01*
X66785195Y-17104309D02*
X66919452Y-17149061D01*
X66919452Y-17149061D02*
X67143214Y-17149061D01*
X66248166Y-17104309D02*
X66113909Y-17149061D01*
X66113909Y-17149061D02*
X65890147Y-17149061D01*
X65890147Y-17149061D02*
X65800642Y-17104309D01*
X65800642Y-17104309D02*
X65755890Y-17059556D01*
X65755890Y-17059556D02*
X65711137Y-16970051D01*
X65711137Y-16970051D02*
X65711137Y-16880547D01*
X65711137Y-16880547D02*
X65755890Y-16791042D01*
X65755890Y-16791042D02*
X65800642Y-16746289D01*
X65800642Y-16746289D02*
X65890147Y-16701537D01*
X65890147Y-16701537D02*
X66069156Y-16656785D01*
X66069156Y-16656785D02*
X66158661Y-16612032D01*
X66158661Y-16612032D02*
X66203414Y-16567280D01*
X66203414Y-16567280D02*
X66248166Y-16477775D01*
X66248166Y-16477775D02*
X66248166Y-16388270D01*
X66248166Y-16388270D02*
X66203414Y-16298766D01*
X66203414Y-16298766D02*
X66158661Y-16254013D01*
X66158661Y-16254013D02*
X66069156Y-16209261D01*
X66069156Y-16209261D02*
X65845395Y-16209261D01*
X65845395Y-16209261D02*
X65711137Y-16254013D01*
X65353118Y-16298766D02*
X65308366Y-16254013D01*
X65308366Y-16254013D02*
X65218861Y-16209261D01*
X65218861Y-16209261D02*
X64995099Y-16209261D01*
X64995099Y-16209261D02*
X64905594Y-16254013D01*
X64905594Y-16254013D02*
X64860842Y-16298766D01*
X64860842Y-16298766D02*
X64816089Y-16388270D01*
X64816089Y-16388270D02*
X64816089Y-16477775D01*
X64816089Y-16477775D02*
X64860842Y-16612032D01*
X64860842Y-16612032D02*
X65397870Y-17149061D01*
X65397870Y-17149061D02*
X64816089Y-17149061D01*
X64413318Y-17059556D02*
X64368565Y-17104309D01*
X64368565Y-17104309D02*
X64413318Y-17149061D01*
X64413318Y-17149061D02*
X64458070Y-17104309D01*
X64458070Y-17104309D02*
X64413318Y-17059556D01*
X64413318Y-17059556D02*
X64413318Y-17149061D01*
X63428765Y-17059556D02*
X63473517Y-17104309D01*
X63473517Y-17104309D02*
X63607775Y-17149061D01*
X63607775Y-17149061D02*
X63697279Y-17149061D01*
X63697279Y-17149061D02*
X63831536Y-17104309D01*
X63831536Y-17104309D02*
X63921041Y-17014804D01*
X63921041Y-17014804D02*
X63965794Y-16925299D01*
X63965794Y-16925299D02*
X64010546Y-16746289D01*
X64010546Y-16746289D02*
X64010546Y-16612032D01*
X64010546Y-16612032D02*
X63965794Y-16433023D01*
X63965794Y-16433023D02*
X63921041Y-16343518D01*
X63921041Y-16343518D02*
X63831536Y-16254013D01*
X63831536Y-16254013D02*
X63697279Y-16209261D01*
X63697279Y-16209261D02*
X63607775Y-16209261D01*
X63607775Y-16209261D02*
X63473517Y-16254013D01*
X63473517Y-16254013D02*
X63428765Y-16298766D01*
X62846984Y-16209261D02*
X62667975Y-16209261D01*
X62667975Y-16209261D02*
X62578470Y-16254013D01*
X62578470Y-16254013D02*
X62488965Y-16343518D01*
X62488965Y-16343518D02*
X62444213Y-16522528D01*
X62444213Y-16522528D02*
X62444213Y-16835794D01*
X62444213Y-16835794D02*
X62488965Y-17014804D01*
X62488965Y-17014804D02*
X62578470Y-17104309D01*
X62578470Y-17104309D02*
X62667975Y-17149061D01*
X62667975Y-17149061D02*
X62846984Y-17149061D01*
X62846984Y-17149061D02*
X62936489Y-17104309D01*
X62936489Y-17104309D02*
X63025994Y-17014804D01*
X63025994Y-17014804D02*
X63070746Y-16835794D01*
X63070746Y-16835794D02*
X63070746Y-16522528D01*
X63070746Y-16522528D02*
X63025994Y-16343518D01*
X63025994Y-16343518D02*
X62936489Y-16254013D01*
X62936489Y-16254013D02*
X62846984Y-16209261D01*
X62041442Y-17149061D02*
X62041442Y-16209261D01*
X62041442Y-16209261D02*
X61728175Y-16880547D01*
X61728175Y-16880547D02*
X61414908Y-16209261D01*
X61414908Y-16209261D02*
X61414908Y-17149061D01*
X60296099Y-16164509D02*
X61101642Y-17372823D01*
X60027585Y-16880547D02*
X59580061Y-16880547D01*
X60117090Y-17149061D02*
X59803823Y-16209261D01*
X59803823Y-16209261D02*
X59490556Y-17149061D01*
X59222042Y-16880547D02*
X58774518Y-16880547D01*
X59311547Y-17149061D02*
X58998280Y-16209261D01*
X58998280Y-16209261D02*
X58685013Y-17149061D01*
X58058480Y-16656785D02*
X57924223Y-16701537D01*
X57924223Y-16701537D02*
X57879470Y-16746289D01*
X57879470Y-16746289D02*
X57834718Y-16835794D01*
X57834718Y-16835794D02*
X57834718Y-16970051D01*
X57834718Y-16970051D02*
X57879470Y-17059556D01*
X57879470Y-17059556D02*
X57924223Y-17104309D01*
X57924223Y-17104309D02*
X58013728Y-17149061D01*
X58013728Y-17149061D02*
X58371747Y-17149061D01*
X58371747Y-17149061D02*
X58371747Y-16209261D01*
X58371747Y-16209261D02*
X58058480Y-16209261D01*
X58058480Y-16209261D02*
X57968975Y-16254013D01*
X57968975Y-16254013D02*
X57924223Y-16298766D01*
X57924223Y-16298766D02*
X57879470Y-16388270D01*
X57879470Y-16388270D02*
X57879470Y-16477775D01*
X57879470Y-16477775D02*
X57924223Y-16567280D01*
X57924223Y-16567280D02*
X57968975Y-16612032D01*
X57968975Y-16612032D02*
X58058480Y-16656785D01*
X58058480Y-16656785D02*
X58371747Y-16656785D01*
X56760661Y-16164509D02*
X57566204Y-17372823D01*
X56268385Y-16209261D02*
X56178880Y-16209261D01*
X56178880Y-16209261D02*
X56089376Y-16254013D01*
X56089376Y-16254013D02*
X56044623Y-16298766D01*
X56044623Y-16298766D02*
X55999871Y-16388270D01*
X55999871Y-16388270D02*
X55955118Y-16567280D01*
X55955118Y-16567280D02*
X55955118Y-16791042D01*
X55955118Y-16791042D02*
X55999871Y-16970051D01*
X55999871Y-16970051D02*
X56044623Y-17059556D01*
X56044623Y-17059556D02*
X56089376Y-17104309D01*
X56089376Y-17104309D02*
X56178880Y-17149061D01*
X56178880Y-17149061D02*
X56268385Y-17149061D01*
X56268385Y-17149061D02*
X56357890Y-17104309D01*
X56357890Y-17104309D02*
X56402642Y-17059556D01*
X56402642Y-17059556D02*
X56447395Y-16970051D01*
X56447395Y-16970051D02*
X56492147Y-16791042D01*
X56492147Y-16791042D02*
X56492147Y-16567280D01*
X56492147Y-16567280D02*
X56447395Y-16388270D01*
X56447395Y-16388270D02*
X56402642Y-16298766D01*
X56402642Y-16298766D02*
X56357890Y-16254013D01*
X56357890Y-16254013D02*
X56268385Y-16209261D01*
X55373337Y-16209261D02*
X55283832Y-16209261D01*
X55283832Y-16209261D02*
X55194328Y-16254013D01*
X55194328Y-16254013D02*
X55149575Y-16298766D01*
X55149575Y-16298766D02*
X55104823Y-16388270D01*
X55104823Y-16388270D02*
X55060070Y-16567280D01*
X55060070Y-16567280D02*
X55060070Y-16791042D01*
X55060070Y-16791042D02*
X55104823Y-16970051D01*
X55104823Y-16970051D02*
X55149575Y-17059556D01*
X55149575Y-17059556D02*
X55194328Y-17104309D01*
X55194328Y-17104309D02*
X55283832Y-17149061D01*
X55283832Y-17149061D02*
X55373337Y-17149061D01*
X55373337Y-17149061D02*
X55462842Y-17104309D01*
X55462842Y-17104309D02*
X55507594Y-17059556D01*
X55507594Y-17059556D02*
X55552347Y-16970051D01*
X55552347Y-16970051D02*
X55597099Y-16791042D01*
X55597099Y-16791042D02*
X55597099Y-16567280D01*
X55597099Y-16567280D02*
X55552347Y-16388270D01*
X55552347Y-16388270D02*
X55507594Y-16298766D01*
X55507594Y-16298766D02*
X55462842Y-16254013D01*
X55462842Y-16254013D02*
X55373337Y-16209261D01*
X54165022Y-17149061D02*
X54702051Y-17149061D01*
X54433537Y-17149061D02*
X54433537Y-16209261D01*
X54433537Y-16209261D02*
X54523041Y-16343518D01*
X54523041Y-16343518D02*
X54612546Y-16433023D01*
X54612546Y-16433023D02*
X54702051Y-16477775D01*
D11*
X48505826Y-52614752D02*
X48505826Y-51960752D01*
X48505826Y-52272181D02*
X48132112Y-52272181D01*
X48132112Y-52614752D02*
X48132112Y-51960752D01*
X50812254Y-37032181D02*
X50718826Y-37063324D01*
X50718826Y-37063324D02*
X50687683Y-37094467D01*
X50687683Y-37094467D02*
X50656540Y-37156752D01*
X50656540Y-37156752D02*
X50656540Y-37250181D01*
X50656540Y-37250181D02*
X50687683Y-37312467D01*
X50687683Y-37312467D02*
X50718826Y-37343610D01*
X50718826Y-37343610D02*
X50781111Y-37374752D01*
X50781111Y-37374752D02*
X51030254Y-37374752D01*
X51030254Y-37374752D02*
X51030254Y-36720752D01*
X51030254Y-36720752D02*
X50812254Y-36720752D01*
X50812254Y-36720752D02*
X50749969Y-36751895D01*
X50749969Y-36751895D02*
X50718826Y-36783038D01*
X50718826Y-36783038D02*
X50687683Y-36845324D01*
X50687683Y-36845324D02*
X50687683Y-36907610D01*
X50687683Y-36907610D02*
X50718826Y-36969895D01*
X50718826Y-36969895D02*
X50749969Y-37001038D01*
X50749969Y-37001038D02*
X50812254Y-37032181D01*
X50812254Y-37032181D02*
X51030254Y-37032181D01*
D10*
X35043834Y-96187313D02*
X35043834Y-95552313D01*
X35043834Y-95854694D02*
X34680977Y-95854694D01*
X34680977Y-96187313D02*
X34680977Y-95552313D01*
X34257644Y-95552313D02*
X34197167Y-95552313D01*
X34197167Y-95552313D02*
X34136691Y-95582551D01*
X34136691Y-95582551D02*
X34106453Y-95612789D01*
X34106453Y-95612789D02*
X34076215Y-95673265D01*
X34076215Y-95673265D02*
X34045977Y-95794217D01*
X34045977Y-95794217D02*
X34045977Y-95945408D01*
X34045977Y-95945408D02*
X34076215Y-96066360D01*
X34076215Y-96066360D02*
X34106453Y-96126836D01*
X34106453Y-96126836D02*
X34136691Y-96157075D01*
X34136691Y-96157075D02*
X34197167Y-96187313D01*
X34197167Y-96187313D02*
X34257644Y-96187313D01*
X34257644Y-96187313D02*
X34318120Y-96157075D01*
X34318120Y-96157075D02*
X34348358Y-96126836D01*
X34348358Y-96126836D02*
X34378596Y-96066360D01*
X34378596Y-96066360D02*
X34408834Y-95945408D01*
X34408834Y-95945408D02*
X34408834Y-95794217D01*
X34408834Y-95794217D02*
X34378596Y-95673265D01*
X34378596Y-95673265D02*
X34348358Y-95612789D01*
X34348358Y-95612789D02*
X34318120Y-95582551D01*
X34318120Y-95582551D02*
X34257644Y-95552313D01*
X33501691Y-95763979D02*
X33501691Y-96187313D01*
X33652882Y-95522075D02*
X33804072Y-95975646D01*
X33804072Y-95975646D02*
X33410977Y-95975646D01*
X62983834Y-96187313D02*
X62983834Y-95552313D01*
X62983834Y-95854694D02*
X62620977Y-95854694D01*
X62620977Y-96187313D02*
X62620977Y-95552313D01*
X61985977Y-96187313D02*
X62348834Y-96187313D01*
X62167406Y-96187313D02*
X62167406Y-95552313D01*
X62167406Y-95552313D02*
X62227882Y-95643027D01*
X62227882Y-95643027D02*
X62288358Y-95703503D01*
X62288358Y-95703503D02*
X62348834Y-95733741D01*
X61411453Y-95552313D02*
X61713834Y-95552313D01*
X61713834Y-95552313D02*
X61744072Y-95854694D01*
X61744072Y-95854694D02*
X61713834Y-95824455D01*
X61713834Y-95824455D02*
X61653358Y-95794217D01*
X61653358Y-95794217D02*
X61502167Y-95794217D01*
X61502167Y-95794217D02*
X61441691Y-95824455D01*
X61441691Y-95824455D02*
X61411453Y-95854694D01*
X61411453Y-95854694D02*
X61381215Y-95915170D01*
X61381215Y-95915170D02*
X61381215Y-96066360D01*
X61381215Y-96066360D02*
X61411453Y-96126836D01*
X61411453Y-96126836D02*
X61441691Y-96157075D01*
X61441691Y-96157075D02*
X61502167Y-96187313D01*
X61502167Y-96187313D02*
X61653358Y-96187313D01*
X61653358Y-96187313D02*
X61713834Y-96157075D01*
X61713834Y-96157075D02*
X61744072Y-96126836D01*
D11*
X50765540Y-47192181D02*
X50983540Y-47192181D01*
X50983540Y-47534752D02*
X50983540Y-46880752D01*
X50983540Y-46880752D02*
X50672112Y-46880752D01*
D10*
X47743834Y-96187313D02*
X47743834Y-95552313D01*
X47743834Y-95854694D02*
X47380977Y-95854694D01*
X47380977Y-96187313D02*
X47380977Y-95552313D01*
X46957644Y-95552313D02*
X46897167Y-95552313D01*
X46897167Y-95552313D02*
X46836691Y-95582551D01*
X46836691Y-95582551D02*
X46806453Y-95612789D01*
X46806453Y-95612789D02*
X46776215Y-95673265D01*
X46776215Y-95673265D02*
X46745977Y-95794217D01*
X46745977Y-95794217D02*
X46745977Y-95945408D01*
X46745977Y-95945408D02*
X46776215Y-96066360D01*
X46776215Y-96066360D02*
X46806453Y-96126836D01*
X46806453Y-96126836D02*
X46836691Y-96157075D01*
X46836691Y-96157075D02*
X46897167Y-96187313D01*
X46897167Y-96187313D02*
X46957644Y-96187313D01*
X46957644Y-96187313D02*
X47018120Y-96157075D01*
X47018120Y-96157075D02*
X47048358Y-96126836D01*
X47048358Y-96126836D02*
X47078596Y-96066360D01*
X47078596Y-96066360D02*
X47108834Y-95945408D01*
X47108834Y-95945408D02*
X47108834Y-95794217D01*
X47108834Y-95794217D02*
X47078596Y-95673265D01*
X47078596Y-95673265D02*
X47048358Y-95612789D01*
X47048358Y-95612789D02*
X47018120Y-95582551D01*
X47018120Y-95582551D02*
X46957644Y-95552313D01*
X46443596Y-96187313D02*
X46322644Y-96187313D01*
X46322644Y-96187313D02*
X46262167Y-96157075D01*
X46262167Y-96157075D02*
X46231929Y-96126836D01*
X46231929Y-96126836D02*
X46171453Y-96036122D01*
X46171453Y-96036122D02*
X46141215Y-95915170D01*
X46141215Y-95915170D02*
X46141215Y-95673265D01*
X46141215Y-95673265D02*
X46171453Y-95612789D01*
X46171453Y-95612789D02*
X46201691Y-95582551D01*
X46201691Y-95582551D02*
X46262167Y-95552313D01*
X46262167Y-95552313D02*
X46383120Y-95552313D01*
X46383120Y-95552313D02*
X46443596Y-95582551D01*
X46443596Y-95582551D02*
X46473834Y-95612789D01*
X46473834Y-95612789D02*
X46504072Y-95673265D01*
X46504072Y-95673265D02*
X46504072Y-95824455D01*
X46504072Y-95824455D02*
X46473834Y-95884932D01*
X46473834Y-95884932D02*
X46443596Y-95915170D01*
X46443596Y-95915170D02*
X46383120Y-95945408D01*
X46383120Y-95945408D02*
X46262167Y-95945408D01*
X46262167Y-95945408D02*
X46201691Y-95915170D01*
X46201691Y-95915170D02*
X46171453Y-95884932D01*
X46171453Y-95884932D02*
X46141215Y-95824455D01*
X32592686Y-80308834D02*
X32592686Y-80671691D01*
X32592686Y-80490263D02*
X33227686Y-80490263D01*
X33227686Y-80490263D02*
X33136972Y-80550739D01*
X33136972Y-80550739D02*
X33076496Y-80611215D01*
X33076496Y-80611215D02*
X33046258Y-80671691D01*
X33227686Y-80097167D02*
X33227686Y-79704072D01*
X33227686Y-79704072D02*
X32985782Y-79915739D01*
X32985782Y-79915739D02*
X32985782Y-79825024D01*
X32985782Y-79825024D02*
X32955544Y-79764548D01*
X32955544Y-79764548D02*
X32925305Y-79734310D01*
X32925305Y-79734310D02*
X32864829Y-79704072D01*
X32864829Y-79704072D02*
X32713639Y-79704072D01*
X32713639Y-79704072D02*
X32653163Y-79734310D01*
X32653163Y-79734310D02*
X32622925Y-79764548D01*
X32622925Y-79764548D02*
X32592686Y-79825024D01*
X32592686Y-79825024D02*
X32592686Y-80006453D01*
X32592686Y-80006453D02*
X32622925Y-80066929D01*
X32622925Y-80066929D02*
X32653163Y-80097167D01*
X51580614Y-32292412D02*
X51580614Y-32381917D01*
X51580614Y-32381917D02*
X51625366Y-32471421D01*
X51625366Y-32471421D02*
X51670119Y-32516174D01*
X51670119Y-32516174D02*
X51759623Y-32560926D01*
X51759623Y-32560926D02*
X51938633Y-32605679D01*
X51938633Y-32605679D02*
X52162395Y-32605679D01*
X52162395Y-32605679D02*
X52341404Y-32560926D01*
X52341404Y-32560926D02*
X52430909Y-32516174D01*
X52430909Y-32516174D02*
X52475662Y-32471421D01*
X52475662Y-32471421D02*
X52520414Y-32381917D01*
X52520414Y-32381917D02*
X52520414Y-32292412D01*
X52520414Y-32292412D02*
X52475662Y-32202907D01*
X52475662Y-32202907D02*
X52430909Y-32158155D01*
X52430909Y-32158155D02*
X52341404Y-32113402D01*
X52341404Y-32113402D02*
X52162395Y-32068650D01*
X52162395Y-32068650D02*
X51938633Y-32068650D01*
X51938633Y-32068650D02*
X51759623Y-32113402D01*
X51759623Y-32113402D02*
X51670119Y-32158155D01*
X51670119Y-32158155D02*
X51625366Y-32202907D01*
X51625366Y-32202907D02*
X51580614Y-32292412D01*
X51580614Y-33411222D02*
X51580614Y-33232212D01*
X51580614Y-33232212D02*
X51625366Y-33142708D01*
X51625366Y-33142708D02*
X51670119Y-33097955D01*
X51670119Y-33097955D02*
X51804376Y-33008450D01*
X51804376Y-33008450D02*
X51983385Y-32963698D01*
X51983385Y-32963698D02*
X52341404Y-32963698D01*
X52341404Y-32963698D02*
X52430909Y-33008450D01*
X52430909Y-33008450D02*
X52475662Y-33053203D01*
X52475662Y-33053203D02*
X52520414Y-33142708D01*
X52520414Y-33142708D02*
X52520414Y-33321717D01*
X52520414Y-33321717D02*
X52475662Y-33411222D01*
X52475662Y-33411222D02*
X52430909Y-33455974D01*
X52430909Y-33455974D02*
X52341404Y-33500727D01*
X52341404Y-33500727D02*
X52117642Y-33500727D01*
X52117642Y-33500727D02*
X52028138Y-33455974D01*
X52028138Y-33455974D02*
X51983385Y-33411222D01*
X51983385Y-33411222D02*
X51938633Y-33321717D01*
X51938633Y-33321717D02*
X51938633Y-33142708D01*
X51938633Y-33142708D02*
X51983385Y-33053203D01*
X51983385Y-33053203D02*
X52028138Y-33008450D01*
X52028138Y-33008450D02*
X52117642Y-32963698D01*
X32592686Y-52368834D02*
X32592686Y-52731691D01*
X32592686Y-52550263D02*
X33227686Y-52550263D01*
X33227686Y-52550263D02*
X33136972Y-52610739D01*
X33136972Y-52610739D02*
X33076496Y-52671215D01*
X33076496Y-52671215D02*
X33046258Y-52731691D01*
X33227686Y-51794310D02*
X33227686Y-52096691D01*
X33227686Y-52096691D02*
X32925305Y-52126929D01*
X32925305Y-52126929D02*
X32955544Y-52096691D01*
X32955544Y-52096691D02*
X32985782Y-52036215D01*
X32985782Y-52036215D02*
X32985782Y-51885024D01*
X32985782Y-51885024D02*
X32955544Y-51824548D01*
X32955544Y-51824548D02*
X32925305Y-51794310D01*
X32925305Y-51794310D02*
X32864829Y-51764072D01*
X32864829Y-51764072D02*
X32713639Y-51764072D01*
X32713639Y-51764072D02*
X32653163Y-51794310D01*
X32653163Y-51794310D02*
X32622925Y-51824548D01*
X32622925Y-51824548D02*
X32592686Y-51885024D01*
X32592686Y-51885024D02*
X32592686Y-52036215D01*
X32592686Y-52036215D02*
X32622925Y-52096691D01*
X32622925Y-52096691D02*
X32653163Y-52126929D01*
X36788138Y-31123603D02*
X36788138Y-31436870D01*
X37280414Y-31571127D02*
X37280414Y-31123603D01*
X37280414Y-31123603D02*
X36340614Y-31123603D01*
X36340614Y-31123603D02*
X36340614Y-31571127D01*
X37280414Y-31973898D02*
X36340614Y-31973898D01*
X36788138Y-31973898D02*
X36788138Y-32510927D01*
X37280414Y-32510927D02*
X36340614Y-32510927D01*
X37280414Y-33450727D02*
X37280414Y-32913698D01*
X37280414Y-33182212D02*
X36340614Y-33182212D01*
X36340614Y-33182212D02*
X36474871Y-33092708D01*
X36474871Y-33092708D02*
X36564376Y-33003203D01*
X36564376Y-33003203D02*
X36609128Y-32913698D01*
X66045379Y-75077689D02*
X66468713Y-75077689D01*
X65803475Y-74926498D02*
X66257046Y-74775308D01*
X66257046Y-74775308D02*
X66257046Y-75168403D01*
X65833713Y-75349832D02*
X65833713Y-75773165D01*
X65833713Y-75773165D02*
X66468713Y-75501022D01*
X65833713Y-54425070D02*
X65833713Y-54818165D01*
X65833713Y-54818165D02*
X66075617Y-54606498D01*
X66075617Y-54606498D02*
X66075617Y-54697213D01*
X66075617Y-54697213D02*
X66105855Y-54757689D01*
X66105855Y-54757689D02*
X66136094Y-54787927D01*
X66136094Y-54787927D02*
X66196570Y-54818165D01*
X66196570Y-54818165D02*
X66347760Y-54818165D01*
X66347760Y-54818165D02*
X66408236Y-54787927D01*
X66408236Y-54787927D02*
X66438475Y-54757689D01*
X66438475Y-54757689D02*
X66468713Y-54697213D01*
X66468713Y-54697213D02*
X66468713Y-54515784D01*
X66468713Y-54515784D02*
X66438475Y-54455308D01*
X66438475Y-54455308D02*
X66408236Y-54425070D01*
X66468713Y-55120546D02*
X66468713Y-55241498D01*
X66468713Y-55241498D02*
X66438475Y-55301975D01*
X66438475Y-55301975D02*
X66408236Y-55332213D01*
X66408236Y-55332213D02*
X66317522Y-55392689D01*
X66317522Y-55392689D02*
X66196570Y-55422927D01*
X66196570Y-55422927D02*
X65954665Y-55422927D01*
X65954665Y-55422927D02*
X65894189Y-55392689D01*
X65894189Y-55392689D02*
X65863951Y-55362451D01*
X65863951Y-55362451D02*
X65833713Y-55301975D01*
X65833713Y-55301975D02*
X65833713Y-55181022D01*
X65833713Y-55181022D02*
X65863951Y-55120546D01*
X65863951Y-55120546D02*
X65894189Y-55090308D01*
X65894189Y-55090308D02*
X65954665Y-55060070D01*
X65954665Y-55060070D02*
X66105855Y-55060070D01*
X66105855Y-55060070D02*
X66166332Y-55090308D01*
X66166332Y-55090308D02*
X66196570Y-55120546D01*
X66196570Y-55120546D02*
X66226808Y-55181022D01*
X66226808Y-55181022D02*
X66226808Y-55301975D01*
X66226808Y-55301975D02*
X66196570Y-55362451D01*
X66196570Y-55362451D02*
X66166332Y-55392689D01*
X66166332Y-55392689D02*
X66105855Y-55422927D01*
D12*
X39370000Y-49784000D02*
X41910000Y-49784000D01*
X62230000Y-42164000D02*
X64770000Y-42164000D01*
X52070000Y-34544000D02*
X54610000Y-34544000D01*
X52070000Y-77724000D02*
X54610000Y-77724000D01*
X57150000Y-62484000D02*
X59690000Y-62484000D01*
X39370000Y-44704000D02*
X41910000Y-44704000D01*
X72390000Y-90424000D02*
X72390000Y-92964000D01*
X44450000Y-87884000D02*
X46990000Y-87884000D01*
X44450000Y-85344000D02*
X46990000Y-85344000D01*
X31750000Y-90424000D02*
X31750000Y-92964000D01*
X57150000Y-82804000D02*
X59690000Y-82804000D01*
X44450000Y-57404000D02*
X46990000Y-57404000D01*
X44450000Y-37084000D02*
X46990000Y-37084000D01*
X67310000Y-90424000D02*
X67310000Y-92964000D01*
X62230000Y-75184000D02*
X64770000Y-75184000D01*
X62230000Y-70104000D02*
X64770000Y-70104000D01*
X69850000Y-90424000D02*
X69850000Y-92964000D01*
X62230000Y-39624000D02*
X64770000Y-39624000D01*
X44450000Y-82804000D02*
X46990000Y-82804000D01*
X34290000Y-59944000D02*
X36830000Y-59944000D01*
X52070000Y-67564000D02*
X54610000Y-67564000D01*
X34290000Y-77724000D02*
X36830000Y-77724000D01*
X34290000Y-44704000D02*
X36830000Y-44704000D01*
X54610000Y-90424000D02*
X54610000Y-92964000D01*
X39370000Y-87884000D02*
X41910000Y-87884000D01*
X62230000Y-59944000D02*
X64770000Y-59944000D01*
X41910000Y-90424000D02*
X41910000Y-92964000D01*
X52070000Y-39624000D02*
X54610000Y-39624000D01*
X44450000Y-65024000D02*
X46990000Y-65024000D01*
X52070000Y-80264000D02*
X54610000Y-80264000D01*
X57150000Y-67564000D02*
X59690000Y-67564000D01*
X34290000Y-82804000D02*
X36830000Y-82804000D01*
X32010000Y-87884000D02*
X29210000Y-87884000D01*
X52070000Y-90424000D02*
X52070000Y-92964000D01*
X67290000Y-87884000D02*
X69850000Y-87884000D01*
X57150000Y-44704000D02*
X59690000Y-44704000D01*
X39370000Y-90424000D02*
X39370000Y-92964000D01*
X39370000Y-52324000D02*
X41910000Y-52324000D01*
X57150000Y-77724000D02*
X59690000Y-77724000D01*
X44450000Y-90424000D02*
X44450000Y-92964000D01*
X57150000Y-49784000D02*
X59690000Y-49784000D01*
X57150000Y-42164000D02*
X59690000Y-42164000D01*
X52070000Y-85344000D02*
X54610000Y-85344000D01*
X52070000Y-87884000D02*
X54610000Y-87884000D01*
X34290000Y-57404000D02*
X36830000Y-57404000D01*
X52070000Y-59944000D02*
X54610000Y-59944000D01*
X72390000Y-87884000D02*
X72390000Y-34544000D01*
X57150000Y-57404000D02*
X59690000Y-57404000D01*
X59690000Y-90424000D02*
X59690000Y-92964000D01*
X29210000Y-87884000D02*
X26670000Y-87884000D01*
X52070000Y-57404000D02*
X54610000Y-57404000D01*
X62230000Y-80264000D02*
X64770000Y-80264000D01*
X62230000Y-62484000D02*
X64770000Y-62484000D01*
X62230000Y-44704000D02*
X64770000Y-44704000D01*
X69850000Y-87884000D02*
X72390000Y-87884000D01*
X62230000Y-52324000D02*
X64770000Y-52324000D01*
X34290000Y-90424000D02*
X34290000Y-92964000D01*
X44450000Y-39624000D02*
X46990000Y-39624000D01*
X39370000Y-59944000D02*
X41910000Y-59944000D01*
X57150000Y-85344000D02*
X59690000Y-85344000D01*
X44450000Y-77724000D02*
X46990000Y-77724000D01*
X39370000Y-37084000D02*
X41910000Y-37084000D01*
X29210000Y-90424000D02*
X29210000Y-92964000D01*
X39370000Y-34544000D02*
X41910000Y-34544000D01*
X52070000Y-37084000D02*
X54610000Y-37084000D01*
X62230000Y-72644000D02*
X64770000Y-72644000D01*
X39370000Y-75184000D02*
X41910000Y-75184000D01*
X44450000Y-62484000D02*
X46990000Y-62484000D01*
X39370000Y-54864000D02*
X41910000Y-54864000D01*
X49530000Y-90424000D02*
X49530000Y-92964000D01*
X34290000Y-80264000D02*
X36830000Y-80264000D01*
X34290000Y-70104000D02*
X36830000Y-70104000D01*
X44450000Y-44704000D02*
X46990000Y-44704000D01*
X34290000Y-52324000D02*
X36830000Y-52324000D01*
X62230000Y-54864000D02*
X64770000Y-54864000D01*
X52070000Y-44704000D02*
X54610000Y-44704000D01*
X52070000Y-70104000D02*
X54610000Y-70104000D01*
X52070000Y-54864000D02*
X54610000Y-54864000D01*
X62230000Y-65024000D02*
X64770000Y-65024000D01*
X34290000Y-87884000D02*
X36830000Y-87884000D01*
X44450000Y-42164000D02*
X46990000Y-42164000D01*
X39370000Y-77724000D02*
X41910000Y-77724000D01*
X52070000Y-65024000D02*
X54610000Y-65024000D01*
X39370000Y-85344000D02*
X41910000Y-85344000D01*
X39370000Y-57404000D02*
X41910000Y-57404000D01*
X44450000Y-49784000D02*
X46990000Y-49784000D01*
X52070000Y-62484000D02*
X54610000Y-62484000D01*
X39370000Y-70104000D02*
X41910000Y-70104000D01*
X52070000Y-72644000D02*
X54610000Y-72644000D01*
X62230000Y-90424000D02*
X62230000Y-92964000D01*
X44450000Y-34544000D02*
X46990000Y-34544000D01*
X34290000Y-47244000D02*
X36830000Y-47244000D01*
X44450000Y-52324000D02*
X46990000Y-52324000D01*
X44450000Y-75184000D02*
X46990000Y-75184000D01*
X57150000Y-70104000D02*
X59690000Y-70104000D01*
X34290000Y-37084000D02*
X36830000Y-37084000D01*
X69850000Y-57404000D02*
X69850000Y-34544000D01*
X57150000Y-75184000D02*
X59690000Y-75184000D01*
D10*
X72800360Y-31182308D02*
X72437503Y-30928308D01*
X72800360Y-30746879D02*
X72038360Y-30746879D01*
X72038360Y-30746879D02*
X72038360Y-31037165D01*
X72038360Y-31037165D02*
X72074646Y-31109736D01*
X72074646Y-31109736D02*
X72110932Y-31146022D01*
X72110932Y-31146022D02*
X72183503Y-31182308D01*
X72183503Y-31182308D02*
X72292360Y-31182308D01*
X72292360Y-31182308D02*
X72364932Y-31146022D01*
X72364932Y-31146022D02*
X72401217Y-31109736D01*
X72401217Y-31109736D02*
X72437503Y-31037165D01*
X72437503Y-31037165D02*
X72437503Y-30746879D01*
X72074646Y-31908022D02*
X72038360Y-31835451D01*
X72038360Y-31835451D02*
X72038360Y-31726593D01*
X72038360Y-31726593D02*
X72074646Y-31617736D01*
X72074646Y-31617736D02*
X72147217Y-31545165D01*
X72147217Y-31545165D02*
X72219789Y-31508879D01*
X72219789Y-31508879D02*
X72364932Y-31472593D01*
X72364932Y-31472593D02*
X72473789Y-31472593D01*
X72473789Y-31472593D02*
X72618932Y-31508879D01*
X72618932Y-31508879D02*
X72691503Y-31545165D01*
X72691503Y-31545165D02*
X72764075Y-31617736D01*
X72764075Y-31617736D02*
X72800360Y-31726593D01*
X72800360Y-31726593D02*
X72800360Y-31799165D01*
X72800360Y-31799165D02*
X72764075Y-31908022D01*
X72764075Y-31908022D02*
X72727789Y-31944308D01*
X72727789Y-31944308D02*
X72473789Y-31944308D01*
X72473789Y-31944308D02*
X72473789Y-31799165D01*
X72800360Y-32270879D02*
X72038360Y-32270879D01*
X72038360Y-32270879D02*
X72800360Y-32706308D01*
X72800360Y-32706308D02*
X72038360Y-32706308D01*
X72800360Y-33069165D02*
X72038360Y-33069165D01*
X72038360Y-33069165D02*
X72038360Y-33250594D01*
X72038360Y-33250594D02*
X72074646Y-33359451D01*
X72074646Y-33359451D02*
X72147217Y-33432022D01*
X72147217Y-33432022D02*
X72219789Y-33468308D01*
X72219789Y-33468308D02*
X72364932Y-33504594D01*
X72364932Y-33504594D02*
X72473789Y-33504594D01*
X72473789Y-33504594D02*
X72618932Y-33468308D01*
X72618932Y-33468308D02*
X72691503Y-33432022D01*
X72691503Y-33432022D02*
X72764075Y-33359451D01*
X72764075Y-33359451D02*
X72800360Y-33250594D01*
X72800360Y-33250594D02*
X72800360Y-33069165D01*
X32503834Y-96187313D02*
X32503834Y-95552313D01*
X32503834Y-95854694D02*
X32140977Y-95854694D01*
X32140977Y-96187313D02*
X32140977Y-95552313D01*
X31717644Y-95552313D02*
X31657167Y-95552313D01*
X31657167Y-95552313D02*
X31596691Y-95582551D01*
X31596691Y-95582551D02*
X31566453Y-95612789D01*
X31566453Y-95612789D02*
X31536215Y-95673265D01*
X31536215Y-95673265D02*
X31505977Y-95794217D01*
X31505977Y-95794217D02*
X31505977Y-95945408D01*
X31505977Y-95945408D02*
X31536215Y-96066360D01*
X31536215Y-96066360D02*
X31566453Y-96126836D01*
X31566453Y-96126836D02*
X31596691Y-96157075D01*
X31596691Y-96157075D02*
X31657167Y-96187313D01*
X31657167Y-96187313D02*
X31717644Y-96187313D01*
X31717644Y-96187313D02*
X31778120Y-96157075D01*
X31778120Y-96157075D02*
X31808358Y-96126836D01*
X31808358Y-96126836D02*
X31838596Y-96066360D01*
X31838596Y-96066360D02*
X31868834Y-95945408D01*
X31868834Y-95945408D02*
X31868834Y-95794217D01*
X31868834Y-95794217D02*
X31838596Y-95673265D01*
X31838596Y-95673265D02*
X31808358Y-95612789D01*
X31808358Y-95612789D02*
X31778120Y-95582551D01*
X31778120Y-95582551D02*
X31717644Y-95552313D01*
X31294310Y-95552313D02*
X30901215Y-95552313D01*
X30901215Y-95552313D02*
X31112882Y-95794217D01*
X31112882Y-95794217D02*
X31022167Y-95794217D01*
X31022167Y-95794217D02*
X30961691Y-95824455D01*
X30961691Y-95824455D02*
X30931453Y-95854694D01*
X30931453Y-95854694D02*
X30901215Y-95915170D01*
X30901215Y-95915170D02*
X30901215Y-96066360D01*
X30901215Y-96066360D02*
X30931453Y-96126836D01*
X30931453Y-96126836D02*
X30961691Y-96157075D01*
X30961691Y-96157075D02*
X31022167Y-96187313D01*
X31022167Y-96187313D02*
X31203596Y-96187313D01*
X31203596Y-96187313D02*
X31264072Y-96157075D01*
X31264072Y-96157075D02*
X31294310Y-96126836D01*
D11*
X48505826Y-67854752D02*
X48505826Y-67200752D01*
X48505826Y-67200752D02*
X48132112Y-67854752D01*
X48132112Y-67854752D02*
X48132112Y-67200752D01*
X51076969Y-87520752D02*
X50858969Y-88174752D01*
X50858969Y-88174752D02*
X50640969Y-87520752D01*
X48069826Y-75537038D02*
X48132112Y-75505895D01*
X48132112Y-75505895D02*
X48194398Y-75443610D01*
X48194398Y-75443610D02*
X48287826Y-75350181D01*
X48287826Y-75350181D02*
X48350112Y-75319038D01*
X48350112Y-75319038D02*
X48412398Y-75319038D01*
X48381255Y-75474752D02*
X48443541Y-75443610D01*
X48443541Y-75443610D02*
X48505826Y-75381324D01*
X48505826Y-75381324D02*
X48536969Y-75256752D01*
X48536969Y-75256752D02*
X48536969Y-75038752D01*
X48536969Y-75038752D02*
X48505826Y-74914181D01*
X48505826Y-74914181D02*
X48443541Y-74851895D01*
X48443541Y-74851895D02*
X48381255Y-74820752D01*
X48381255Y-74820752D02*
X48256683Y-74820752D01*
X48256683Y-74820752D02*
X48194398Y-74851895D01*
X48194398Y-74851895D02*
X48132112Y-74914181D01*
X48132112Y-74914181D02*
X48100969Y-75038752D01*
X48100969Y-75038752D02*
X48100969Y-75256752D01*
X48100969Y-75256752D02*
X48132112Y-75381324D01*
X48132112Y-75381324D02*
X48194398Y-75443610D01*
X48194398Y-75443610D02*
X48256683Y-75474752D01*
X48256683Y-75474752D02*
X48381255Y-75474752D01*
X51045826Y-52614752D02*
X51045826Y-51960752D01*
X51045826Y-52272181D02*
X50672112Y-52272181D01*
X50672112Y-52614752D02*
X50672112Y-51960752D01*
D10*
X32592686Y-72688834D02*
X32592686Y-73051691D01*
X32592686Y-72870263D02*
X33227686Y-72870263D01*
X33227686Y-72870263D02*
X33136972Y-72930739D01*
X33136972Y-72930739D02*
X33076496Y-72991215D01*
X33076496Y-72991215D02*
X33046258Y-73051691D01*
X33227686Y-72295739D02*
X33227686Y-72235262D01*
X33227686Y-72235262D02*
X33197448Y-72174786D01*
X33197448Y-72174786D02*
X33167210Y-72144548D01*
X33167210Y-72144548D02*
X33106734Y-72114310D01*
X33106734Y-72114310D02*
X32985782Y-72084072D01*
X32985782Y-72084072D02*
X32834591Y-72084072D01*
X32834591Y-72084072D02*
X32713639Y-72114310D01*
X32713639Y-72114310D02*
X32653163Y-72144548D01*
X32653163Y-72144548D02*
X32622925Y-72174786D01*
X32622925Y-72174786D02*
X32592686Y-72235262D01*
X32592686Y-72235262D02*
X32592686Y-72295739D01*
X32592686Y-72295739D02*
X32622925Y-72356215D01*
X32622925Y-72356215D02*
X32653163Y-72386453D01*
X32653163Y-72386453D02*
X32713639Y-72416691D01*
X32713639Y-72416691D02*
X32834591Y-72446929D01*
X32834591Y-72446929D02*
X32985782Y-72446929D01*
X32985782Y-72446929D02*
X33106734Y-72416691D01*
X33106734Y-72416691D02*
X33167210Y-72386453D01*
X33167210Y-72386453D02*
X33197448Y-72356215D01*
X33197448Y-72356215D02*
X33227686Y-72295739D01*
X65833713Y-59505070D02*
X65833713Y-59898165D01*
X65833713Y-59898165D02*
X66075617Y-59686498D01*
X66075617Y-59686498D02*
X66075617Y-59777213D01*
X66075617Y-59777213D02*
X66105855Y-59837689D01*
X66105855Y-59837689D02*
X66136094Y-59867927D01*
X66136094Y-59867927D02*
X66196570Y-59898165D01*
X66196570Y-59898165D02*
X66347760Y-59898165D01*
X66347760Y-59898165D02*
X66408236Y-59867927D01*
X66408236Y-59867927D02*
X66438475Y-59837689D01*
X66438475Y-59837689D02*
X66468713Y-59777213D01*
X66468713Y-59777213D02*
X66468713Y-59595784D01*
X66468713Y-59595784D02*
X66438475Y-59535308D01*
X66438475Y-59535308D02*
X66408236Y-59505070D01*
X65833713Y-60109832D02*
X65833713Y-60533165D01*
X65833713Y-60533165D02*
X66468713Y-60261022D01*
X65833713Y-62045070D02*
X65833713Y-62438165D01*
X65833713Y-62438165D02*
X66075617Y-62226498D01*
X66075617Y-62226498D02*
X66075617Y-62317213D01*
X66075617Y-62317213D02*
X66105855Y-62377689D01*
X66105855Y-62377689D02*
X66136094Y-62407927D01*
X66136094Y-62407927D02*
X66196570Y-62438165D01*
X66196570Y-62438165D02*
X66347760Y-62438165D01*
X66347760Y-62438165D02*
X66408236Y-62407927D01*
X66408236Y-62407927D02*
X66438475Y-62377689D01*
X66438475Y-62377689D02*
X66468713Y-62317213D01*
X66468713Y-62317213D02*
X66468713Y-62135784D01*
X66468713Y-62135784D02*
X66438475Y-62075308D01*
X66438475Y-62075308D02*
X66408236Y-62045070D01*
X65833713Y-62982451D02*
X65833713Y-62861498D01*
X65833713Y-62861498D02*
X65863951Y-62801022D01*
X65863951Y-62801022D02*
X65894189Y-62770784D01*
X65894189Y-62770784D02*
X65984903Y-62710308D01*
X65984903Y-62710308D02*
X66105855Y-62680070D01*
X66105855Y-62680070D02*
X66347760Y-62680070D01*
X66347760Y-62680070D02*
X66408236Y-62710308D01*
X66408236Y-62710308D02*
X66438475Y-62740546D01*
X66438475Y-62740546D02*
X66468713Y-62801022D01*
X66468713Y-62801022D02*
X66468713Y-62921975D01*
X66468713Y-62921975D02*
X66438475Y-62982451D01*
X66438475Y-62982451D02*
X66408236Y-63012689D01*
X66408236Y-63012689D02*
X66347760Y-63042927D01*
X66347760Y-63042927D02*
X66196570Y-63042927D01*
X66196570Y-63042927D02*
X66136094Y-63012689D01*
X66136094Y-63012689D02*
X66105855Y-62982451D01*
X66105855Y-62982451D02*
X66075617Y-62921975D01*
X66075617Y-62921975D02*
X66075617Y-62801022D01*
X66075617Y-62801022D02*
X66105855Y-62740546D01*
X66105855Y-62740546D02*
X66136094Y-62710308D01*
X66136094Y-62710308D02*
X66196570Y-62680070D01*
X50283834Y-96187313D02*
X50283834Y-95552313D01*
X50283834Y-95854694D02*
X49920977Y-95854694D01*
X49920977Y-96187313D02*
X49920977Y-95552313D01*
X49285977Y-96187313D02*
X49648834Y-96187313D01*
X49467406Y-96187313D02*
X49467406Y-95552313D01*
X49467406Y-95552313D02*
X49527882Y-95643027D01*
X49527882Y-95643027D02*
X49588358Y-95703503D01*
X49588358Y-95703503D02*
X49648834Y-95733741D01*
X48892882Y-95552313D02*
X48832405Y-95552313D01*
X48832405Y-95552313D02*
X48771929Y-95582551D01*
X48771929Y-95582551D02*
X48741691Y-95612789D01*
X48741691Y-95612789D02*
X48711453Y-95673265D01*
X48711453Y-95673265D02*
X48681215Y-95794217D01*
X48681215Y-95794217D02*
X48681215Y-95945408D01*
X48681215Y-95945408D02*
X48711453Y-96066360D01*
X48711453Y-96066360D02*
X48741691Y-96126836D01*
X48741691Y-96126836D02*
X48771929Y-96157075D01*
X48771929Y-96157075D02*
X48832405Y-96187313D01*
X48832405Y-96187313D02*
X48892882Y-96187313D01*
X48892882Y-96187313D02*
X48953358Y-96157075D01*
X48953358Y-96157075D02*
X48983596Y-96126836D01*
X48983596Y-96126836D02*
X49013834Y-96066360D01*
X49013834Y-96066360D02*
X49044072Y-95945408D01*
X49044072Y-95945408D02*
X49044072Y-95794217D01*
X49044072Y-95794217D02*
X49013834Y-95673265D01*
X49013834Y-95673265D02*
X48983596Y-95612789D01*
X48983596Y-95612789D02*
X48953358Y-95582551D01*
X48953358Y-95582551D02*
X48892882Y-95552313D01*
X32592686Y-39895620D02*
X32895067Y-40107287D01*
X32592686Y-40258477D02*
X33227686Y-40258477D01*
X33227686Y-40258477D02*
X33227686Y-40016572D01*
X33227686Y-40016572D02*
X33197448Y-39956096D01*
X33197448Y-39956096D02*
X33167210Y-39925858D01*
X33167210Y-39925858D02*
X33106734Y-39895620D01*
X33106734Y-39895620D02*
X33016020Y-39895620D01*
X33016020Y-39895620D02*
X32955544Y-39925858D01*
X32955544Y-39925858D02*
X32925305Y-39956096D01*
X32925305Y-39956096D02*
X32895067Y-40016572D01*
X32895067Y-40016572D02*
X32895067Y-40258477D01*
X32622925Y-39653715D02*
X32592686Y-39563001D01*
X32592686Y-39563001D02*
X32592686Y-39411810D01*
X32592686Y-39411810D02*
X32622925Y-39351334D01*
X32622925Y-39351334D02*
X32653163Y-39321096D01*
X32653163Y-39321096D02*
X32713639Y-39290858D01*
X32713639Y-39290858D02*
X32774115Y-39290858D01*
X32774115Y-39290858D02*
X32834591Y-39321096D01*
X32834591Y-39321096D02*
X32864829Y-39351334D01*
X32864829Y-39351334D02*
X32895067Y-39411810D01*
X32895067Y-39411810D02*
X32925305Y-39532763D01*
X32925305Y-39532763D02*
X32955544Y-39593239D01*
X32955544Y-39593239D02*
X32985782Y-39623477D01*
X32985782Y-39623477D02*
X33046258Y-39653715D01*
X33046258Y-39653715D02*
X33106734Y-39653715D01*
X33106734Y-39653715D02*
X33167210Y-39623477D01*
X33167210Y-39623477D02*
X33197448Y-39593239D01*
X33197448Y-39593239D02*
X33227686Y-39532763D01*
X33227686Y-39532763D02*
X33227686Y-39381572D01*
X33227686Y-39381572D02*
X33197448Y-39290858D01*
X33227686Y-39109429D02*
X33227686Y-38746572D01*
X32592686Y-38928001D02*
X33227686Y-38928001D01*
X33227686Y-49919548D02*
X33227686Y-49496215D01*
X33227686Y-49496215D02*
X32592686Y-49768358D01*
D11*
X50921255Y-69740752D02*
X50796683Y-69740752D01*
X50796683Y-69740752D02*
X50734398Y-69771895D01*
X50734398Y-69771895D02*
X50672112Y-69834181D01*
X50672112Y-69834181D02*
X50640969Y-69958752D01*
X50640969Y-69958752D02*
X50640969Y-70176752D01*
X50640969Y-70176752D02*
X50672112Y-70301324D01*
X50672112Y-70301324D02*
X50734398Y-70363610D01*
X50734398Y-70363610D02*
X50796683Y-70394752D01*
X50796683Y-70394752D02*
X50921255Y-70394752D01*
X50921255Y-70394752D02*
X50983541Y-70363610D01*
X50983541Y-70363610D02*
X51045826Y-70301324D01*
X51045826Y-70301324D02*
X51076969Y-70176752D01*
X51076969Y-70176752D02*
X51076969Y-69958752D01*
X51076969Y-69958752D02*
X51045826Y-69834181D01*
X51045826Y-69834181D02*
X50983541Y-69771895D01*
X50983541Y-69771895D02*
X50921255Y-69740752D01*
X48505826Y-80523610D02*
X48412398Y-80554752D01*
X48412398Y-80554752D02*
X48256683Y-80554752D01*
X48256683Y-80554752D02*
X48194398Y-80523610D01*
X48194398Y-80523610D02*
X48163255Y-80492467D01*
X48163255Y-80492467D02*
X48132112Y-80430181D01*
X48132112Y-80430181D02*
X48132112Y-80367895D01*
X48132112Y-80367895D02*
X48163255Y-80305610D01*
X48163255Y-80305610D02*
X48194398Y-80274467D01*
X48194398Y-80274467D02*
X48256683Y-80243324D01*
X48256683Y-80243324D02*
X48381255Y-80212181D01*
X48381255Y-80212181D02*
X48443540Y-80181038D01*
X48443540Y-80181038D02*
X48474683Y-80149895D01*
X48474683Y-80149895D02*
X48505826Y-80087610D01*
X48505826Y-80087610D02*
X48505826Y-80025324D01*
X48505826Y-80025324D02*
X48474683Y-79963038D01*
X48474683Y-79963038D02*
X48443540Y-79931895D01*
X48443540Y-79931895D02*
X48381255Y-79900752D01*
X48381255Y-79900752D02*
X48225540Y-79900752D01*
X48225540Y-79900752D02*
X48132112Y-79931895D01*
D10*
X32592686Y-70148834D02*
X32592686Y-70027882D01*
X32592686Y-70027882D02*
X32622925Y-69967405D01*
X32622925Y-69967405D02*
X32653163Y-69937167D01*
X32653163Y-69937167D02*
X32743877Y-69876691D01*
X32743877Y-69876691D02*
X32864829Y-69846453D01*
X32864829Y-69846453D02*
X33106734Y-69846453D01*
X33106734Y-69846453D02*
X33167210Y-69876691D01*
X33167210Y-69876691D02*
X33197448Y-69906929D01*
X33197448Y-69906929D02*
X33227686Y-69967405D01*
X33227686Y-69967405D02*
X33227686Y-70088358D01*
X33227686Y-70088358D02*
X33197448Y-70148834D01*
X33197448Y-70148834D02*
X33167210Y-70179072D01*
X33167210Y-70179072D02*
X33106734Y-70209310D01*
X33106734Y-70209310D02*
X32955544Y-70209310D01*
X32955544Y-70209310D02*
X32895067Y-70179072D01*
X32895067Y-70179072D02*
X32864829Y-70148834D01*
X32864829Y-70148834D02*
X32834591Y-70088358D01*
X32834591Y-70088358D02*
X32834591Y-69967405D01*
X32834591Y-69967405D02*
X32864829Y-69906929D01*
X32864829Y-69906929D02*
X32895067Y-69876691D01*
X32895067Y-69876691D02*
X32955544Y-69846453D01*
X65894189Y-44597689D02*
X65863951Y-44627927D01*
X65863951Y-44627927D02*
X65833713Y-44688403D01*
X65833713Y-44688403D02*
X65833713Y-44839594D01*
X65833713Y-44839594D02*
X65863951Y-44900070D01*
X65863951Y-44900070D02*
X65894189Y-44930308D01*
X65894189Y-44930308D02*
X65954665Y-44960546D01*
X65954665Y-44960546D02*
X66015141Y-44960546D01*
X66015141Y-44960546D02*
X66105855Y-44930308D01*
X66105855Y-44930308D02*
X66468713Y-44567451D01*
X66468713Y-44567451D02*
X66468713Y-44960546D01*
X32592686Y-75228834D02*
X32592686Y-75591691D01*
X32592686Y-75410263D02*
X33227686Y-75410263D01*
X33227686Y-75410263D02*
X33136972Y-75470739D01*
X33136972Y-75470739D02*
X33076496Y-75531215D01*
X33076496Y-75531215D02*
X33046258Y-75591691D01*
X32592686Y-74624072D02*
X32592686Y-74986929D01*
X32592686Y-74805501D02*
X33227686Y-74805501D01*
X33227686Y-74805501D02*
X33136972Y-74865977D01*
X33136972Y-74865977D02*
X33076496Y-74926453D01*
X33076496Y-74926453D02*
X33046258Y-74986929D01*
X32592686Y-57448834D02*
X32592686Y-57811691D01*
X32592686Y-57630263D02*
X33227686Y-57630263D01*
X33227686Y-57630263D02*
X33136972Y-57690739D01*
X33136972Y-57690739D02*
X33076496Y-57751215D01*
X33076496Y-57751215D02*
X33046258Y-57811691D01*
X33227686Y-57237167D02*
X33227686Y-56813834D01*
X33227686Y-56813834D02*
X32592686Y-57085977D01*
X42663834Y-96187313D02*
X42663834Y-95552313D01*
X42663834Y-95854694D02*
X42300977Y-95854694D01*
X42300977Y-96187313D02*
X42300977Y-95552313D01*
X41877644Y-95552313D02*
X41817167Y-95552313D01*
X41817167Y-95552313D02*
X41756691Y-95582551D01*
X41756691Y-95582551D02*
X41726453Y-95612789D01*
X41726453Y-95612789D02*
X41696215Y-95673265D01*
X41696215Y-95673265D02*
X41665977Y-95794217D01*
X41665977Y-95794217D02*
X41665977Y-95945408D01*
X41665977Y-95945408D02*
X41696215Y-96066360D01*
X41696215Y-96066360D02*
X41726453Y-96126836D01*
X41726453Y-96126836D02*
X41756691Y-96157075D01*
X41756691Y-96157075D02*
X41817167Y-96187313D01*
X41817167Y-96187313D02*
X41877644Y-96187313D01*
X41877644Y-96187313D02*
X41938120Y-96157075D01*
X41938120Y-96157075D02*
X41968358Y-96126836D01*
X41968358Y-96126836D02*
X41998596Y-96066360D01*
X41998596Y-96066360D02*
X42028834Y-95945408D01*
X42028834Y-95945408D02*
X42028834Y-95794217D01*
X42028834Y-95794217D02*
X41998596Y-95673265D01*
X41998596Y-95673265D02*
X41968358Y-95612789D01*
X41968358Y-95612789D02*
X41938120Y-95582551D01*
X41938120Y-95582551D02*
X41877644Y-95552313D01*
X41454310Y-95552313D02*
X41030977Y-95552313D01*
X41030977Y-95552313D02*
X41303120Y-96187313D01*
X70250360Y-30882023D02*
X69887503Y-30628023D01*
X70250360Y-30446594D02*
X69488360Y-30446594D01*
X69488360Y-30446594D02*
X69488360Y-30736880D01*
X69488360Y-30736880D02*
X69524646Y-30809451D01*
X69524646Y-30809451D02*
X69560932Y-30845737D01*
X69560932Y-30845737D02*
X69633503Y-30882023D01*
X69633503Y-30882023D02*
X69742360Y-30882023D01*
X69742360Y-30882023D02*
X69814932Y-30845737D01*
X69814932Y-30845737D02*
X69851217Y-30809451D01*
X69851217Y-30809451D02*
X69887503Y-30736880D01*
X69887503Y-30736880D02*
X69887503Y-30446594D01*
X70250360Y-31208594D02*
X69488360Y-31208594D01*
X70214075Y-31535165D02*
X70250360Y-31644023D01*
X70250360Y-31644023D02*
X70250360Y-31825451D01*
X70250360Y-31825451D02*
X70214075Y-31898023D01*
X70214075Y-31898023D02*
X70177789Y-31934308D01*
X70177789Y-31934308D02*
X70105217Y-31970594D01*
X70105217Y-31970594D02*
X70032646Y-31970594D01*
X70032646Y-31970594D02*
X69960075Y-31934308D01*
X69960075Y-31934308D02*
X69923789Y-31898023D01*
X69923789Y-31898023D02*
X69887503Y-31825451D01*
X69887503Y-31825451D02*
X69851217Y-31680308D01*
X69851217Y-31680308D02*
X69814932Y-31607737D01*
X69814932Y-31607737D02*
X69778646Y-31571451D01*
X69778646Y-31571451D02*
X69706075Y-31535165D01*
X69706075Y-31535165D02*
X69633503Y-31535165D01*
X69633503Y-31535165D02*
X69560932Y-31571451D01*
X69560932Y-31571451D02*
X69524646Y-31607737D01*
X69524646Y-31607737D02*
X69488360Y-31680308D01*
X69488360Y-31680308D02*
X69488360Y-31861737D01*
X69488360Y-31861737D02*
X69524646Y-31970594D01*
X69488360Y-32442308D02*
X69488360Y-32587451D01*
X69488360Y-32587451D02*
X69524646Y-32660022D01*
X69524646Y-32660022D02*
X69597217Y-32732594D01*
X69597217Y-32732594D02*
X69742360Y-32768879D01*
X69742360Y-32768879D02*
X69996360Y-32768879D01*
X69996360Y-32768879D02*
X70141503Y-32732594D01*
X70141503Y-32732594D02*
X70214075Y-32660022D01*
X70214075Y-32660022D02*
X70250360Y-32587451D01*
X70250360Y-32587451D02*
X70250360Y-32442308D01*
X70250360Y-32442308D02*
X70214075Y-32369737D01*
X70214075Y-32369737D02*
X70141503Y-32297165D01*
X70141503Y-32297165D02*
X69996360Y-32260879D01*
X69996360Y-32260879D02*
X69742360Y-32260879D01*
X69742360Y-32260879D02*
X69597217Y-32297165D01*
X69597217Y-32297165D02*
X69524646Y-32369737D01*
X69524646Y-32369737D02*
X69488360Y-32442308D01*
X69560932Y-33059165D02*
X69524646Y-33095451D01*
X69524646Y-33095451D02*
X69488360Y-33168023D01*
X69488360Y-33168023D02*
X69488360Y-33349451D01*
X69488360Y-33349451D02*
X69524646Y-33422023D01*
X69524646Y-33422023D02*
X69560932Y-33458308D01*
X69560932Y-33458308D02*
X69633503Y-33494594D01*
X69633503Y-33494594D02*
X69706075Y-33494594D01*
X69706075Y-33494594D02*
X69814932Y-33458308D01*
X69814932Y-33458308D02*
X70250360Y-33022880D01*
X70250360Y-33022880D02*
X70250360Y-33494594D01*
D11*
X48225540Y-47192181D02*
X48443540Y-47192181D01*
X48443540Y-47534752D02*
X48443540Y-46880752D01*
X48443540Y-46880752D02*
X48132112Y-46880752D01*
D10*
X65833713Y-36675308D02*
X65833713Y-37038165D01*
X66468713Y-36856736D02*
X65833713Y-36856736D01*
X65833713Y-37189356D02*
X66468713Y-37612689D01*
X65833713Y-37612689D02*
X66468713Y-37189356D01*
D11*
X48490254Y-72934752D02*
X48490254Y-72280752D01*
X48490254Y-72280752D02*
X48241111Y-72280752D01*
X48241111Y-72280752D02*
X48178826Y-72311895D01*
X48178826Y-72311895D02*
X48147683Y-72343038D01*
X48147683Y-72343038D02*
X48116540Y-72405324D01*
X48116540Y-72405324D02*
X48116540Y-72498752D01*
X48116540Y-72498752D02*
X48147683Y-72561038D01*
X48147683Y-72561038D02*
X48178826Y-72592181D01*
X48178826Y-72592181D02*
X48241111Y-72623324D01*
X48241111Y-72623324D02*
X48490254Y-72623324D01*
D10*
X27080360Y-81762595D02*
X26717503Y-81508595D01*
X27080360Y-81327166D02*
X26318360Y-81327166D01*
X26318360Y-81327166D02*
X26318360Y-81617452D01*
X26318360Y-81617452D02*
X26354646Y-81690023D01*
X26354646Y-81690023D02*
X26390932Y-81726309D01*
X26390932Y-81726309D02*
X26463503Y-81762595D01*
X26463503Y-81762595D02*
X26572360Y-81762595D01*
X26572360Y-81762595D02*
X26644932Y-81726309D01*
X26644932Y-81726309D02*
X26681217Y-81690023D01*
X26681217Y-81690023D02*
X26717503Y-81617452D01*
X26717503Y-81617452D02*
X26717503Y-81327166D01*
X26318360Y-82016595D02*
X26318360Y-82488309D01*
X26318360Y-82488309D02*
X26608646Y-82234309D01*
X26608646Y-82234309D02*
X26608646Y-82343166D01*
X26608646Y-82343166D02*
X26644932Y-82415738D01*
X26644932Y-82415738D02*
X26681217Y-82452023D01*
X26681217Y-82452023D02*
X26753789Y-82488309D01*
X26753789Y-82488309D02*
X26935217Y-82488309D01*
X26935217Y-82488309D02*
X27007789Y-82452023D01*
X27007789Y-82452023D02*
X27044075Y-82415738D01*
X27044075Y-82415738D02*
X27080360Y-82343166D01*
X27080360Y-82343166D02*
X27080360Y-82125452D01*
X27080360Y-82125452D02*
X27044075Y-82052880D01*
X27044075Y-82052880D02*
X27007789Y-82016595D01*
X26572360Y-82742309D02*
X27080360Y-82923737D01*
X27080360Y-82923737D02*
X26572360Y-83105166D01*
X26318360Y-83322880D02*
X26318360Y-83794594D01*
X26318360Y-83794594D02*
X26608646Y-83540594D01*
X26608646Y-83540594D02*
X26608646Y-83649451D01*
X26608646Y-83649451D02*
X26644932Y-83722023D01*
X26644932Y-83722023D02*
X26681217Y-83758308D01*
X26681217Y-83758308D02*
X26753789Y-83794594D01*
X26753789Y-83794594D02*
X26935217Y-83794594D01*
X26935217Y-83794594D02*
X27007789Y-83758308D01*
X27007789Y-83758308D02*
X27044075Y-83722023D01*
X27044075Y-83722023D02*
X27080360Y-83649451D01*
X27080360Y-83649451D02*
X27080360Y-83431737D01*
X27080360Y-83431737D02*
X27044075Y-83359165D01*
X27044075Y-83359165D02*
X27007789Y-83322880D01*
X41420614Y-32292412D02*
X41420614Y-32381917D01*
X41420614Y-32381917D02*
X41465366Y-32471421D01*
X41465366Y-32471421D02*
X41510119Y-32516174D01*
X41510119Y-32516174D02*
X41599623Y-32560926D01*
X41599623Y-32560926D02*
X41778633Y-32605679D01*
X41778633Y-32605679D02*
X42002395Y-32605679D01*
X42002395Y-32605679D02*
X42181404Y-32560926D01*
X42181404Y-32560926D02*
X42270909Y-32516174D01*
X42270909Y-32516174D02*
X42315662Y-32471421D01*
X42315662Y-32471421D02*
X42360414Y-32381917D01*
X42360414Y-32381917D02*
X42360414Y-32292412D01*
X42360414Y-32292412D02*
X42315662Y-32202907D01*
X42315662Y-32202907D02*
X42270909Y-32158155D01*
X42270909Y-32158155D02*
X42181404Y-32113402D01*
X42181404Y-32113402D02*
X42002395Y-32068650D01*
X42002395Y-32068650D02*
X41778633Y-32068650D01*
X41778633Y-32068650D02*
X41599623Y-32113402D01*
X41599623Y-32113402D02*
X41510119Y-32158155D01*
X41510119Y-32158155D02*
X41465366Y-32202907D01*
X41465366Y-32202907D02*
X41420614Y-32292412D01*
X41510119Y-32963698D02*
X41465366Y-33008450D01*
X41465366Y-33008450D02*
X41420614Y-33097955D01*
X41420614Y-33097955D02*
X41420614Y-33321717D01*
X41420614Y-33321717D02*
X41465366Y-33411222D01*
X41465366Y-33411222D02*
X41510119Y-33455974D01*
X41510119Y-33455974D02*
X41599623Y-33500727D01*
X41599623Y-33500727D02*
X41689128Y-33500727D01*
X41689128Y-33500727D02*
X41823385Y-33455974D01*
X41823385Y-33455974D02*
X42360414Y-32918946D01*
X42360414Y-32918946D02*
X42360414Y-33500727D01*
X33016020Y-67669310D02*
X32592686Y-67669310D01*
X33257925Y-67820501D02*
X32804353Y-67971691D01*
X32804353Y-67971691D02*
X32804353Y-67578596D01*
X33227686Y-67064548D02*
X33227686Y-67185501D01*
X33227686Y-67185501D02*
X33197448Y-67245977D01*
X33197448Y-67245977D02*
X33167210Y-67276215D01*
X33167210Y-67276215D02*
X33076496Y-67336691D01*
X33076496Y-67336691D02*
X32955544Y-67366929D01*
X32955544Y-67366929D02*
X32713639Y-67366929D01*
X32713639Y-67366929D02*
X32653163Y-67336691D01*
X32653163Y-67336691D02*
X32622925Y-67306453D01*
X32622925Y-67306453D02*
X32592686Y-67245977D01*
X32592686Y-67245977D02*
X32592686Y-67125024D01*
X32592686Y-67125024D02*
X32622925Y-67064548D01*
X32622925Y-67064548D02*
X32653163Y-67034310D01*
X32653163Y-67034310D02*
X32713639Y-67004072D01*
X32713639Y-67004072D02*
X32864829Y-67004072D01*
X32864829Y-67004072D02*
X32925305Y-67034310D01*
X32925305Y-67034310D02*
X32955544Y-67064548D01*
X32955544Y-67064548D02*
X32985782Y-67125024D01*
X32985782Y-67125024D02*
X32985782Y-67245977D01*
X32985782Y-67245977D02*
X32955544Y-67306453D01*
X32955544Y-67306453D02*
X32925305Y-67336691D01*
X32925305Y-67336691D02*
X32864829Y-67366929D01*
X33197448Y-88291691D02*
X33227686Y-88352167D01*
X33227686Y-88352167D02*
X33227686Y-88442881D01*
X33227686Y-88442881D02*
X33197448Y-88533596D01*
X33197448Y-88533596D02*
X33136972Y-88594072D01*
X33136972Y-88594072D02*
X33076496Y-88624310D01*
X33076496Y-88624310D02*
X32955544Y-88654548D01*
X32955544Y-88654548D02*
X32864829Y-88654548D01*
X32864829Y-88654548D02*
X32743877Y-88624310D01*
X32743877Y-88624310D02*
X32683401Y-88594072D01*
X32683401Y-88594072D02*
X32622925Y-88533596D01*
X32622925Y-88533596D02*
X32592686Y-88442881D01*
X32592686Y-88442881D02*
X32592686Y-88382405D01*
X32592686Y-88382405D02*
X32622925Y-88291691D01*
X32622925Y-88291691D02*
X32653163Y-88261453D01*
X32653163Y-88261453D02*
X32864829Y-88261453D01*
X32864829Y-88261453D02*
X32864829Y-88382405D01*
X32592686Y-87989310D02*
X33227686Y-87989310D01*
X33227686Y-87989310D02*
X32592686Y-87626453D01*
X32592686Y-87626453D02*
X33227686Y-87626453D01*
X32592686Y-87324072D02*
X33227686Y-87324072D01*
X33227686Y-87324072D02*
X33227686Y-87172882D01*
X33227686Y-87172882D02*
X33197448Y-87082167D01*
X33197448Y-87082167D02*
X33136972Y-87021691D01*
X33136972Y-87021691D02*
X33076496Y-86991453D01*
X33076496Y-86991453D02*
X32955544Y-86961215D01*
X32955544Y-86961215D02*
X32864829Y-86961215D01*
X32864829Y-86961215D02*
X32743877Y-86991453D01*
X32743877Y-86991453D02*
X32683401Y-87021691D01*
X32683401Y-87021691D02*
X32622925Y-87082167D01*
X32622925Y-87082167D02*
X32592686Y-87172882D01*
X32592686Y-87172882D02*
X32592686Y-87324072D01*
X56660614Y-32292412D02*
X56660614Y-32381917D01*
X56660614Y-32381917D02*
X56705366Y-32471421D01*
X56705366Y-32471421D02*
X56750119Y-32516174D01*
X56750119Y-32516174D02*
X56839623Y-32560926D01*
X56839623Y-32560926D02*
X57018633Y-32605679D01*
X57018633Y-32605679D02*
X57242395Y-32605679D01*
X57242395Y-32605679D02*
X57421404Y-32560926D01*
X57421404Y-32560926D02*
X57510909Y-32516174D01*
X57510909Y-32516174D02*
X57555662Y-32471421D01*
X57555662Y-32471421D02*
X57600414Y-32381917D01*
X57600414Y-32381917D02*
X57600414Y-32292412D01*
X57600414Y-32292412D02*
X57555662Y-32202907D01*
X57555662Y-32202907D02*
X57510909Y-32158155D01*
X57510909Y-32158155D02*
X57421404Y-32113402D01*
X57421404Y-32113402D02*
X57242395Y-32068650D01*
X57242395Y-32068650D02*
X57018633Y-32068650D01*
X57018633Y-32068650D02*
X56839623Y-32113402D01*
X56839623Y-32113402D02*
X56750119Y-32158155D01*
X56750119Y-32158155D02*
X56705366Y-32202907D01*
X56705366Y-32202907D02*
X56660614Y-32292412D01*
X57063385Y-33142708D02*
X57018633Y-33053203D01*
X57018633Y-33053203D02*
X56973881Y-33008450D01*
X56973881Y-33008450D02*
X56884376Y-32963698D01*
X56884376Y-32963698D02*
X56839623Y-32963698D01*
X56839623Y-32963698D02*
X56750119Y-33008450D01*
X56750119Y-33008450D02*
X56705366Y-33053203D01*
X56705366Y-33053203D02*
X56660614Y-33142708D01*
X56660614Y-33142708D02*
X56660614Y-33321717D01*
X56660614Y-33321717D02*
X56705366Y-33411222D01*
X56705366Y-33411222D02*
X56750119Y-33455974D01*
X56750119Y-33455974D02*
X56839623Y-33500727D01*
X56839623Y-33500727D02*
X56884376Y-33500727D01*
X56884376Y-33500727D02*
X56973881Y-33455974D01*
X56973881Y-33455974D02*
X57018633Y-33411222D01*
X57018633Y-33411222D02*
X57063385Y-33321717D01*
X57063385Y-33321717D02*
X57063385Y-33142708D01*
X57063385Y-33142708D02*
X57108138Y-33053203D01*
X57108138Y-33053203D02*
X57152890Y-33008450D01*
X57152890Y-33008450D02*
X57242395Y-32963698D01*
X57242395Y-32963698D02*
X57421404Y-32963698D01*
X57421404Y-32963698D02*
X57510909Y-33008450D01*
X57510909Y-33008450D02*
X57555662Y-33053203D01*
X57555662Y-33053203D02*
X57600414Y-33142708D01*
X57600414Y-33142708D02*
X57600414Y-33321717D01*
X57600414Y-33321717D02*
X57555662Y-33411222D01*
X57555662Y-33411222D02*
X57510909Y-33455974D01*
X57510909Y-33455974D02*
X57421404Y-33500727D01*
X57421404Y-33500727D02*
X57242395Y-33500727D01*
X57242395Y-33500727D02*
X57152890Y-33455974D01*
X57152890Y-33455974D02*
X57108138Y-33411222D01*
X57108138Y-33411222D02*
X57063385Y-33321717D01*
X70134392Y-61404023D02*
X69771535Y-61150023D01*
X70134392Y-60968594D02*
X69372392Y-60968594D01*
X69372392Y-60968594D02*
X69372392Y-61258880D01*
X69372392Y-61258880D02*
X69408678Y-61331451D01*
X69408678Y-61331451D02*
X69444964Y-61367737D01*
X69444964Y-61367737D02*
X69517535Y-61404023D01*
X69517535Y-61404023D02*
X69626392Y-61404023D01*
X69626392Y-61404023D02*
X69698964Y-61367737D01*
X69698964Y-61367737D02*
X69735249Y-61331451D01*
X69735249Y-61331451D02*
X69771535Y-61258880D01*
X69771535Y-61258880D02*
X69771535Y-60968594D01*
X70134392Y-61730594D02*
X69372392Y-61730594D01*
X70098107Y-62057165D02*
X70134392Y-62166023D01*
X70134392Y-62166023D02*
X70134392Y-62347451D01*
X70134392Y-62347451D02*
X70098107Y-62420023D01*
X70098107Y-62420023D02*
X70061821Y-62456308D01*
X70061821Y-62456308D02*
X69989249Y-62492594D01*
X69989249Y-62492594D02*
X69916678Y-62492594D01*
X69916678Y-62492594D02*
X69844107Y-62456308D01*
X69844107Y-62456308D02*
X69807821Y-62420023D01*
X69807821Y-62420023D02*
X69771535Y-62347451D01*
X69771535Y-62347451D02*
X69735249Y-62202308D01*
X69735249Y-62202308D02*
X69698964Y-62129737D01*
X69698964Y-62129737D02*
X69662678Y-62093451D01*
X69662678Y-62093451D02*
X69590107Y-62057165D01*
X69590107Y-62057165D02*
X69517535Y-62057165D01*
X69517535Y-62057165D02*
X69444964Y-62093451D01*
X69444964Y-62093451D02*
X69408678Y-62129737D01*
X69408678Y-62129737D02*
X69372392Y-62202308D01*
X69372392Y-62202308D02*
X69372392Y-62383737D01*
X69372392Y-62383737D02*
X69408678Y-62492594D01*
X69372392Y-62964308D02*
X69372392Y-63109451D01*
X69372392Y-63109451D02*
X69408678Y-63182022D01*
X69408678Y-63182022D02*
X69481249Y-63254594D01*
X69481249Y-63254594D02*
X69626392Y-63290879D01*
X69626392Y-63290879D02*
X69880392Y-63290879D01*
X69880392Y-63290879D02*
X70025535Y-63254594D01*
X70025535Y-63254594D02*
X70098107Y-63182022D01*
X70098107Y-63182022D02*
X70134392Y-63109451D01*
X70134392Y-63109451D02*
X70134392Y-62964308D01*
X70134392Y-62964308D02*
X70098107Y-62891737D01*
X70098107Y-62891737D02*
X70025535Y-62819165D01*
X70025535Y-62819165D02*
X69880392Y-62782879D01*
X69880392Y-62782879D02*
X69626392Y-62782879D01*
X69626392Y-62782879D02*
X69481249Y-62819165D01*
X69481249Y-62819165D02*
X69408678Y-62891737D01*
X69408678Y-62891737D02*
X69372392Y-62964308D01*
X70134392Y-64016594D02*
X70134392Y-63581165D01*
X70134392Y-63798880D02*
X69372392Y-63798880D01*
X69372392Y-63798880D02*
X69481249Y-63726308D01*
X69481249Y-63726308D02*
X69553821Y-63653737D01*
X69553821Y-63653737D02*
X69590107Y-63581165D01*
X49040614Y-32292412D02*
X49040614Y-32381917D01*
X49040614Y-32381917D02*
X49085366Y-32471421D01*
X49085366Y-32471421D02*
X49130119Y-32516174D01*
X49130119Y-32516174D02*
X49219623Y-32560926D01*
X49219623Y-32560926D02*
X49398633Y-32605679D01*
X49398633Y-32605679D02*
X49622395Y-32605679D01*
X49622395Y-32605679D02*
X49801404Y-32560926D01*
X49801404Y-32560926D02*
X49890909Y-32516174D01*
X49890909Y-32516174D02*
X49935662Y-32471421D01*
X49935662Y-32471421D02*
X49980414Y-32381917D01*
X49980414Y-32381917D02*
X49980414Y-32292412D01*
X49980414Y-32292412D02*
X49935662Y-32202907D01*
X49935662Y-32202907D02*
X49890909Y-32158155D01*
X49890909Y-32158155D02*
X49801404Y-32113402D01*
X49801404Y-32113402D02*
X49622395Y-32068650D01*
X49622395Y-32068650D02*
X49398633Y-32068650D01*
X49398633Y-32068650D02*
X49219623Y-32113402D01*
X49219623Y-32113402D02*
X49130119Y-32158155D01*
X49130119Y-32158155D02*
X49085366Y-32202907D01*
X49085366Y-32202907D02*
X49040614Y-32292412D01*
X49040614Y-33455974D02*
X49040614Y-33008450D01*
X49040614Y-33008450D02*
X49488138Y-32963698D01*
X49488138Y-32963698D02*
X49443385Y-33008450D01*
X49443385Y-33008450D02*
X49398633Y-33097955D01*
X49398633Y-33097955D02*
X49398633Y-33321717D01*
X49398633Y-33321717D02*
X49443385Y-33411222D01*
X49443385Y-33411222D02*
X49488138Y-33455974D01*
X49488138Y-33455974D02*
X49577642Y-33500727D01*
X49577642Y-33500727D02*
X49801404Y-33500727D01*
X49801404Y-33500727D02*
X49890909Y-33455974D01*
X49890909Y-33455974D02*
X49935662Y-33411222D01*
X49935662Y-33411222D02*
X49980414Y-33321717D01*
X49980414Y-33321717D02*
X49980414Y-33097955D01*
X49980414Y-33097955D02*
X49935662Y-33008450D01*
X49935662Y-33008450D02*
X49890909Y-32963698D01*
D11*
X48116540Y-78014752D02*
X48334540Y-77703324D01*
X48490254Y-78014752D02*
X48490254Y-77360752D01*
X48490254Y-77360752D02*
X48241111Y-77360752D01*
X48241111Y-77360752D02*
X48178826Y-77391895D01*
X48178826Y-77391895D02*
X48147683Y-77423038D01*
X48147683Y-77423038D02*
X48116540Y-77485324D01*
X48116540Y-77485324D02*
X48116540Y-77578752D01*
X48116540Y-77578752D02*
X48147683Y-77641038D01*
X48147683Y-77641038D02*
X48178826Y-77672181D01*
X48178826Y-77672181D02*
X48241111Y-77703324D01*
X48241111Y-77703324D02*
X48490254Y-77703324D01*
D10*
X33227686Y-65159548D02*
X33227686Y-64766453D01*
X33227686Y-64766453D02*
X32985782Y-64978120D01*
X32985782Y-64978120D02*
X32985782Y-64887405D01*
X32985782Y-64887405D02*
X32955544Y-64826929D01*
X32955544Y-64826929D02*
X32925305Y-64796691D01*
X32925305Y-64796691D02*
X32864829Y-64766453D01*
X32864829Y-64766453D02*
X32713639Y-64766453D01*
X32713639Y-64766453D02*
X32653163Y-64796691D01*
X32653163Y-64796691D02*
X32622925Y-64826929D01*
X32622925Y-64826929D02*
X32592686Y-64887405D01*
X32592686Y-64887405D02*
X32592686Y-65068834D01*
X32592686Y-65068834D02*
X32622925Y-65129310D01*
X32622925Y-65129310D02*
X32653163Y-65159548D01*
X32592686Y-77768834D02*
X32592686Y-78131691D01*
X32592686Y-77950263D02*
X33227686Y-77950263D01*
X33227686Y-77950263D02*
X33136972Y-78010739D01*
X33136972Y-78010739D02*
X33076496Y-78071215D01*
X33076496Y-78071215D02*
X33046258Y-78131691D01*
X33167210Y-77526929D02*
X33197448Y-77496691D01*
X33197448Y-77496691D02*
X33227686Y-77436215D01*
X33227686Y-77436215D02*
X33227686Y-77285024D01*
X33227686Y-77285024D02*
X33197448Y-77224548D01*
X33197448Y-77224548D02*
X33167210Y-77194310D01*
X33167210Y-77194310D02*
X33106734Y-77164072D01*
X33106734Y-77164072D02*
X33046258Y-77164072D01*
X33046258Y-77164072D02*
X32955544Y-77194310D01*
X32955544Y-77194310D02*
X32592686Y-77557167D01*
X32592686Y-77557167D02*
X32592686Y-77164072D01*
X66045379Y-72537689D02*
X66468713Y-72537689D01*
X65803475Y-72386498D02*
X66257046Y-72235308D01*
X66257046Y-72235308D02*
X66257046Y-72628403D01*
X66105855Y-72961022D02*
X66075617Y-72900546D01*
X66075617Y-72900546D02*
X66045379Y-72870308D01*
X66045379Y-72870308D02*
X65984903Y-72840070D01*
X65984903Y-72840070D02*
X65954665Y-72840070D01*
X65954665Y-72840070D02*
X65894189Y-72870308D01*
X65894189Y-72870308D02*
X65863951Y-72900546D01*
X65863951Y-72900546D02*
X65833713Y-72961022D01*
X65833713Y-72961022D02*
X65833713Y-73081975D01*
X65833713Y-73081975D02*
X65863951Y-73142451D01*
X65863951Y-73142451D02*
X65894189Y-73172689D01*
X65894189Y-73172689D02*
X65954665Y-73202927D01*
X65954665Y-73202927D02*
X65984903Y-73202927D01*
X65984903Y-73202927D02*
X66045379Y-73172689D01*
X66045379Y-73172689D02*
X66075617Y-73142451D01*
X66075617Y-73142451D02*
X66105855Y-73081975D01*
X66105855Y-73081975D02*
X66105855Y-72961022D01*
X66105855Y-72961022D02*
X66136094Y-72900546D01*
X66136094Y-72900546D02*
X66166332Y-72870308D01*
X66166332Y-72870308D02*
X66226808Y-72840070D01*
X66226808Y-72840070D02*
X66347760Y-72840070D01*
X66347760Y-72840070D02*
X66408236Y-72870308D01*
X66408236Y-72870308D02*
X66438475Y-72900546D01*
X66438475Y-72900546D02*
X66468713Y-72961022D01*
X66468713Y-72961022D02*
X66468713Y-73081975D01*
X66468713Y-73081975D02*
X66438475Y-73142451D01*
X66438475Y-73142451D02*
X66408236Y-73172689D01*
X66408236Y-73172689D02*
X66347760Y-73202927D01*
X66347760Y-73202927D02*
X66226808Y-73202927D01*
X66226808Y-73202927D02*
X66166332Y-73172689D01*
X66166332Y-73172689D02*
X66136094Y-73142451D01*
X66136094Y-73142451D02*
X66105855Y-73081975D01*
D11*
X48474683Y-34647895D02*
X48163255Y-34647895D01*
X48536969Y-34834752D02*
X48318969Y-34180752D01*
X48318969Y-34180752D02*
X48100969Y-34834752D01*
D10*
X73143834Y-96187313D02*
X73143834Y-95552313D01*
X73143834Y-95854694D02*
X72780977Y-95854694D01*
X72780977Y-96187313D02*
X72780977Y-95552313D01*
X72145977Y-96187313D02*
X72508834Y-96187313D01*
X72327406Y-96187313D02*
X72327406Y-95552313D01*
X72327406Y-95552313D02*
X72387882Y-95643027D01*
X72387882Y-95643027D02*
X72448358Y-95703503D01*
X72448358Y-95703503D02*
X72508834Y-95733741D01*
X71843596Y-96187313D02*
X71722644Y-96187313D01*
X71722644Y-96187313D02*
X71662167Y-96157075D01*
X71662167Y-96157075D02*
X71631929Y-96126836D01*
X71631929Y-96126836D02*
X71571453Y-96036122D01*
X71571453Y-96036122D02*
X71541215Y-95915170D01*
X71541215Y-95915170D02*
X71541215Y-95673265D01*
X71541215Y-95673265D02*
X71571453Y-95612789D01*
X71571453Y-95612789D02*
X71601691Y-95582551D01*
X71601691Y-95582551D02*
X71662167Y-95552313D01*
X71662167Y-95552313D02*
X71783120Y-95552313D01*
X71783120Y-95552313D02*
X71843596Y-95582551D01*
X71843596Y-95582551D02*
X71873834Y-95612789D01*
X71873834Y-95612789D02*
X71904072Y-95673265D01*
X71904072Y-95673265D02*
X71904072Y-95824455D01*
X71904072Y-95824455D02*
X71873834Y-95884932D01*
X71873834Y-95884932D02*
X71843596Y-95915170D01*
X71843596Y-95915170D02*
X71783120Y-95945408D01*
X71783120Y-95945408D02*
X71662167Y-95945408D01*
X71662167Y-95945408D02*
X71601691Y-95915170D01*
X71601691Y-95915170D02*
X71571453Y-95884932D01*
X71571453Y-95884932D02*
X71541215Y-95824455D01*
X58121338Y-22761875D02*
X57987081Y-22806627D01*
X57987081Y-22806627D02*
X57763319Y-22806627D01*
X57763319Y-22806627D02*
X57673814Y-22761875D01*
X57673814Y-22761875D02*
X57629062Y-22717122D01*
X57629062Y-22717122D02*
X57584309Y-22627617D01*
X57584309Y-22627617D02*
X57584309Y-22538113D01*
X57584309Y-22538113D02*
X57629062Y-22448608D01*
X57629062Y-22448608D02*
X57673814Y-22403855D01*
X57673814Y-22403855D02*
X57763319Y-22359103D01*
X57763319Y-22359103D02*
X57942328Y-22314351D01*
X57942328Y-22314351D02*
X58031833Y-22269598D01*
X58031833Y-22269598D02*
X58076586Y-22224846D01*
X58076586Y-22224846D02*
X58121338Y-22135341D01*
X58121338Y-22135341D02*
X58121338Y-22045836D01*
X58121338Y-22045836D02*
X58076586Y-21956332D01*
X58076586Y-21956332D02*
X58031833Y-21911579D01*
X58031833Y-21911579D02*
X57942328Y-21866827D01*
X57942328Y-21866827D02*
X57718567Y-21866827D01*
X57718567Y-21866827D02*
X57584309Y-21911579D01*
X57271042Y-21866827D02*
X57047280Y-22806627D01*
X57047280Y-22806627D02*
X56868271Y-22135341D01*
X56868271Y-22135341D02*
X56689261Y-22806627D01*
X56689261Y-22806627D02*
X56465500Y-21866827D01*
X56331243Y-22896132D02*
X55615204Y-22896132D01*
X55078176Y-22314351D02*
X54943919Y-22359103D01*
X54943919Y-22359103D02*
X54899166Y-22403855D01*
X54899166Y-22403855D02*
X54854414Y-22493360D01*
X54854414Y-22493360D02*
X54854414Y-22627617D01*
X54854414Y-22627617D02*
X54899166Y-22717122D01*
X54899166Y-22717122D02*
X54943919Y-22761875D01*
X54943919Y-22761875D02*
X55033424Y-22806627D01*
X55033424Y-22806627D02*
X55391443Y-22806627D01*
X55391443Y-22806627D02*
X55391443Y-21866827D01*
X55391443Y-21866827D02*
X55078176Y-21866827D01*
X55078176Y-21866827D02*
X54988671Y-21911579D01*
X54988671Y-21911579D02*
X54943919Y-21956332D01*
X54943919Y-21956332D02*
X54899166Y-22045836D01*
X54899166Y-22045836D02*
X54899166Y-22135341D01*
X54899166Y-22135341D02*
X54943919Y-22224846D01*
X54943919Y-22224846D02*
X54988671Y-22269598D01*
X54988671Y-22269598D02*
X55078176Y-22314351D01*
X55078176Y-22314351D02*
X55391443Y-22314351D01*
X54272633Y-21866827D02*
X54093624Y-21866827D01*
X54093624Y-21866827D02*
X54004119Y-21911579D01*
X54004119Y-21911579D02*
X53914614Y-22001084D01*
X53914614Y-22001084D02*
X53869862Y-22180094D01*
X53869862Y-22180094D02*
X53869862Y-22493360D01*
X53869862Y-22493360D02*
X53914614Y-22672370D01*
X53914614Y-22672370D02*
X54004119Y-22761875D01*
X54004119Y-22761875D02*
X54093624Y-22806627D01*
X54093624Y-22806627D02*
X54272633Y-22806627D01*
X54272633Y-22806627D02*
X54362138Y-22761875D01*
X54362138Y-22761875D02*
X54451643Y-22672370D01*
X54451643Y-22672370D02*
X54496395Y-22493360D01*
X54496395Y-22493360D02*
X54496395Y-22180094D01*
X54496395Y-22180094D02*
X54451643Y-22001084D01*
X54451643Y-22001084D02*
X54362138Y-21911579D01*
X54362138Y-21911579D02*
X54272633Y-21866827D01*
X53288081Y-21866827D02*
X53109072Y-21866827D01*
X53109072Y-21866827D02*
X53019567Y-21911579D01*
X53019567Y-21911579D02*
X52930062Y-22001084D01*
X52930062Y-22001084D02*
X52885310Y-22180094D01*
X52885310Y-22180094D02*
X52885310Y-22493360D01*
X52885310Y-22493360D02*
X52930062Y-22672370D01*
X52930062Y-22672370D02*
X53019567Y-22761875D01*
X53019567Y-22761875D02*
X53109072Y-22806627D01*
X53109072Y-22806627D02*
X53288081Y-22806627D01*
X53288081Y-22806627D02*
X53377586Y-22761875D01*
X53377586Y-22761875D02*
X53467091Y-22672370D01*
X53467091Y-22672370D02*
X53511843Y-22493360D01*
X53511843Y-22493360D02*
X53511843Y-22180094D01*
X53511843Y-22180094D02*
X53467091Y-22001084D01*
X53467091Y-22001084D02*
X53377586Y-21911579D01*
X53377586Y-21911579D02*
X53288081Y-21866827D01*
X52616796Y-21866827D02*
X52079767Y-21866827D01*
X52348281Y-22806627D02*
X52348281Y-21866827D01*
X65863951Y-34135308D02*
X65833713Y-34074832D01*
X65833713Y-34074832D02*
X65833713Y-33984118D01*
X65833713Y-33984118D02*
X65863951Y-33893403D01*
X65863951Y-33893403D02*
X65924427Y-33832927D01*
X65924427Y-33832927D02*
X65984903Y-33802689D01*
X65984903Y-33802689D02*
X66105855Y-33772451D01*
X66105855Y-33772451D02*
X66196570Y-33772451D01*
X66196570Y-33772451D02*
X66317522Y-33802689D01*
X66317522Y-33802689D02*
X66377998Y-33832927D01*
X66377998Y-33832927D02*
X66438475Y-33893403D01*
X66438475Y-33893403D02*
X66468713Y-33984118D01*
X66468713Y-33984118D02*
X66468713Y-34044594D01*
X66468713Y-34044594D02*
X66438475Y-34135308D01*
X66438475Y-34135308D02*
X66408236Y-34165546D01*
X66408236Y-34165546D02*
X66196570Y-34165546D01*
X66196570Y-34165546D02*
X66196570Y-34044594D01*
X66468713Y-34437689D02*
X65833713Y-34437689D01*
X65833713Y-34437689D02*
X66468713Y-34800546D01*
X66468713Y-34800546D02*
X65833713Y-34800546D01*
X66468713Y-35102927D02*
X65833713Y-35102927D01*
X65833713Y-35102927D02*
X65833713Y-35254117D01*
X65833713Y-35254117D02*
X65863951Y-35344832D01*
X65863951Y-35344832D02*
X65924427Y-35405308D01*
X65924427Y-35405308D02*
X65984903Y-35435546D01*
X65984903Y-35435546D02*
X66105855Y-35465784D01*
X66105855Y-35465784D02*
X66196570Y-35465784D01*
X66196570Y-35465784D02*
X66317522Y-35435546D01*
X66317522Y-35435546D02*
X66377998Y-35405308D01*
X66377998Y-35405308D02*
X66438475Y-35344832D01*
X66438475Y-35344832D02*
X66468713Y-35254117D01*
X66468713Y-35254117D02*
X66468713Y-35102927D01*
X68063834Y-96187313D02*
X68063834Y-95552313D01*
X68063834Y-95854694D02*
X67700977Y-95854694D01*
X67700977Y-96187313D02*
X67700977Y-95552313D01*
X67065977Y-96187313D02*
X67428834Y-96187313D01*
X67247406Y-96187313D02*
X67247406Y-95552313D01*
X67247406Y-95552313D02*
X67307882Y-95643027D01*
X67307882Y-95643027D02*
X67368358Y-95703503D01*
X67368358Y-95703503D02*
X67428834Y-95733741D01*
X66854310Y-95552313D02*
X66430977Y-95552313D01*
X66430977Y-95552313D02*
X66703120Y-96187313D01*
D11*
X48116541Y-62774752D02*
X48427969Y-62774752D01*
X48427969Y-62774752D02*
X48427969Y-62120752D01*
D10*
X66468713Y-82758165D02*
X66468713Y-82395308D01*
X66468713Y-82576736D02*
X65833713Y-82576736D01*
X65833713Y-82576736D02*
X65924427Y-82516260D01*
X65924427Y-82516260D02*
X65984903Y-82455784D01*
X65984903Y-82455784D02*
X66015141Y-82395308D01*
X66468713Y-83060546D02*
X66468713Y-83181498D01*
X66468713Y-83181498D02*
X66438475Y-83241975D01*
X66438475Y-83241975D02*
X66408236Y-83272213D01*
X66408236Y-83272213D02*
X66317522Y-83332689D01*
X66317522Y-83332689D02*
X66196570Y-83362927D01*
X66196570Y-83362927D02*
X65954665Y-83362927D01*
X65954665Y-83362927D02*
X65894189Y-83332689D01*
X65894189Y-83332689D02*
X65863951Y-83302451D01*
X65863951Y-83302451D02*
X65833713Y-83241975D01*
X65833713Y-83241975D02*
X65833713Y-83121022D01*
X65833713Y-83121022D02*
X65863951Y-83060546D01*
X65863951Y-83060546D02*
X65894189Y-83030308D01*
X65894189Y-83030308D02*
X65954665Y-83000070D01*
X65954665Y-83000070D02*
X66105855Y-83000070D01*
X66105855Y-83000070D02*
X66166332Y-83030308D01*
X66166332Y-83030308D02*
X66196570Y-83060546D01*
X66196570Y-83060546D02*
X66226808Y-83121022D01*
X66226808Y-83121022D02*
X66226808Y-83241975D01*
X66226808Y-83241975D02*
X66196570Y-83302451D01*
X66196570Y-83302451D02*
X66166332Y-83332689D01*
X66166332Y-83332689D02*
X66105855Y-83362927D01*
X38880614Y-32292412D02*
X38880614Y-32381917D01*
X38880614Y-32381917D02*
X38925366Y-32471421D01*
X38925366Y-32471421D02*
X38970119Y-32516174D01*
X38970119Y-32516174D02*
X39059623Y-32560926D01*
X39059623Y-32560926D02*
X39238633Y-32605679D01*
X39238633Y-32605679D02*
X39462395Y-32605679D01*
X39462395Y-32605679D02*
X39641404Y-32560926D01*
X39641404Y-32560926D02*
X39730909Y-32516174D01*
X39730909Y-32516174D02*
X39775662Y-32471421D01*
X39775662Y-32471421D02*
X39820414Y-32381917D01*
X39820414Y-32381917D02*
X39820414Y-32292412D01*
X39820414Y-32292412D02*
X39775662Y-32202907D01*
X39775662Y-32202907D02*
X39730909Y-32158155D01*
X39730909Y-32158155D02*
X39641404Y-32113402D01*
X39641404Y-32113402D02*
X39462395Y-32068650D01*
X39462395Y-32068650D02*
X39238633Y-32068650D01*
X39238633Y-32068650D02*
X39059623Y-32113402D01*
X39059623Y-32113402D02*
X38970119Y-32158155D01*
X38970119Y-32158155D02*
X38925366Y-32202907D01*
X38925366Y-32202907D02*
X38880614Y-32292412D01*
X39820414Y-33500727D02*
X39820414Y-32963698D01*
X39820414Y-33232212D02*
X38880614Y-33232212D01*
X38880614Y-33232212D02*
X39014871Y-33142708D01*
X39014871Y-33142708D02*
X39104376Y-33053203D01*
X39104376Y-33053203D02*
X39149128Y-32963698D01*
X59200614Y-32292412D02*
X59200614Y-32381917D01*
X59200614Y-32381917D02*
X59245366Y-32471421D01*
X59245366Y-32471421D02*
X59290119Y-32516174D01*
X59290119Y-32516174D02*
X59379623Y-32560926D01*
X59379623Y-32560926D02*
X59558633Y-32605679D01*
X59558633Y-32605679D02*
X59782395Y-32605679D01*
X59782395Y-32605679D02*
X59961404Y-32560926D01*
X59961404Y-32560926D02*
X60050909Y-32516174D01*
X60050909Y-32516174D02*
X60095662Y-32471421D01*
X60095662Y-32471421D02*
X60140414Y-32381917D01*
X60140414Y-32381917D02*
X60140414Y-32292412D01*
X60140414Y-32292412D02*
X60095662Y-32202907D01*
X60095662Y-32202907D02*
X60050909Y-32158155D01*
X60050909Y-32158155D02*
X59961404Y-32113402D01*
X59961404Y-32113402D02*
X59782395Y-32068650D01*
X59782395Y-32068650D02*
X59558633Y-32068650D01*
X59558633Y-32068650D02*
X59379623Y-32113402D01*
X59379623Y-32113402D02*
X59290119Y-32158155D01*
X59290119Y-32158155D02*
X59245366Y-32202907D01*
X59245366Y-32202907D02*
X59200614Y-32292412D01*
X60140414Y-33053203D02*
X60140414Y-33232212D01*
X60140414Y-33232212D02*
X60095662Y-33321717D01*
X60095662Y-33321717D02*
X60050909Y-33366469D01*
X60050909Y-33366469D02*
X59916652Y-33455974D01*
X59916652Y-33455974D02*
X59737642Y-33500727D01*
X59737642Y-33500727D02*
X59379623Y-33500727D01*
X59379623Y-33500727D02*
X59290119Y-33455974D01*
X59290119Y-33455974D02*
X59245366Y-33411222D01*
X59245366Y-33411222D02*
X59200614Y-33321717D01*
X59200614Y-33321717D02*
X59200614Y-33142708D01*
X59200614Y-33142708D02*
X59245366Y-33053203D01*
X59245366Y-33053203D02*
X59290119Y-33008450D01*
X59290119Y-33008450D02*
X59379623Y-32963698D01*
X59379623Y-32963698D02*
X59603385Y-32963698D01*
X59603385Y-32963698D02*
X59692890Y-33008450D01*
X59692890Y-33008450D02*
X59737642Y-33053203D01*
X59737642Y-33053203D02*
X59782395Y-33142708D01*
X59782395Y-33142708D02*
X59782395Y-33321717D01*
X59782395Y-33321717D02*
X59737642Y-33411222D01*
X59737642Y-33411222D02*
X59692890Y-33455974D01*
X59692890Y-33455974D02*
X59603385Y-33500727D01*
X54120614Y-32292412D02*
X54120614Y-32381917D01*
X54120614Y-32381917D02*
X54165366Y-32471421D01*
X54165366Y-32471421D02*
X54210119Y-32516174D01*
X54210119Y-32516174D02*
X54299623Y-32560926D01*
X54299623Y-32560926D02*
X54478633Y-32605679D01*
X54478633Y-32605679D02*
X54702395Y-32605679D01*
X54702395Y-32605679D02*
X54881404Y-32560926D01*
X54881404Y-32560926D02*
X54970909Y-32516174D01*
X54970909Y-32516174D02*
X55015662Y-32471421D01*
X55015662Y-32471421D02*
X55060414Y-32381917D01*
X55060414Y-32381917D02*
X55060414Y-32292412D01*
X55060414Y-32292412D02*
X55015662Y-32202907D01*
X55015662Y-32202907D02*
X54970909Y-32158155D01*
X54970909Y-32158155D02*
X54881404Y-32113402D01*
X54881404Y-32113402D02*
X54702395Y-32068650D01*
X54702395Y-32068650D02*
X54478633Y-32068650D01*
X54478633Y-32068650D02*
X54299623Y-32113402D01*
X54299623Y-32113402D02*
X54210119Y-32158155D01*
X54210119Y-32158155D02*
X54165366Y-32202907D01*
X54165366Y-32202907D02*
X54120614Y-32292412D01*
X54120614Y-32918946D02*
X54120614Y-33545479D01*
X54120614Y-33545479D02*
X55060414Y-33142708D01*
X32592686Y-59988834D02*
X32592686Y-60351691D01*
X32592686Y-60170263D02*
X33227686Y-60170263D01*
X33227686Y-60170263D02*
X33136972Y-60230739D01*
X33136972Y-60230739D02*
X33076496Y-60291215D01*
X33076496Y-60291215D02*
X33046258Y-60351691D01*
X32955544Y-59625977D02*
X32985782Y-59686453D01*
X32985782Y-59686453D02*
X33016020Y-59716691D01*
X33016020Y-59716691D02*
X33076496Y-59746929D01*
X33076496Y-59746929D02*
X33106734Y-59746929D01*
X33106734Y-59746929D02*
X33167210Y-59716691D01*
X33167210Y-59716691D02*
X33197448Y-59686453D01*
X33197448Y-59686453D02*
X33227686Y-59625977D01*
X33227686Y-59625977D02*
X33227686Y-59505024D01*
X33227686Y-59505024D02*
X33197448Y-59444548D01*
X33197448Y-59444548D02*
X33167210Y-59414310D01*
X33167210Y-59414310D02*
X33106734Y-59384072D01*
X33106734Y-59384072D02*
X33076496Y-59384072D01*
X33076496Y-59384072D02*
X33016020Y-59414310D01*
X33016020Y-59414310D02*
X32985782Y-59444548D01*
X32985782Y-59444548D02*
X32955544Y-59505024D01*
X32955544Y-59505024D02*
X32955544Y-59625977D01*
X32955544Y-59625977D02*
X32925305Y-59686453D01*
X32925305Y-59686453D02*
X32895067Y-59716691D01*
X32895067Y-59716691D02*
X32834591Y-59746929D01*
X32834591Y-59746929D02*
X32713639Y-59746929D01*
X32713639Y-59746929D02*
X32653163Y-59716691D01*
X32653163Y-59716691D02*
X32622925Y-59686453D01*
X32622925Y-59686453D02*
X32592686Y-59625977D01*
X32592686Y-59625977D02*
X32592686Y-59505024D01*
X32592686Y-59505024D02*
X32622925Y-59444548D01*
X32622925Y-59444548D02*
X32653163Y-59414310D01*
X32653163Y-59414310D02*
X32713639Y-59384072D01*
X32713639Y-59384072D02*
X32834591Y-59384072D01*
X32834591Y-59384072D02*
X32895067Y-59414310D01*
X32895067Y-59414310D02*
X32925305Y-59444548D01*
X32925305Y-59444548D02*
X32955544Y-59505024D01*
D11*
X48272254Y-37032181D02*
X48178826Y-37063324D01*
X48178826Y-37063324D02*
X48147683Y-37094467D01*
X48147683Y-37094467D02*
X48116540Y-37156752D01*
X48116540Y-37156752D02*
X48116540Y-37250181D01*
X48116540Y-37250181D02*
X48147683Y-37312467D01*
X48147683Y-37312467D02*
X48178826Y-37343610D01*
X48178826Y-37343610D02*
X48241111Y-37374752D01*
X48241111Y-37374752D02*
X48490254Y-37374752D01*
X48490254Y-37374752D02*
X48490254Y-36720752D01*
X48490254Y-36720752D02*
X48272254Y-36720752D01*
X48272254Y-36720752D02*
X48209969Y-36751895D01*
X48209969Y-36751895D02*
X48178826Y-36783038D01*
X48178826Y-36783038D02*
X48147683Y-36845324D01*
X48147683Y-36845324D02*
X48147683Y-36907610D01*
X48147683Y-36907610D02*
X48178826Y-36969895D01*
X48178826Y-36969895D02*
X48209969Y-37001038D01*
X48209969Y-37001038D02*
X48272254Y-37032181D01*
X48272254Y-37032181D02*
X48490254Y-37032181D01*
X51045826Y-82440752D02*
X50672112Y-82440752D01*
X50858969Y-83094752D02*
X50858969Y-82440752D01*
D10*
X65894189Y-79855308D02*
X65863951Y-79885546D01*
X65863951Y-79885546D02*
X65833713Y-79946022D01*
X65833713Y-79946022D02*
X65833713Y-80097213D01*
X65833713Y-80097213D02*
X65863951Y-80157689D01*
X65863951Y-80157689D02*
X65894189Y-80187927D01*
X65894189Y-80187927D02*
X65954665Y-80218165D01*
X65954665Y-80218165D02*
X66015141Y-80218165D01*
X66015141Y-80218165D02*
X66105855Y-80187927D01*
X66105855Y-80187927D02*
X66468713Y-79825070D01*
X66468713Y-79825070D02*
X66468713Y-80218165D01*
X65833713Y-80611260D02*
X65833713Y-80671737D01*
X65833713Y-80671737D02*
X65863951Y-80732213D01*
X65863951Y-80732213D02*
X65894189Y-80762451D01*
X65894189Y-80762451D02*
X65954665Y-80792689D01*
X65954665Y-80792689D02*
X66075617Y-80822927D01*
X66075617Y-80822927D02*
X66226808Y-80822927D01*
X66226808Y-80822927D02*
X66347760Y-80792689D01*
X66347760Y-80792689D02*
X66408236Y-80762451D01*
X66408236Y-80762451D02*
X66438475Y-80732213D01*
X66438475Y-80732213D02*
X66468713Y-80671737D01*
X66468713Y-80671737D02*
X66468713Y-80611260D01*
X66468713Y-80611260D02*
X66438475Y-80550784D01*
X66438475Y-80550784D02*
X66408236Y-80520546D01*
X66408236Y-80520546D02*
X66347760Y-80490308D01*
X66347760Y-80490308D02*
X66226808Y-80460070D01*
X66226808Y-80460070D02*
X66075617Y-80460070D01*
X66075617Y-80460070D02*
X65954665Y-80490308D01*
X65954665Y-80490308D02*
X65894189Y-80520546D01*
X65894189Y-80520546D02*
X65863951Y-80550784D01*
X65863951Y-80550784D02*
X65833713Y-80611260D01*
D12*
X39370000Y-67564000D02*
X41910000Y-67564000D01*
X57150000Y-39624000D02*
X59690000Y-39624000D01*
X57150000Y-72644000D02*
X59690000Y-72644000D01*
X34290000Y-85344000D02*
X36830000Y-85344000D01*
X62230000Y-37084000D02*
X64770000Y-37084000D01*
X57150000Y-80264000D02*
X59690000Y-80264000D01*
X34290000Y-42164000D02*
X36830000Y-42164000D01*
X39370000Y-39624000D02*
X41910000Y-39624000D01*
X34290000Y-62484000D02*
X36830000Y-62484000D01*
X62230000Y-34544000D02*
X64770000Y-34544000D01*
X29210000Y-85344000D02*
X31990000Y-85344000D01*
X34290000Y-75184000D02*
X36830000Y-75184000D01*
X57150000Y-47244000D02*
X59690000Y-47244000D01*
X52070000Y-82804000D02*
X54610000Y-82804000D01*
X57150000Y-90424000D02*
X57150000Y-92964000D01*
X62230000Y-57404000D02*
X64770000Y-57404000D01*
X39370000Y-65024000D02*
X41910000Y-65024000D01*
X26670000Y-37084000D02*
X26670000Y-80264000D01*
X57150000Y-65024000D02*
X59690000Y-65024000D01*
X39370000Y-72644000D02*
X41910000Y-72644000D01*
X62230000Y-47244000D02*
X64770000Y-47244000D01*
X44450000Y-59944000D02*
X46990000Y-59944000D01*
X62230000Y-77724000D02*
X64770000Y-77724000D01*
X44450000Y-67564000D02*
X46990000Y-67564000D01*
X64770000Y-90424000D02*
X64770000Y-92964000D01*
X29210000Y-42164000D02*
X29210000Y-85344000D01*
X34290000Y-72644000D02*
X36830000Y-72644000D01*
X62230000Y-85344000D02*
X64770000Y-85344000D01*
X36830000Y-90424000D02*
X36830000Y-92964000D01*
X39370000Y-47244000D02*
X41910000Y-47244000D01*
X52070000Y-42164000D02*
X54610000Y-42164000D01*
X62230000Y-82804000D02*
X64770000Y-82804000D01*
X44450000Y-80264000D02*
X46990000Y-80264000D01*
D10*
X45203834Y-96187313D02*
X45203834Y-95552313D01*
X45203834Y-95854694D02*
X44840977Y-95854694D01*
X44840977Y-96187313D02*
X44840977Y-95552313D01*
X44417644Y-95552313D02*
X44357167Y-95552313D01*
X44357167Y-95552313D02*
X44296691Y-95582551D01*
X44296691Y-95582551D02*
X44266453Y-95612789D01*
X44266453Y-95612789D02*
X44236215Y-95673265D01*
X44236215Y-95673265D02*
X44205977Y-95794217D01*
X44205977Y-95794217D02*
X44205977Y-95945408D01*
X44205977Y-95945408D02*
X44236215Y-96066360D01*
X44236215Y-96066360D02*
X44266453Y-96126836D01*
X44266453Y-96126836D02*
X44296691Y-96157075D01*
X44296691Y-96157075D02*
X44357167Y-96187313D01*
X44357167Y-96187313D02*
X44417644Y-96187313D01*
X44417644Y-96187313D02*
X44478120Y-96157075D01*
X44478120Y-96157075D02*
X44508358Y-96126836D01*
X44508358Y-96126836D02*
X44538596Y-96066360D01*
X44538596Y-96066360D02*
X44568834Y-95945408D01*
X44568834Y-95945408D02*
X44568834Y-95794217D01*
X44568834Y-95794217D02*
X44538596Y-95673265D01*
X44538596Y-95673265D02*
X44508358Y-95612789D01*
X44508358Y-95612789D02*
X44478120Y-95582551D01*
X44478120Y-95582551D02*
X44417644Y-95552313D01*
X43843120Y-95824455D02*
X43903596Y-95794217D01*
X43903596Y-95794217D02*
X43933834Y-95763979D01*
X43933834Y-95763979D02*
X43964072Y-95703503D01*
X43964072Y-95703503D02*
X43964072Y-95673265D01*
X43964072Y-95673265D02*
X43933834Y-95612789D01*
X43933834Y-95612789D02*
X43903596Y-95582551D01*
X43903596Y-95582551D02*
X43843120Y-95552313D01*
X43843120Y-95552313D02*
X43722167Y-95552313D01*
X43722167Y-95552313D02*
X43661691Y-95582551D01*
X43661691Y-95582551D02*
X43631453Y-95612789D01*
X43631453Y-95612789D02*
X43601215Y-95673265D01*
X43601215Y-95673265D02*
X43601215Y-95703503D01*
X43601215Y-95703503D02*
X43631453Y-95763979D01*
X43631453Y-95763979D02*
X43661691Y-95794217D01*
X43661691Y-95794217D02*
X43722167Y-95824455D01*
X43722167Y-95824455D02*
X43843120Y-95824455D01*
X43843120Y-95824455D02*
X43903596Y-95854694D01*
X43903596Y-95854694D02*
X43933834Y-95884932D01*
X43933834Y-95884932D02*
X43964072Y-95945408D01*
X43964072Y-95945408D02*
X43964072Y-96066360D01*
X43964072Y-96066360D02*
X43933834Y-96126836D01*
X43933834Y-96126836D02*
X43903596Y-96157075D01*
X43903596Y-96157075D02*
X43843120Y-96187313D01*
X43843120Y-96187313D02*
X43722167Y-96187313D01*
X43722167Y-96187313D02*
X43661691Y-96157075D01*
X43661691Y-96157075D02*
X43631453Y-96126836D01*
X43631453Y-96126836D02*
X43601215Y-96066360D01*
X43601215Y-96066360D02*
X43601215Y-95945408D01*
X43601215Y-95945408D02*
X43631453Y-95884932D01*
X43631453Y-95884932D02*
X43661691Y-95854694D01*
X43661691Y-95854694D02*
X43722167Y-95824455D01*
X27423834Y-96187313D02*
X27423834Y-95552313D01*
X27423834Y-95854694D02*
X27060977Y-95854694D01*
X27060977Y-96187313D02*
X27060977Y-95552313D01*
X26637644Y-95552313D02*
X26577167Y-95552313D01*
X26577167Y-95552313D02*
X26516691Y-95582551D01*
X26516691Y-95582551D02*
X26486453Y-95612789D01*
X26486453Y-95612789D02*
X26456215Y-95673265D01*
X26456215Y-95673265D02*
X26425977Y-95794217D01*
X26425977Y-95794217D02*
X26425977Y-95945408D01*
X26425977Y-95945408D02*
X26456215Y-96066360D01*
X26456215Y-96066360D02*
X26486453Y-96126836D01*
X26486453Y-96126836D02*
X26516691Y-96157075D01*
X26516691Y-96157075D02*
X26577167Y-96187313D01*
X26577167Y-96187313D02*
X26637644Y-96187313D01*
X26637644Y-96187313D02*
X26698120Y-96157075D01*
X26698120Y-96157075D02*
X26728358Y-96126836D01*
X26728358Y-96126836D02*
X26758596Y-96066360D01*
X26758596Y-96066360D02*
X26788834Y-95945408D01*
X26788834Y-95945408D02*
X26788834Y-95794217D01*
X26788834Y-95794217D02*
X26758596Y-95673265D01*
X26758596Y-95673265D02*
X26728358Y-95612789D01*
X26728358Y-95612789D02*
X26698120Y-95582551D01*
X26698120Y-95582551D02*
X26637644Y-95552313D01*
X25821215Y-96187313D02*
X26184072Y-96187313D01*
X26002644Y-96187313D02*
X26002644Y-95552313D01*
X26002644Y-95552313D02*
X26063120Y-95643027D01*
X26063120Y-95643027D02*
X26123596Y-95703503D01*
X26123596Y-95703503D02*
X26184072Y-95733741D01*
X66468713Y-42420546D02*
X66468713Y-42057689D01*
X66468713Y-42239117D02*
X65833713Y-42239117D01*
X65833713Y-42239117D02*
X65924427Y-42178641D01*
X65924427Y-42178641D02*
X65984903Y-42118165D01*
X65984903Y-42118165D02*
X66015141Y-42057689D01*
D12*
X52070000Y-75184000D02*
X54610000Y-75184000D01*
X39370000Y-62484000D02*
X41910000Y-62484000D01*
X26670000Y-34544000D02*
X26670000Y-37084000D01*
X44450000Y-47244000D02*
X46990000Y-47244000D01*
X44450000Y-72644000D02*
X46990000Y-72644000D01*
X44450000Y-54864000D02*
X46990000Y-54864000D01*
X57150000Y-37084000D02*
X59690000Y-37084000D01*
X69850000Y-65024000D02*
X69850000Y-85344000D01*
X57150000Y-52324000D02*
X59690000Y-52324000D01*
X62230000Y-49784000D02*
X64770000Y-49784000D01*
X34290000Y-65024000D02*
X36830000Y-65024000D01*
X57150000Y-59944000D02*
X59690000Y-59944000D01*
X62230000Y-67564000D02*
X64770000Y-67564000D01*
X46990000Y-90424000D02*
X46990000Y-92964000D01*
X44450000Y-70104000D02*
X46990000Y-70104000D01*
X26670000Y-90424000D02*
X26670000Y-92964000D01*
X39370000Y-42164000D02*
X41910000Y-42164000D01*
X62230000Y-87884000D02*
X64770000Y-87884000D01*
X57150000Y-54864000D02*
X59690000Y-54864000D01*
X34290000Y-67564000D02*
X36830000Y-67564000D01*
X57150000Y-87884000D02*
X59690000Y-87884000D01*
X57150000Y-34544000D02*
X59690000Y-34544000D01*
X34290000Y-39624000D02*
X36830000Y-39624000D01*
X34290000Y-49784000D02*
X36830000Y-49784000D01*
X34290000Y-54864000D02*
X36830000Y-54864000D01*
X52070000Y-52324000D02*
X54610000Y-52324000D01*
X52070000Y-47244000D02*
X54610000Y-47244000D01*
X34290000Y-34544000D02*
X36830000Y-34544000D01*
X31860000Y-34544000D02*
X26670000Y-34544000D01*
X39370000Y-82804000D02*
X41910000Y-82804000D01*
X39370000Y-80264000D02*
X41910000Y-80264000D01*
X52070000Y-49784000D02*
X54610000Y-49784000D01*
%LPC*%
D13*
X72390000Y-62484000D03*
X46990000Y-54864000D03*
X52070000Y-90424000D03*
X59690000Y-52324000D03*
X64770000Y-72644000D03*
X26670000Y-59944000D03*
X69850000Y-49784000D03*
X62230000Y-75184000D03*
X69850000Y-67564000D03*
X59690000Y-67564000D03*
X36830000Y-52324000D03*
X26670000Y-77724000D03*
X39370000Y-39624000D03*
X41910000Y-44704000D03*
X46990000Y-34544000D03*
X41910000Y-59944000D03*
X59690000Y-80264000D03*
X64770000Y-39624000D03*
X72390000Y-70104000D03*
X62230000Y-44704000D03*
X29210000Y-57404000D03*
X54610000Y-65024000D03*
X26670000Y-92964000D03*
X69850000Y-80264000D03*
X34290000Y-77724000D03*
X62230000Y-90424000D03*
X62230000Y-85344000D03*
X52070000Y-80264000D03*
X59690000Y-59944000D03*
X44450000Y-62484000D03*
X69850000Y-37084000D03*
X72390000Y-75184000D03*
X72390000Y-72644000D03*
X41910000Y-49784000D03*
X57150000Y-47244000D03*
X41910000Y-65024000D03*
X69850000Y-72644000D03*
X69850000Y-82804000D03*
X44450000Y-54864000D03*
D14*
X30480000Y-37084000D03*
D13*
X46990000Y-65024000D03*
X34290000Y-82804000D03*
X41910000Y-77724000D03*
X34290000Y-44704000D03*
X36830000Y-59944000D03*
X49530000Y-37084000D03*
X72390000Y-85344000D03*
X36830000Y-54864000D03*
X57150000Y-54864000D03*
X41910000Y-80264000D03*
X39370000Y-92964000D03*
X59690000Y-75184000D03*
X39370000Y-52324000D03*
X29210000Y-72644000D03*
X49530000Y-65024000D03*
X46990000Y-49784000D03*
X39370000Y-65024000D03*
X54610000Y-57404000D03*
X44450000Y-85344000D03*
X26670000Y-70104000D03*
X54610000Y-62484000D03*
X26670000Y-44704000D03*
X62230000Y-52324000D03*
X39370000Y-75184000D03*
X72390000Y-90424000D03*
X59690000Y-65024000D03*
X59690000Y-92964000D03*
X69850000Y-44704000D03*
X54610000Y-39624000D03*
X39370000Y-37084000D03*
X57150000Y-44704000D03*
X72390000Y-37084000D03*
X29210000Y-82804000D03*
X34290000Y-87884000D03*
X46990000Y-82804000D03*
X34290000Y-90424000D03*
X29210000Y-92964000D03*
X36830000Y-67564000D03*
X72390000Y-80264000D03*
X39370000Y-42164000D03*
X31750000Y-90424000D03*
X69850000Y-87884000D03*
X29210000Y-44704000D03*
X49530000Y-54864000D03*
D14*
X30480000Y-31496000D03*
D13*
X62230000Y-80264000D03*
X39370000Y-77724000D03*
X54610000Y-37084000D03*
X39370000Y-85344000D03*
X26670000Y-90424000D03*
X62230000Y-37084000D03*
X46990000Y-42164000D03*
X57150000Y-62484000D03*
X64770000Y-82804000D03*
X62230000Y-87884000D03*
X39370000Y-34544000D03*
X49530000Y-59944000D03*
X49530000Y-42164000D03*
X34290000Y-85344000D03*
X64770000Y-87884000D03*
X54610000Y-49784000D03*
X64770000Y-70104000D03*
X67310000Y-92964000D03*
X54610000Y-85344000D03*
X59690000Y-70104000D03*
X41910000Y-82804000D03*
X49530000Y-87884000D03*
X54610000Y-77724000D03*
X26670000Y-72644000D03*
X29210000Y-62484000D03*
X39370000Y-47244000D03*
X64516000Y-22352000D03*
X64770000Y-49784000D03*
X41910000Y-87884000D03*
X52070000Y-92964000D03*
X36830000Y-49784000D03*
X26670000Y-34544000D03*
X34290000Y-37084000D03*
X52070000Y-37084000D03*
X49530000Y-92964000D03*
X41910000Y-90424000D03*
X72390000Y-39624000D03*
X69850000Y-57404000D03*
X54610000Y-44704000D03*
X69850000Y-85344000D03*
X29210000Y-77724000D03*
X52070000Y-34544000D03*
X52070000Y-67564000D03*
X69850000Y-70104000D03*
X41910000Y-85344000D03*
X72390000Y-34544000D03*
X64770000Y-65024000D03*
X40640000Y-27432000D03*
X44450000Y-82804000D03*
X44450000Y-47244000D03*
X69850000Y-54864000D03*
X52070000Y-54864000D03*
X49530000Y-75184000D03*
X29210000Y-87884000D03*
X36830000Y-80264000D03*
X52070000Y-75184000D03*
X57150000Y-80264000D03*
X46990000Y-80264000D03*
X59690000Y-82804000D03*
X57150000Y-77724000D03*
X54610000Y-34544000D03*
X44450000Y-80264000D03*
X29210000Y-67564000D03*
X57150000Y-85344000D03*
X44450000Y-57404000D03*
X46990000Y-75184000D03*
X57150000Y-90424000D03*
X26670000Y-52324000D03*
X59690000Y-87884000D03*
X26670000Y-47244000D03*
X59690000Y-62484000D03*
X29210000Y-49784000D03*
X57150000Y-57404000D03*
X59690000Y-39624000D03*
X26670000Y-49784000D03*
X29210000Y-70104000D03*
X46990000Y-70104000D03*
X49530000Y-80264000D03*
X46990000Y-47244000D03*
X46990000Y-44704000D03*
X57150000Y-39624000D03*
X34290000Y-54864000D03*
X31750000Y-92964000D03*
X46990000Y-62484000D03*
X72390000Y-57404000D03*
X44450000Y-34544000D03*
X64770000Y-80264000D03*
X29210000Y-85344000D03*
X69850000Y-39624000D03*
X46990000Y-37084000D03*
X52070000Y-39624000D03*
X62230000Y-39624000D03*
X72390000Y-77724000D03*
X39370000Y-54864000D03*
X64770000Y-57404000D03*
X62230000Y-54864000D03*
X44450000Y-87884000D03*
X26670000Y-87884000D03*
X46990000Y-52324000D03*
X57150000Y-67564000D03*
X59690000Y-72644000D03*
X72390000Y-42164000D03*
X62230000Y-92964000D03*
X67310000Y-90424000D03*
X44450000Y-65024000D03*
X62230000Y-77724000D03*
X26670000Y-65024000D03*
X57150000Y-65024000D03*
X54610000Y-59944000D03*
X44450000Y-49784000D03*
X57150000Y-42164000D03*
X36830000Y-47244000D03*
X64770000Y-54864000D03*
X57150000Y-70104000D03*
X41910000Y-39624000D03*
X57150000Y-82804000D03*
X39370000Y-44704000D03*
X64770000Y-52324000D03*
X62230000Y-57404000D03*
X36830000Y-44704000D03*
X44450000Y-44704000D03*
X44450000Y-72644000D03*
X52070000Y-72644000D03*
X41910000Y-37084000D03*
X39370000Y-70104000D03*
X34290000Y-92964000D03*
X34290000Y-34544000D03*
X34290000Y-52324000D03*
X34290000Y-49784000D03*
X44450000Y-42164000D03*
X41910000Y-54864000D03*
X36830000Y-85344000D03*
X39370000Y-82804000D03*
X62230000Y-70104000D03*
X36830000Y-42164000D03*
X26670000Y-37084000D03*
X39370000Y-72644000D03*
X49530000Y-49784000D03*
X41910000Y-57404000D03*
X34290000Y-72644000D03*
X52070000Y-65024000D03*
X62230000Y-42164000D03*
X29210000Y-90424000D03*
X39370000Y-59944000D03*
X49530000Y-67564000D03*
X36830000Y-37084000D03*
X39370000Y-57404000D03*
X46990000Y-87884000D03*
X34290000Y-57404000D03*
X52070000Y-47244000D03*
X52070000Y-70104000D03*
X59690000Y-47244000D03*
X62230000Y-62484000D03*
X34290000Y-62484000D03*
X64770000Y-34544000D03*
X29210000Y-47244000D03*
X29210000Y-65024000D03*
X46990000Y-92964000D03*
X29210000Y-42164000D03*
X29210000Y-75184000D03*
X36830000Y-90424000D03*
X36830000Y-72644000D03*
X36830000Y-62484000D03*
X29210000Y-80264000D03*
X49530000Y-77724000D03*
X39370000Y-80264000D03*
X29210000Y-52324000D03*
X49530000Y-57404000D03*
X59436000Y-27432000D03*
X46990000Y-90424000D03*
X44450000Y-90424000D03*
X36830000Y-87884000D03*
X26670000Y-75184000D03*
X69850000Y-52324000D03*
X69850000Y-42164000D03*
X34290000Y-59944000D03*
X62230000Y-65024000D03*
X54610000Y-42164000D03*
X46990000Y-67564000D03*
X41910000Y-52324000D03*
X62230000Y-72644000D03*
X72390000Y-54864000D03*
X46990000Y-57404000D03*
X34290000Y-75184000D03*
X57150000Y-72644000D03*
X57150000Y-37084000D03*
X26670000Y-62484000D03*
X72390000Y-92964000D03*
X59690000Y-44704000D03*
X39370000Y-90424000D03*
X52070000Y-57404000D03*
X52070000Y-77724000D03*
X46990000Y-85344000D03*
X44450000Y-77724000D03*
X36830000Y-34544000D03*
X69850000Y-92964000D03*
X36830000Y-57404000D03*
X34290000Y-42164000D03*
X41910000Y-34544000D03*
X49530000Y-90424000D03*
X72390000Y-52324000D03*
X72390000Y-47244000D03*
X62230000Y-82804000D03*
X64770000Y-90424000D03*
X52070000Y-82804000D03*
X59436000Y-22352000D03*
X52070000Y-42164000D03*
X64516000Y-27432000D03*
X59690000Y-54864000D03*
X41910000Y-72644000D03*
X49530000Y-72644000D03*
X62230000Y-49784000D03*
X64770000Y-92964000D03*
X36830000Y-70104000D03*
X59690000Y-90424000D03*
X34290000Y-39624000D03*
X49530000Y-85344000D03*
X59690000Y-34544000D03*
X59690000Y-57404000D03*
X64770000Y-62484000D03*
X64770000Y-67564000D03*
X69850000Y-75184000D03*
X41910000Y-75184000D03*
X52070000Y-49784000D03*
X49530000Y-44704000D03*
X54610000Y-82804000D03*
X62230000Y-47244000D03*
X62230000Y-34544000D03*
X57150000Y-87884000D03*
X52070000Y-87884000D03*
X36830000Y-77724000D03*
X44450000Y-37084000D03*
X62230000Y-67564000D03*
X52070000Y-52324000D03*
X69850000Y-34544000D03*
X49530000Y-82804000D03*
X69850000Y-65024000D03*
X44450000Y-92964000D03*
X44450000Y-59944000D03*
X44450000Y-75184000D03*
X41910000Y-42164000D03*
X52070000Y-59944000D03*
X41910000Y-92964000D03*
X49530000Y-52324000D03*
X26670000Y-54864000D03*
X57150000Y-49784000D03*
X72390000Y-59944000D03*
X54610000Y-54864000D03*
X64770000Y-85344000D03*
X54610000Y-92964000D03*
X69850000Y-90424000D03*
X26670000Y-42164000D03*
X26670000Y-39624000D03*
X72390000Y-44704000D03*
X39370000Y-49784000D03*
X72390000Y-67564000D03*
X54610000Y-70104000D03*
X72390000Y-49784000D03*
X57150000Y-52324000D03*
X36830000Y-39624000D03*
X39370000Y-67564000D03*
X49530000Y-39624000D03*
X69850000Y-47244000D03*
X54610000Y-67564000D03*
X57150000Y-75184000D03*
X29210000Y-59944000D03*
X59690000Y-49784000D03*
X44450000Y-52324000D03*
X62230000Y-59944000D03*
X49530000Y-70104000D03*
X64770000Y-59944000D03*
X52070000Y-85344000D03*
X44450000Y-39624000D03*
X64770000Y-75184000D03*
X49530000Y-47244000D03*
X34290000Y-67564000D03*
X26670000Y-57404000D03*
X64770000Y-44704000D03*
X36830000Y-82804000D03*
X57150000Y-34544000D03*
X34290000Y-47244000D03*
X46990000Y-72644000D03*
X59690000Y-42164000D03*
X34290000Y-65024000D03*
X54610000Y-75184000D03*
X54610000Y-72644000D03*
X44450000Y-67564000D03*
X46990000Y-39624000D03*
X49530000Y-62484000D03*
X52070000Y-62484000D03*
X59690000Y-77724000D03*
X72390000Y-82804000D03*
X35560000Y-22352000D03*
X34290000Y-80264000D03*
X64770000Y-77724000D03*
X29210000Y-54864000D03*
X41910000Y-70104000D03*
X64770000Y-37084000D03*
X44450000Y-70104000D03*
X54610000Y-80264000D03*
X64770000Y-47244000D03*
X41910000Y-62484000D03*
X57150000Y-92964000D03*
X64770000Y-42164000D03*
X41910000Y-67564000D03*
X35560000Y-27432000D03*
X54610000Y-90424000D03*
X41910000Y-47244000D03*
X54610000Y-87884000D03*
X72390000Y-65024000D03*
X36830000Y-75184000D03*
X69850000Y-77724000D03*
X36830000Y-65024000D03*
X40640000Y-22352000D03*
X34290000Y-70104000D03*
X36830000Y-92964000D03*
X57150000Y-59944000D03*
X39370000Y-87884000D03*
X59690000Y-37084000D03*
X54610000Y-47244000D03*
X59690000Y-85344000D03*
X39370000Y-62484000D03*
X49530000Y-34544000D03*
X72390000Y-87884000D03*
X26670000Y-67564000D03*
X52070000Y-44704000D03*
X46990000Y-59944000D03*
X54610000Y-52324000D03*
X26670000Y-80264000D03*
X46990000Y-77724000D03*
%LPD*%
M02*
