G04 #@! TF.GenerationSoftware,KiCad,Pcbnew,7.0.6*
G04 #@! TF.CreationDate,2023-07-22T12:38:10-04:00*
G04 #@! TF.ProjectId,Double Sided - ESP32-S3-DevKitC-1 Proto Shield,446f7562-6c65-4205-9369-646564202d20,rev?*
G04 #@! TF.SameCoordinates,Original*
G04 #@! TF.FileFunction,Copper,L1,Top*
G04 #@! TF.FilePolarity,Positive*
%FSLAX46Y46*%
G04 Gerber Fmt 4.6, Leading zero omitted, Abs format (unit mm)*
G04 Created by KiCad (PCBNEW 7.0.6) date 2023-07-22 12:38:10*
%MOMM*%
%LPD*%
G01*
G04 APERTURE LIST*
G04 #@! TA.AperFunction,ViaPad*
%ADD10C,1.524000*%
G04 #@! TD*
G04 #@! TA.AperFunction,ViaPad*
%ADD11C,1.016000*%
G04 #@! TD*
G04 #@! TA.AperFunction,Conductor*
%ADD12C,1.016000*%
G04 #@! TD*
G04 #@! TA.AperFunction,Conductor*
%ADD13C,0.508000*%
G04 #@! TD*
G04 APERTURE END LIST*
D10*
X72390000Y-62484000D03*
X46990000Y-54864000D03*
X52070000Y-90424000D03*
X59690000Y-52324000D03*
X64770000Y-72644000D03*
X26670000Y-59944000D03*
X69850000Y-49784000D03*
X62230000Y-75184000D03*
X69850000Y-67564000D03*
X59690000Y-67564000D03*
X36830000Y-52324000D03*
X26670000Y-77724000D03*
X39370000Y-39624000D03*
X41910000Y-44704000D03*
X46990000Y-34544000D03*
X41910000Y-59944000D03*
X59690000Y-80264000D03*
X64770000Y-39624000D03*
X72390000Y-70104000D03*
X62230000Y-44704000D03*
X29210000Y-57404000D03*
X54610000Y-65024000D03*
X26670000Y-92964000D03*
X69850000Y-80264000D03*
X34290000Y-77724000D03*
X62230000Y-90424000D03*
X62230000Y-85344000D03*
X52070000Y-80264000D03*
X59690000Y-59944000D03*
X44450000Y-62484000D03*
X69850000Y-37084000D03*
X72390000Y-75184000D03*
X72390000Y-72644000D03*
X41910000Y-49784000D03*
X57150000Y-47244000D03*
X41910000Y-65024000D03*
X69850000Y-72644000D03*
X69850000Y-82804000D03*
X44450000Y-54864000D03*
D11*
X30480000Y-37084000D03*
D10*
X46990000Y-65024000D03*
X34290000Y-82804000D03*
X41910000Y-77724000D03*
X34290000Y-44704000D03*
X36830000Y-59944000D03*
X49530000Y-37084000D03*
X72390000Y-85344000D03*
X36830000Y-54864000D03*
X57150000Y-54864000D03*
X41910000Y-80264000D03*
X39370000Y-92964000D03*
X59690000Y-75184000D03*
X39370000Y-52324000D03*
X29210000Y-72644000D03*
X49530000Y-65024000D03*
X46990000Y-49784000D03*
X39370000Y-65024000D03*
X54610000Y-57404000D03*
X44450000Y-85344000D03*
X26670000Y-70104000D03*
X54610000Y-62484000D03*
X26670000Y-44704000D03*
X62230000Y-52324000D03*
X39370000Y-75184000D03*
X72390000Y-90424000D03*
X59690000Y-65024000D03*
X59690000Y-92964000D03*
X69850000Y-44704000D03*
X54610000Y-39624000D03*
X39370000Y-37084000D03*
X57150000Y-44704000D03*
X72390000Y-37084000D03*
X29210000Y-82804000D03*
X34290000Y-87884000D03*
X46990000Y-82804000D03*
X34290000Y-90424000D03*
X29210000Y-92964000D03*
X36830000Y-67564000D03*
X72390000Y-80264000D03*
X39370000Y-42164000D03*
X31750000Y-90424000D03*
X69850000Y-87884000D03*
X29210000Y-44704000D03*
X49530000Y-54864000D03*
D11*
X30480000Y-31496000D03*
D10*
X62230000Y-80264000D03*
X39370000Y-77724000D03*
X54610000Y-37084000D03*
X39370000Y-85344000D03*
X26670000Y-90424000D03*
X62230000Y-37084000D03*
X46990000Y-42164000D03*
X57150000Y-62484000D03*
X64770000Y-82804000D03*
X62230000Y-87884000D03*
X39370000Y-34544000D03*
X49530000Y-59944000D03*
X49530000Y-42164000D03*
X34290000Y-85344000D03*
X64770000Y-87884000D03*
X54610000Y-49784000D03*
X64770000Y-70104000D03*
X67310000Y-92964000D03*
X54610000Y-85344000D03*
X59690000Y-70104000D03*
X41910000Y-82804000D03*
X49530000Y-87884000D03*
X54610000Y-77724000D03*
X26670000Y-72644000D03*
X29210000Y-62484000D03*
X39370000Y-47244000D03*
X64516000Y-22352000D03*
X64770000Y-49784000D03*
X41910000Y-87884000D03*
X52070000Y-92964000D03*
X36830000Y-49784000D03*
X26670000Y-34544000D03*
X34290000Y-37084000D03*
X52070000Y-37084000D03*
X49530000Y-92964000D03*
X41910000Y-90424000D03*
X72390000Y-39624000D03*
X69850000Y-57404000D03*
X54610000Y-44704000D03*
X69850000Y-85344000D03*
X29210000Y-77724000D03*
X52070000Y-34544000D03*
X52070000Y-67564000D03*
X69850000Y-70104000D03*
X41910000Y-85344000D03*
X72390000Y-34544000D03*
X64770000Y-65024000D03*
X40640000Y-27432000D03*
X44450000Y-82804000D03*
X44450000Y-47244000D03*
X69850000Y-54864000D03*
X52070000Y-54864000D03*
X49530000Y-75184000D03*
X29210000Y-87884000D03*
X36830000Y-80264000D03*
X52070000Y-75184000D03*
X57150000Y-80264000D03*
X46990000Y-80264000D03*
X59690000Y-82804000D03*
X57150000Y-77724000D03*
X54610000Y-34544000D03*
X44450000Y-80264000D03*
X29210000Y-67564000D03*
X57150000Y-85344000D03*
X44450000Y-57404000D03*
X46990000Y-75184000D03*
X57150000Y-90424000D03*
X26670000Y-52324000D03*
X59690000Y-87884000D03*
X26670000Y-47244000D03*
X59690000Y-62484000D03*
X29210000Y-49784000D03*
X57150000Y-57404000D03*
X59690000Y-39624000D03*
X26670000Y-49784000D03*
X29210000Y-70104000D03*
X46990000Y-70104000D03*
X49530000Y-80264000D03*
X46990000Y-47244000D03*
X46990000Y-44704000D03*
X57150000Y-39624000D03*
X34290000Y-54864000D03*
X31750000Y-92964000D03*
X46990000Y-62484000D03*
X72390000Y-57404000D03*
X44450000Y-34544000D03*
X64770000Y-80264000D03*
X29210000Y-85344000D03*
X69850000Y-39624000D03*
X46990000Y-37084000D03*
X52070000Y-39624000D03*
X62230000Y-39624000D03*
X72390000Y-77724000D03*
X39370000Y-54864000D03*
X64770000Y-57404000D03*
X62230000Y-54864000D03*
X44450000Y-87884000D03*
X26670000Y-87884000D03*
X46990000Y-52324000D03*
X57150000Y-67564000D03*
X59690000Y-72644000D03*
X72390000Y-42164000D03*
X62230000Y-92964000D03*
X67310000Y-90424000D03*
X44450000Y-65024000D03*
X62230000Y-77724000D03*
X26670000Y-65024000D03*
X57150000Y-65024000D03*
X54610000Y-59944000D03*
X44450000Y-49784000D03*
X57150000Y-42164000D03*
X36830000Y-47244000D03*
X64770000Y-54864000D03*
X57150000Y-70104000D03*
X41910000Y-39624000D03*
X57150000Y-82804000D03*
X39370000Y-44704000D03*
X64770000Y-52324000D03*
X62230000Y-57404000D03*
X36830000Y-44704000D03*
X44450000Y-44704000D03*
X44450000Y-72644000D03*
X52070000Y-72644000D03*
X41910000Y-37084000D03*
X39370000Y-70104000D03*
X34290000Y-92964000D03*
X34290000Y-34544000D03*
X34290000Y-52324000D03*
X34290000Y-49784000D03*
X44450000Y-42164000D03*
X41910000Y-54864000D03*
X36830000Y-85344000D03*
X39370000Y-82804000D03*
X62230000Y-70104000D03*
X36830000Y-42164000D03*
X26670000Y-37084000D03*
X39370000Y-72644000D03*
X49530000Y-49784000D03*
X41910000Y-57404000D03*
X34290000Y-72644000D03*
X52070000Y-65024000D03*
X62230000Y-42164000D03*
X29210000Y-90424000D03*
X39370000Y-59944000D03*
X49530000Y-67564000D03*
X36830000Y-37084000D03*
X39370000Y-57404000D03*
X46990000Y-87884000D03*
X34290000Y-57404000D03*
X52070000Y-47244000D03*
X52070000Y-70104000D03*
X59690000Y-47244000D03*
X62230000Y-62484000D03*
X34290000Y-62484000D03*
X64770000Y-34544000D03*
X29210000Y-47244000D03*
X29210000Y-65024000D03*
X46990000Y-92964000D03*
X29210000Y-42164000D03*
X29210000Y-75184000D03*
X36830000Y-90424000D03*
X36830000Y-72644000D03*
X36830000Y-62484000D03*
X29210000Y-80264000D03*
X49530000Y-77724000D03*
X39370000Y-80264000D03*
X29210000Y-52324000D03*
X49530000Y-57404000D03*
X59436000Y-27432000D03*
X46990000Y-90424000D03*
X44450000Y-90424000D03*
X36830000Y-87884000D03*
X26670000Y-75184000D03*
X69850000Y-52324000D03*
X69850000Y-42164000D03*
X34290000Y-59944000D03*
X62230000Y-65024000D03*
X54610000Y-42164000D03*
X46990000Y-67564000D03*
X41910000Y-52324000D03*
X62230000Y-72644000D03*
X72390000Y-54864000D03*
X46990000Y-57404000D03*
X34290000Y-75184000D03*
X57150000Y-72644000D03*
X57150000Y-37084000D03*
X26670000Y-62484000D03*
X72390000Y-92964000D03*
X59690000Y-44704000D03*
X39370000Y-90424000D03*
X52070000Y-57404000D03*
X52070000Y-77724000D03*
X46990000Y-85344000D03*
X44450000Y-77724000D03*
X36830000Y-34544000D03*
X69850000Y-92964000D03*
X36830000Y-57404000D03*
X34290000Y-42164000D03*
X41910000Y-34544000D03*
X49530000Y-90424000D03*
X72390000Y-52324000D03*
X72390000Y-47244000D03*
X62230000Y-82804000D03*
X64770000Y-90424000D03*
X52070000Y-82804000D03*
X59436000Y-22352000D03*
X52070000Y-42164000D03*
X64516000Y-27432000D03*
X59690000Y-54864000D03*
X41910000Y-72644000D03*
X49530000Y-72644000D03*
X62230000Y-49784000D03*
X64770000Y-92964000D03*
X36830000Y-70104000D03*
X59690000Y-90424000D03*
X34290000Y-39624000D03*
X49530000Y-85344000D03*
X59690000Y-34544000D03*
X59690000Y-57404000D03*
X64770000Y-62484000D03*
X64770000Y-67564000D03*
X69850000Y-75184000D03*
X41910000Y-75184000D03*
X52070000Y-49784000D03*
X49530000Y-44704000D03*
X54610000Y-82804000D03*
X62230000Y-47244000D03*
X62230000Y-34544000D03*
X57150000Y-87884000D03*
X52070000Y-87884000D03*
X36830000Y-77724000D03*
X44450000Y-37084000D03*
X62230000Y-67564000D03*
X52070000Y-52324000D03*
X69850000Y-34544000D03*
X49530000Y-82804000D03*
X69850000Y-65024000D03*
X44450000Y-92964000D03*
X44450000Y-59944000D03*
X44450000Y-75184000D03*
X41910000Y-42164000D03*
X52070000Y-59944000D03*
X41910000Y-92964000D03*
X49530000Y-52324000D03*
X26670000Y-54864000D03*
X57150000Y-49784000D03*
X72390000Y-59944000D03*
X54610000Y-54864000D03*
X64770000Y-85344000D03*
X54610000Y-92964000D03*
X69850000Y-90424000D03*
X26670000Y-42164000D03*
X26670000Y-39624000D03*
X72390000Y-44704000D03*
X39370000Y-49784000D03*
X72390000Y-67564000D03*
X54610000Y-70104000D03*
X72390000Y-49784000D03*
X57150000Y-52324000D03*
X36830000Y-39624000D03*
X39370000Y-67564000D03*
X49530000Y-39624000D03*
X69850000Y-47244000D03*
X54610000Y-67564000D03*
X57150000Y-75184000D03*
X29210000Y-59944000D03*
X59690000Y-49784000D03*
X44450000Y-52324000D03*
X62230000Y-59944000D03*
X49530000Y-70104000D03*
X64770000Y-59944000D03*
X52070000Y-85344000D03*
X44450000Y-39624000D03*
X64770000Y-75184000D03*
X49530000Y-47244000D03*
X34290000Y-67564000D03*
X26670000Y-57404000D03*
X64770000Y-44704000D03*
X36830000Y-82804000D03*
X57150000Y-34544000D03*
X34290000Y-47244000D03*
X46990000Y-72644000D03*
X59690000Y-42164000D03*
X34290000Y-65024000D03*
X54610000Y-75184000D03*
X54610000Y-72644000D03*
X44450000Y-67564000D03*
X46990000Y-39624000D03*
X49530000Y-62484000D03*
X52070000Y-62484000D03*
X59690000Y-77724000D03*
X72390000Y-82804000D03*
X35560000Y-22352000D03*
X34290000Y-80264000D03*
X64770000Y-77724000D03*
X29210000Y-54864000D03*
X41910000Y-70104000D03*
X64770000Y-37084000D03*
X44450000Y-70104000D03*
X54610000Y-80264000D03*
X64770000Y-47244000D03*
X41910000Y-62484000D03*
X57150000Y-92964000D03*
X64770000Y-42164000D03*
X41910000Y-67564000D03*
X35560000Y-27432000D03*
X54610000Y-90424000D03*
X41910000Y-47244000D03*
X54610000Y-87884000D03*
X72390000Y-65024000D03*
X36830000Y-75184000D03*
X69850000Y-77724000D03*
X36830000Y-65024000D03*
X40640000Y-22352000D03*
X34290000Y-70104000D03*
X36830000Y-92964000D03*
X57150000Y-59944000D03*
X39370000Y-87884000D03*
X59690000Y-37084000D03*
X54610000Y-47244000D03*
X59690000Y-85344000D03*
X39370000Y-62484000D03*
X49530000Y-34544000D03*
X72390000Y-87884000D03*
X26670000Y-67564000D03*
X52070000Y-44704000D03*
X46990000Y-59944000D03*
X54610000Y-52324000D03*
X26670000Y-80264000D03*
X46990000Y-77724000D03*
D12*
X62230000Y-37084000D02*
X64770000Y-37084000D01*
X57150000Y-65024000D02*
X59690000Y-65024000D01*
X52070000Y-90424000D02*
X52070000Y-92964000D01*
X34290000Y-54864000D02*
X36830000Y-54864000D01*
X62230000Y-57404000D02*
X64770000Y-57404000D01*
X34290000Y-82804000D02*
X36830000Y-82804000D01*
X34290000Y-87884000D02*
X36830000Y-87884000D01*
D13*
X64516000Y-29972000D02*
X64516000Y-27432000D01*
D12*
X39370000Y-65024000D02*
X41910000Y-65024000D01*
X57150000Y-44704000D02*
X59690000Y-44704000D01*
X44450000Y-70104000D02*
X46990000Y-70104000D01*
X44450000Y-90424000D02*
X44450000Y-92964000D01*
X44450000Y-77724000D02*
X46990000Y-77724000D01*
X57150000Y-47244000D02*
X59690000Y-47244000D01*
X52070000Y-82804000D02*
X54610000Y-82804000D01*
D13*
X33020000Y-39624000D02*
X30480000Y-37084000D01*
D12*
X57150000Y-70104000D02*
X59690000Y-70104000D01*
X39370000Y-87884000D02*
X41910000Y-87884000D01*
X39370000Y-39624000D02*
X41910000Y-39624000D01*
X62230000Y-67564000D02*
X64770000Y-67564000D01*
X57150000Y-82804000D02*
X59690000Y-82804000D01*
X44450000Y-34544000D02*
X46990000Y-34544000D01*
X57150000Y-37084000D02*
X59690000Y-37084000D01*
X29210000Y-42164000D02*
X29210000Y-85344000D01*
X34290000Y-37084000D02*
X36830000Y-37084000D01*
X34290000Y-42164000D02*
X36830000Y-42164000D01*
X34290000Y-57404000D02*
X36830000Y-57404000D01*
X64770000Y-90424000D02*
X64770000Y-92964000D01*
X62230000Y-39624000D02*
X64770000Y-39624000D01*
X39370000Y-44704000D02*
X41910000Y-44704000D01*
X39370000Y-34544000D02*
X41910000Y-34544000D01*
X44450000Y-49784000D02*
X46990000Y-49784000D01*
X62230000Y-59944000D02*
X64770000Y-59944000D01*
X39370000Y-37084000D02*
X41910000Y-37084000D01*
X59690000Y-90424000D02*
X59690000Y-92964000D01*
X62230000Y-70104000D02*
X64770000Y-70104000D01*
X34290000Y-85344000D02*
X36830000Y-85344000D01*
X69850000Y-90424000D02*
X69850000Y-92964000D01*
X44450000Y-52324000D02*
X46990000Y-52324000D01*
X39370000Y-67564000D02*
X41910000Y-67564000D01*
D13*
X67564000Y-33020000D02*
X64516000Y-29972000D01*
X59436000Y-27432000D02*
X40640000Y-27432000D01*
D12*
X52070000Y-47244000D02*
X54610000Y-47244000D01*
X62230000Y-34544000D02*
X64770000Y-34544000D01*
X29210000Y-87884000D02*
X26670000Y-87884000D01*
X62230000Y-47244000D02*
X64770000Y-47244000D01*
X57150000Y-49784000D02*
X59690000Y-49784000D01*
X57150000Y-87884000D02*
X59690000Y-87884000D01*
X34290000Y-65024000D02*
X36830000Y-65024000D01*
X52070000Y-80264000D02*
X54610000Y-80264000D01*
X26670000Y-90424000D02*
X26670000Y-92964000D01*
X34290000Y-62484000D02*
X36830000Y-62484000D01*
X41910000Y-90424000D02*
X41910000Y-92964000D01*
X34290000Y-34544000D02*
X36830000Y-34544000D01*
D13*
X68072000Y-25654000D02*
X72390000Y-29972000D01*
D12*
X57150000Y-77724000D02*
X59690000Y-77724000D01*
X52070000Y-44704000D02*
X54610000Y-44704000D01*
X72390000Y-90424000D02*
X72390000Y-92964000D01*
X44450000Y-59944000D02*
X46990000Y-59944000D01*
X57150000Y-85344000D02*
X59690000Y-85344000D01*
X39370000Y-54864000D02*
X41910000Y-54864000D01*
X62230000Y-82804000D02*
X64770000Y-82804000D01*
X34290000Y-87884000D02*
X29210000Y-87884000D01*
X31750000Y-90424000D02*
X31750000Y-92964000D01*
X39370000Y-70104000D02*
X41910000Y-70104000D01*
X44450000Y-82804000D02*
X46990000Y-82804000D01*
X44450000Y-87884000D02*
X46990000Y-87884000D01*
X57150000Y-34544000D02*
X59690000Y-34544000D01*
X39370000Y-85344000D02*
X41910000Y-85344000D01*
X39370000Y-90424000D02*
X39370000Y-92964000D01*
X34290000Y-49784000D02*
X36830000Y-49784000D01*
X52070000Y-85344000D02*
X54610000Y-85344000D01*
X52070000Y-52324000D02*
X54610000Y-52324000D01*
X46990000Y-90424000D02*
X46990000Y-92964000D01*
X62230000Y-72644000D02*
X64770000Y-72644000D01*
X57150000Y-52324000D02*
X59690000Y-52324000D01*
X39370000Y-52324000D02*
X41910000Y-52324000D01*
X34290000Y-47244000D02*
X36830000Y-47244000D01*
X34290000Y-90424000D02*
X34290000Y-92964000D01*
X52070000Y-75184000D02*
X54610000Y-75184000D01*
X62230000Y-90424000D02*
X62230000Y-92964000D01*
D13*
X61214000Y-25654000D02*
X68072000Y-25654000D01*
D12*
X57150000Y-39624000D02*
X59690000Y-39624000D01*
X62230000Y-75184000D02*
X64770000Y-75184000D01*
D13*
X72390000Y-29972000D02*
X72390000Y-34544000D01*
D12*
X44450000Y-72644000D02*
X46990000Y-72644000D01*
X34290000Y-70104000D02*
X36830000Y-70104000D01*
X52070000Y-39624000D02*
X54610000Y-39624000D01*
X39370000Y-75184000D02*
X41910000Y-75184000D01*
X34290000Y-80264000D02*
X36830000Y-80264000D01*
X52070000Y-87884000D02*
X54610000Y-87884000D01*
X62230000Y-87884000D02*
X64770000Y-87884000D01*
X62230000Y-42164000D02*
X64770000Y-42164000D01*
X52070000Y-59944000D02*
X54610000Y-59944000D01*
X44450000Y-57404000D02*
X46990000Y-57404000D01*
X39370000Y-80264000D02*
X41910000Y-80264000D01*
X62230000Y-44704000D02*
X64770000Y-44704000D01*
X57150000Y-42164000D02*
X59690000Y-42164000D01*
X57150000Y-90424000D02*
X57150000Y-92964000D01*
X69850000Y-87884000D02*
X72390000Y-87884000D01*
X44450000Y-42164000D02*
X46990000Y-42164000D01*
X62230000Y-77724000D02*
X64770000Y-77724000D01*
D13*
X34544000Y-27432000D02*
X35560000Y-27432000D01*
D12*
X36830000Y-90424000D02*
X36830000Y-92964000D01*
X52070000Y-62484000D02*
X54610000Y-62484000D01*
X26670000Y-37084000D02*
X26670000Y-80264000D01*
X44450000Y-44704000D02*
X46990000Y-44704000D01*
D13*
X34290000Y-39624000D02*
X33020000Y-39624000D01*
D12*
X57150000Y-75184000D02*
X59690000Y-75184000D01*
X44450000Y-85344000D02*
X46990000Y-85344000D01*
X52070000Y-65024000D02*
X54610000Y-65024000D01*
X44450000Y-65024000D02*
X46990000Y-65024000D01*
X29210000Y-85344000D02*
X34290000Y-85344000D01*
X52070000Y-37084000D02*
X54610000Y-37084000D01*
X39370000Y-47244000D02*
X41910000Y-47244000D01*
X67310000Y-90424000D02*
X67310000Y-92964000D01*
X72390000Y-87884000D02*
X72390000Y-34544000D01*
X39370000Y-77724000D02*
X41910000Y-77724000D01*
X44450000Y-37084000D02*
X46990000Y-37084000D01*
X62230000Y-49784000D02*
X64770000Y-49784000D01*
X34290000Y-75184000D02*
X36830000Y-75184000D01*
X52070000Y-70104000D02*
X54610000Y-70104000D01*
X34290000Y-59944000D02*
X36830000Y-59944000D01*
X39370000Y-82804000D02*
X41910000Y-82804000D01*
X52070000Y-34544000D02*
X54610000Y-34544000D01*
X39370000Y-57404000D02*
X41910000Y-57404000D01*
X49530000Y-90424000D02*
X49530000Y-92964000D01*
D13*
X67564000Y-64770000D02*
X67564000Y-33020000D01*
D12*
X62230000Y-80264000D02*
X64770000Y-80264000D01*
X69850000Y-65024000D02*
X69850000Y-85344000D01*
X69850000Y-57404000D02*
X69850000Y-34544000D01*
X34290000Y-52324000D02*
X36830000Y-52324000D01*
X52070000Y-77724000D02*
X54610000Y-77724000D01*
X57150000Y-80264000D02*
X59690000Y-80264000D01*
X26670000Y-34544000D02*
X26670000Y-37084000D01*
D13*
X30480000Y-31496000D02*
X34544000Y-27432000D01*
D12*
X44450000Y-39624000D02*
X46990000Y-39624000D01*
X57150000Y-67564000D02*
X59690000Y-67564000D01*
X44450000Y-54864000D02*
X46990000Y-54864000D01*
X39370000Y-59944000D02*
X41910000Y-59944000D01*
X52070000Y-49784000D02*
X54610000Y-49784000D01*
X57150000Y-54864000D02*
X59690000Y-54864000D01*
D13*
X59436000Y-27432000D02*
X61214000Y-25654000D01*
D12*
X52070000Y-72644000D02*
X54610000Y-72644000D01*
X39370000Y-72644000D02*
X41910000Y-72644000D01*
X34290000Y-39624000D02*
X36830000Y-39624000D01*
X57150000Y-62484000D02*
X59690000Y-62484000D01*
X44450000Y-75184000D02*
X46990000Y-75184000D01*
X39370000Y-49784000D02*
X41910000Y-49784000D01*
D13*
X64770000Y-67564000D02*
X67564000Y-64770000D01*
D12*
X29210000Y-90424000D02*
X29210000Y-92964000D01*
X39370000Y-62484000D02*
X41910000Y-62484000D01*
X44450000Y-62484000D02*
X46990000Y-62484000D01*
X52070000Y-42164000D02*
X54610000Y-42164000D01*
X64770000Y-87884000D02*
X69850000Y-87884000D01*
X44450000Y-47244000D02*
X46990000Y-47244000D01*
X62230000Y-62484000D02*
X64770000Y-62484000D01*
X54610000Y-90424000D02*
X54610000Y-92964000D01*
X34290000Y-67564000D02*
X36830000Y-67564000D01*
X57150000Y-57404000D02*
X59690000Y-57404000D01*
X52070000Y-54864000D02*
X54610000Y-54864000D01*
X39370000Y-42164000D02*
X41910000Y-42164000D01*
X34290000Y-72644000D02*
X36830000Y-72644000D01*
X34290000Y-77724000D02*
X36830000Y-77724000D01*
X34290000Y-44704000D02*
X36830000Y-44704000D01*
X57150000Y-59944000D02*
X59690000Y-59944000D01*
X62230000Y-85344000D02*
X64770000Y-85344000D01*
X57150000Y-72644000D02*
X59690000Y-72644000D01*
X34290000Y-34544000D02*
X26670000Y-34544000D01*
X52070000Y-57404000D02*
X54610000Y-57404000D01*
X62230000Y-65024000D02*
X64770000Y-65024000D01*
X44450000Y-80264000D02*
X46990000Y-80264000D01*
X62230000Y-54864000D02*
X64770000Y-54864000D01*
X62230000Y-52324000D02*
X64770000Y-52324000D01*
X52070000Y-67564000D02*
X54610000Y-67564000D01*
X44450000Y-67564000D02*
X46990000Y-67564000D01*
M02*
